<svg xmlns="http://www.w3.org/2000/svg" viewBox="0 0 63.7 62.2"><defs><style>.cls-1{fill:#fff;}</style></defs><g id="Capa_2" data-name="Capa 2"><g id="Layer_1" data-name="Layer 1"><path class="cls-1" d="M32.84,28.7A5.55,5.55,0,0,1,32,17.64c3.05-.3,5.65,2.25,5.8,5.56a5.36,5.36,0,0,1-1.37,4A4.88,4.88,0,0,1,32.84,28.7Zm-.36-9.59-.34,0a4.15,4.15,0,0,0-3.47,4.5,4.07,4.07,0,0,0,4.17,3.57,3.34,3.34,0,0,0,2.49-1,3.85,3.85,0,0,0,1-2.94A4.09,4.09,0,0,0,32.48,19.11Z"/><path class="cls-1" d="M8.37,52.31c-.12,0-2.8,0-3.76-1s-.51-5.55.17-6.39a3.94,3.94,0,0,1,2.67-.82A2.7,2.7,0,0,1,9.74,45c.61.93,1,6.17.22,7C9.76,52.12,9.42,52.31,8.37,52.31ZM7.45,45.6a3.26,3.26,0,0,0-1.53.3c-.33.58-.59,3.84-.22,4.37a5.52,5.52,0,0,0,2.67.54,2.88,2.88,0,0,0,.48,0,15.22,15.22,0,0,0-.36-5A1.77,1.77,0,0,0,7.45,45.6Z"/><path class="cls-1" d="M27.86,61.76a.75.75,0,0,1-.71-.52c-.41-1.26-1.06-11.57.29-12.38.8-.48,6.83-1,8.32-.53a1.14,1.14,0,0,1,.73.55c.27.54.61,11.49-.2,12.38a.75.75,0,0,1-1.21-.86,74.9,74.9,0,0,0,.09-10.67,31.82,31.82,0,0,0-6.81.38c-.36,1.51-.32,9,.22,10.66a.76.76,0,0,1-.49.95A.85.85,0,0,1,27.86,61.76Z"/><path class="cls-1" d="M8,41.63c-2.76,0-3.1-.69-3.23-.94-.42-.86-.42-5.4-.09-6.28a.86.86,0,0,1,.47-.53,4,4,0,0,1,1.57-.14c2.77,0,3.16.36,3.3.5.76.7.65,5.59.65,5.64,0,.71-.12,1.14-.46,1.4C10.13,41.36,9.78,41.63,8,41.63Zm-1.9-1.71a6.2,6.2,0,0,0,1.9.21,7.68,7.68,0,0,0,1.16-.07A25.26,25.26,0,0,0,9,35.37a16.12,16.12,0,0,0-2.21-.13h-.7A23.86,23.86,0,0,0,6.14,39.92Z"/><path class="cls-1" d="M16,41.57c-2.33,0-2.72-.58-2.86-.8-.51-.75-1.09-6-.14-6.65.15-.1.44-.31,1.95-.31,1.17,0,2.68.1,3.16.62.67.7,1.1,5.76.83,6.35C18.81,41,18.55,41.57,16,41.57Zm-1.64-1.69a4.94,4.94,0,0,0,1.64.19A8.76,8.76,0,0,0,17.53,40,24.64,24.64,0,0,0,17,35.5a9.22,9.22,0,0,0-2.06-.19,9,9,0,0,0-.93,0A17.14,17.14,0,0,0,14.34,39.88Z"/><path class="cls-1" d="M24.76,41.82c-.11,0-2.67,0-3.43-1s-.39-4.5-.29-5.15c.12-.84.27-1.21.57-1.43a7.18,7.18,0,0,1,3-.65,2,2,0,0,1,1.69.6c.62.85.76,6.53,0,7.26C26.12,41.62,25.77,41.82,24.76,41.82ZM22.6,35.41a13.27,13.27,0,0,0-.06,4.52,5.45,5.45,0,0,0,2.22.39l.46,0a20.25,20.25,0,0,0-.08-5.18,2.17,2.17,0,0,0-.49,0A7.53,7.53,0,0,0,22.6,35.41Z"/><path class="cls-1" d="M31.39,41.73c-1.4,0-2-.21-2.28-.76s-.64-6.15.57-6.84a5.87,5.87,0,0,1,2.21-.35c1.82,0,2.13.43,2.27.62.35.48,1,6.17.1,6.87C33.69,41.72,31.62,41.73,31.39,41.73Zm-.93-1.56a5.37,5.37,0,0,0,.93.06,11,11,0,0,0,1.8-.14,25.37,25.37,0,0,0-.25-4.73,7.2,7.2,0,0,0-2.38,0A21.52,21.52,0,0,0,30.46,40.17Z"/><path class="cls-1" d="M39.57,41.6c-1.23,0-1.66-.28-1.88-.5-.91-.89-.56-5.36-.55-5.4.1-1,.27-1.42.63-1.65a2.29,2.29,0,0,1,1.33-.27A7.4,7.4,0,0,1,42,34.3c.37.2.6.62.77,1.4.2.95.5,4.37-.08,5.12S39.67,41.6,39.57,41.6ZM38.77,40a5.17,5.17,0,0,0,.8.06,7,7,0,0,0,1.86-.24,13.31,13.31,0,0,0-.3-4.28,6.86,6.86,0,0,0-2-.3l-.4,0A15.92,15.92,0,0,0,38.77,40Z"/><path class="cls-1" d="M16.5,52.36c-.76,0-3.06-.18-3.66-1s-.53-5.87.35-6.67c.16-.14.59-.53,2.51-.53.85,0,2.34.07,2.8.51.75.7.6,6,.15,6.88C18.36,52.1,17.68,52.36,16.5,52.36Zm-2.44-1.91a7.05,7.05,0,0,0,2.44.41,2.86,2.86,0,0,0,.86-.1,21,21,0,0,0,0-5,9.68,9.68,0,0,0-1.69-.13,5.07,5.07,0,0,0-1.48.15A13.58,13.58,0,0,0,14.06,50.45Z"/><path class="cls-1" d="M48.89,52.28c-1.16,0-3.18-.12-3.61-1s-.14-6.15.66-6.88a1.93,1.93,0,0,1,1.38-.38,6.72,6.72,0,0,1,3.46.87c.86.78.9,5.93.43,6.69C51,52,50.56,52.28,48.89,52.28Zm-2.28-1.75a8.93,8.93,0,0,0,2.28.25A5.38,5.38,0,0,0,50,50.7,17.69,17.69,0,0,0,49.73,46a6.93,6.93,0,0,0-2.41-.45l-.33,0A21.54,21.54,0,0,0,46.61,50.53Z"/><path class="cls-1" d="M48.35,41.63c-.39,0-2.34,0-3-.65-.25-.23-.51-.67-.54-2.18,0,0-.06-3.43.68-4.19s2.64-.77,3.29-.77a2.29,2.29,0,0,1,1.82.53c.71.83.56,5.88,0,6.65C50.35,41.3,49.91,41.63,48.35,41.63Zm-2-1.73a7.18,7.18,0,0,0,2,.23,4.58,4.58,0,0,0,1-.09,19,19,0,0,0,0-4.65,3.71,3.71,0,0,0-.67,0,7.09,7.09,0,0,0-2.19.33A12.27,12.27,0,0,0,46.4,39.9Z"/><path class="cls-1" d="M56.25,41.66c-1.62,0-2.65-.26-3-.77-.63-.81-.75-6.25-.15-6.85.15-.15.41-.41,2.39-.41,2.61,0,3,.49,3.15.69.67.86.51,6.12.24,6.64C58.71,41.2,58.47,41.66,56.25,41.66Zm-1.86-1.72a6,6,0,0,0,1.86.22,6.9,6.9,0,0,0,1.29-.1,27,27,0,0,0-.13-4.76,8.18,8.18,0,0,0-2-.17,11.12,11.12,0,0,0-1.23.06A20.82,20.82,0,0,0,54.39,39.94Z"/><path class="cls-1" d="M55.86,52.09c-1.61,0-2.06-.35-2.28-.67-.47-.67-.9-6.08,0-6.93.23-.21.65-.43,2-.43.12,0,2.81,0,3.46.68s.49,3.25.43,4.37c-.09,1.87-.31,2.2-.57,2.42C58.23,52.09,56,52.09,55.86,52.09Zm-1.06-1.6a3.84,3.84,0,0,0,1.06.1,9,9,0,0,0,2-.2,20.11,20.11,0,0,0,.06-4.59,10.88,10.88,0,0,0-2.32-.24,4.77,4.77,0,0,0-.9.06A16.9,16.9,0,0,0,54.8,50.49Z"/><path class="cls-1" d="M42.9,46h-.16c-2.19-.5-18.58-1.09-22-.66a.75.75,0,0,1-.84-.65.76.76,0,0,1,.65-.84c3.58-.45,20.15.15,22.51.68a.76.76,0,0,1,.57.9A.75.75,0,0,1,42.9,46Z"/><path class="cls-1" d="M29.58,62.2c-1.51,0-2.57,0-2.61,0-3.61-.11-3.83-.37-4.06-.66-.94-1.14-.11-15.63,0-16.74a.75.75,0,0,1,.85-.64.74.74,0,0,1,.64.84c-.31,2.21-.67,13.47-.34,15.5,2.07.43,13.27.23,15.2-.28.25-1.45,0-8.49-.44-14.85a.75.75,0,1,1,1.5-.1c1,15,.34,15.74.1,16C39.71,62.08,33.29,62.2,29.58,62.2Z"/><path class="cls-1" d="M19.81,31.83c-9.68,0-17.47-.13-18.45-.48a.75.75,0,0,1,.5-1.42c2.18.62,56.26.34,59.71-.31a.74.74,0,0,1,.87.6.75.75,0,0,1-.6.88C60.14,31.42,37,31.83,19.81,31.83Z"/><path class="cls-1" d="M11.17,31.33a.78.78,0,0,1-.41-.12.76.76,0,0,1-.21-1c.83-1.27,19.27-18.93,22-18.93h.06c2.3.25,19,16.8,20,18.67a.74.74,0,0,1-.29,1,.75.75,0,0,1-1-.29C50.09,28.37,34.6,13.69,32.5,12.75,30.15,13.56,13.24,28.8,11.8,31A.74.74,0,0,1,11.17,31.33Z"/><path class="cls-1" d="M32.3,12.83a.76.76,0,0,1-.75-.72L31.07,1.25a.75.75,0,0,1,.72-.79.77.77,0,0,1,.78.72l.48,10.87a.75.75,0,0,1-.72.78Z"/><path class="cls-1" d="M38.66,8.66a59.4,59.4,0,0,1-6.22-.46.75.75,0,1,1,.27-1.47,54.11,54.11,0,0,0,6.87.43l-.4-.58c-.89-1.27-1.44-2.09-1.35-2.77a5.1,5.1,0,0,1,.71-1.63c.11-.18.24-.43.35-.64a34.33,34.33,0,0,0-6.78.39.77.77,0,0,1-.88-.6.77.77,0,0,1,.6-.88c1.16-.22,7.59-.88,8.46,0,.62.62.13,1.49-.44,2.49A6,6,0,0,0,39.31,4a13,13,0,0,0,1.1,1.72,4.72,4.72,0,0,1,1,1.85l0,.38-.31.32A4.84,4.84,0,0,1,38.66,8.66Z"/><path class="cls-1" d="M47.66,59.72c-3.76,0-7-.25-7.73-.89a.75.75,0,0,1,1-1.13c1.28.8,17.29.67,20-.53,1.85-1.33,1.31-23.38.44-27.21-.59-2.6-5.58-9.59-6.57-10.13s-10.21-.55-13.61-.32a.73.73,0,0,1-.8-.69.75.75,0,0,1,.69-.8c2-.14,12.84-.39,14.45.5s6.67,8.32,7.3,11.11c.46,2,2.25,27.36-1.3,28.92C60.13,59.17,53.3,59.72,47.66,59.72Z"/><path class="cls-1" d="M9.5,59.73c-3.74,0-6.74-.28-7.36-1.1C.64,56.64-.38,32.08.13,30,.69,27.73,4.3,19.69,8.25,18.4c2.85-.94,8.25-.85,12.19-.79,1.26,0,2.35,0,3.15,0a.77.77,0,0,1,.77.73.74.74,0,0,1-.73.77c-.82,0-1.93,0-3.22,0-3.83-.06-9.08-.14-11.69.71-3.14,1-6.6,8.38-7.13,10.53S2.25,56,3.34,57.73c1,.8,10.88.54,19.4-.18a.75.75,0,1,1,.12,1.5C19,59.37,13.78,59.73,9.5,59.73Z"/><path class="cls-1" d="M52.78,22.74a.76.76,0,0,1-.68-.43.74.74,0,0,1,.36-1,13.41,13.41,0,0,1,1.86-.7A13.92,13.92,0,0,0,56,20a.75.75,0,1,1,.65,1.35,13.41,13.41,0,0,1-1.86.7,14.07,14.07,0,0,0-1.68.62A.72.72,0,0,1,52.78,22.74Z"/><path class="cls-1" d="M54.47,24.8a.75.75,0,0,1-.33-1.43c.59-.28,1.2-.52,1.81-.77s1.16-.45,1.72-.72a.75.75,0,1,1,.64,1.35c-.59.28-1.2.53-1.81.77s-1.15.46-1.71.72A.72.72,0,0,1,54.47,24.8Z"/><path class="cls-1" d="M56.11,27a.75.75,0,0,1-.35-1.41c.51-.27,1-.5,1.55-.72s1-.43,1.43-.67a.75.75,0,1,1,.72,1.32c-.52.27-1.05.5-1.56.72s-1,.43-1.43.67A.69.69,0,0,1,56.11,27Z"/><path class="cls-1" d="M58.15,28.82a.75.75,0,0,1-.28-1.45c.32-.13.59-.26.85-.39a5.54,5.54,0,0,1,1.55-.59.75.75,0,0,1,.27,1.48,4.74,4.74,0,0,0-1.16.45,9.26,9.26,0,0,1-.94.44A.75.75,0,0,1,58.15,28.82Z"/><path class="cls-1" d="M6.23,59a.75.75,0,0,1-.74-.61A11.87,11.87,0,0,0,4.76,56a.75.75,0,0,1,.4-1,.74.74,0,0,1,1,.39A12.84,12.84,0,0,1,7,58.15a.73.73,0,0,1-.59.87Z"/><path class="cls-1" d="M9.69,59.12A.75.75,0,0,1,9,58.6l-1-3a.74.74,0,0,1,.49-.94.75.75,0,0,1,.94.49l1,3a.75.75,0,0,1-.49.94A.85.85,0,0,1,9.69,59.12Z"/><path class="cls-1" d="M12.5,59.27a.75.75,0,0,1-.71-.51c-.19-.57-.33-1.07-.47-1.57s-.26-.95-.45-1.49a.76.76,0,0,1,.47-1,.75.75,0,0,1,.95.47c.2.57.34,1.08.48,1.58s.26,1,.44,1.49a.74.74,0,0,1-.46.95A.73.73,0,0,1,12.5,59.27Z"/><path class="cls-1" d="M15.58,58.89a.75.75,0,0,1-.7-.46c-.23-.56-.39-1-.55-1.47s-.32-.88-.54-1.41A.75.75,0,0,1,15.18,55c.23.56.39,1,.56,1.47s.31.88.53,1.41a.75.75,0,0,1-.41,1A.69.69,0,0,1,15.58,58.89Z"/><path class="cls-1" d="M19,58.71a.75.75,0,0,1-.7-.48,8.08,8.08,0,0,1-.39-1.61,6,6,0,0,0-.31-1.3.75.75,0,1,1,1.4-.54,7.44,7.44,0,0,1,.39,1.61,6.6,6.6,0,0,0,.31,1.3.75.75,0,0,1-.43,1A.86.86,0,0,1,19,58.71Z"/><path class="cls-1" d="M43.62,59.46a.76.76,0,0,1-.73-.59A17.14,17.14,0,0,0,42,56.1a.75.75,0,0,1,1.39-.57,18.78,18.78,0,0,1,1,3,.75.75,0,0,1-.56.9Z"/><path class="cls-1" d="M46.87,59.43a.75.75,0,0,1-.73-.62,12.42,12.42,0,0,0-1-3.07.75.75,0,0,1,.35-1,.76.76,0,0,1,1,.35,14.06,14.06,0,0,1,1.12,3.45.74.74,0,0,1-.6.87Z"/><path class="cls-1" d="M50.3,59.59a.73.73,0,0,1-.71-.5l-1.21-3.48a.75.75,0,0,1,1.42-.49L51,58.6a.74.74,0,0,1-.46.95A.67.67,0,0,1,50.3,59.59Z"/><path class="cls-1" d="M53.39,59.26a.76.76,0,0,1-.72-.53l-1-3.35a.75.75,0,0,1,.49-.94.76.76,0,0,1,.94.5l1,3.34a.75.75,0,0,1-.5.94A.57.57,0,0,1,53.39,59.26Z"/><path class="cls-1" d="M57,59a.76.76,0,0,1-.7-.47L55,55.33a.75.75,0,1,1,1.4-.55L57.67,58a.75.75,0,0,1-.42,1A.69.69,0,0,1,57,59Z"/><path class="cls-1" d="M60.37,58.82a.76.76,0,0,1-.57-.26,6.88,6.88,0,0,1-1.62-3.93.75.75,0,1,1,1.49-.11,5.4,5.4,0,0,0,1.27,3.06.75.75,0,0,1-.57,1.24Z"/><path class="cls-1" d="M32.37,23.71l-.15,0a.74.74,0,0,1-.58-.89,5.8,5.8,0,0,0,0-2.31.75.75,0,1,1,1.46-.32,6.94,6.94,0,0,1,0,2.94A.75.75,0,0,1,32.37,23.71Z"/><path class="cls-1" d="M33.94,25.69a.76.76,0,0,1-.57-.26l-1.61-1.87a.75.75,0,0,1,.08-1.06.74.74,0,0,1,1.05.08l1.62,1.87a.75.75,0,0,1-.57,1.24Z"/></g></g></svg>