<svg xmlns="http://www.w3.org/2000/svg" viewBox="0 0 210.58 238.17"><defs><style>.cls-1{fill:#9e4299;}.cls-2{fill:#4d4d4d;}</style></defs><g id="Capa_2" data-name="Capa 2"><g id="Capa_1-2" data-name="Capa 1"><path class="cls-1" d="M54.1,61.51c-9,.64-16.85,2.37-24.81.49A20.63,20.63,0,0,1,15.72,51.86c-1.29-2.22-1.88-3.94,1.78-4.25,7.42-.62,14.78-2.48,22.29-.86A19.88,19.88,0,0,1,53.94,57.51c-4-.28-6.78-3.83-11-2.34C46.76,56.86,50.61,57.83,54.1,61.51Z"/><path class="cls-1" d="M157.07,58.18c-2.27-.3-.61-1.45-.29-2a21.29,21.29,0,0,1,17.69-10.35c6-.31,11.9.76,17.84,1.23,3.77.3,3.9,2.1,2.13,4.88A21.25,21.25,0,0,1,176.23,62.4c-5.77.15-11.57-.54-17.36-.88-1.85-.11-2.51-.79-1-2.34,5.34-4.46,9.39-4.65,14.82-4.8A17.56,17.56,0,0,0,157.07,58.18Z"/><path class="cls-1" d="M24.7,40.11c-7.11,1.83-13.28-.39-17.77-6.51-.9-1.22-3.74-4.71-3.74-4.71s3.65.29,5.53.21c5.12-.22,10.09-1.2,15.36-.26,5.75,1,11.78,6.26,12.5,9.77C36.58,38.61,32.26,38.07,24.7,40.11Z"/><path class="cls-1" d="M177.76,14.91c-.14-5.82,1.42-10.85,6.68-14.09,1.09-.67,2.75-1.71,2.92.62.41,5.56,2,11.2-.56,16.69a12.32,12.32,0,0,1-3.32,4.3c-3,2.42-4.55,1.78-5.22-2.07-.14-.81-.28-1.63-.35-2.46C177.82,16.91,177.8,15.91,177.76,14.91Z"/><path class="cls-1" d="M30.79,16.32a8.11,8.11,0,0,1,0,2.3c-.5,1.73,1.13,4.33-1.61,5.09s-4.24-1.38-5.61-3.23c-4.43-6-2.77-12.63-1.84-19.13.36-2.49,2.08-.86,2.94-.32C30.29,4.56,31.38,10,30.79,16.32Z"/><path class="cls-1" d="M168.85,9.75c-1-3.58.82-7.68.82-7.68a35.85,35.85,0,0,0-6.49,4c-7.41,6.11-10.32,19.5-5.75,30.21,1.81-1.6,2.52-3.84,3.61-5.86,2.7-6,.24-11.41,1.91-15.19a1.05,1.05,0,0,1,.25.09c-.54,3.86,1.26,10.4-1.28,15.86-.52,1.5-1.9,5.49-2.14,5.91,0,0,.76-.34,1.3-.65a17.24,17.24,0,0,0,9.33-14.52A34.62,34.62,0,0,0,168.85,9.75Z"/><path class="cls-2" d="M122.42,60.64A16.77,16.77,0,1,1,106,43.83,16.61,16.61,0,0,1,122.42,60.64Z"/><path class="cls-2" d="M206,103.37c-6.64,4.21-13.76,4.36-21.16,2.63s-14.46-4.9-21.54-7.77c-9-3.62-18-6.91-27.87-7.14-1,0-2.72.82-2.78-.91s1.49-2,2.94-1.91c1,0,2,.13,3,.2,11,.75,20.95,5,31,9,7,2.75,14,5.34,21.57,5.88,6.55.46,12.59-.74,17.43-5.66,1.71-1.73,2.59-3.53,1.44-6-9.68,5.56-14.17,6.93-20.75,6a67.78,67.78,0,0,1-14.79-4.39C162.47,88.61,150.74,83,137,81.77c10.26-17.4,21.61-33.23,35.5-47.19,0,0,1.79-1.57,2-1.84l3.93-4.3c-1.08-1-51.28,39.94-67.65,63.38-1.66,2.38-3.42,4.69-5.24,7.17C87.06,71.06,63.45,49.2,36.16,31.11h0c-.37-.22-.74-.44-1.1-.67-.42-.47-.83-.91-1.42-.21l.93.72,1,1C50,47.28,63.71,63.21,74.56,81.9c-13.41,1.35-25.09,6.69-37,11.39-7.64,3-15.46,5-23.86,3.85-4.77-.67-8.26-4-12.54-5.58-1.12,3,0,4.89,2.1,6.65,5,4.21,10.85,5.56,17.24,5,9.29-.74,17.69-4.43,26.15-7.89,9-3.67,18.16-6.45,27.9-7.14,2.47-.18,4.67-.14,4.91,3.42-9.75-.33-18.84,2.17-27.77,5.35-7.51,2.68-14.71,6.18-22.46,8.23C19.46,107.8,10.13,108,2.11,100.5c-.52-.47-1.11-.71-2.11,0,6,8,14.11,10.43,23.52,9.87,8.36-.5,16.32-3,24.39-5,11-2.72,22.1-5,33.53-2.45,3.1.68,5.23,1.94,6.36,5.34,2.09,6.32,4.12,12.61,5.08,19.22a196.92,196.92,0,0,1,1.75,35.36c-.73,26-3.57,39.92-7.17,65.71-.66,4.75,1.67,7.63,6.89,8.63a71.34,71.34,0,0,0,19.41.67c8.21-.68,10-3.06,9.34-11.25-2.87-33.36-4.69-46.88-6.15-80.32-.37-8.58,1.22-23.88,3.76-32,3.83-12.34,6.8-12.79,19.7-12.55,9.94.19,19.3,3.35,28.82,5.64,8.91,2.13,17.83,4.39,27.11,2.58,4.71-.91,9.07-2.56,12.33-6.65-.68-.22-1-.45-1.29-.4A3.9,3.9,0,0,0,206,103.37Z"/><path class="cls-1" d="M186.64,40.11c7.11,1.83,13.28-.39,17.77-6.51.9-1.22,3.74-4.71,3.74-4.71s-3.65.29-5.53.21c-5.12-.22-10.09-1.2-15.36-.26-5.75,1-11.78,6.26-12.5,9.77C174.76,38.61,179.08,38.07,186.64,40.11Z"/><path class="cls-1" d="M43.54,9.75c1-3.58-.82-7.68-.82-7.68a35.85,35.85,0,0,1,6.49,4c7.41,6.11,10.32,19.5,5.76,30.21-1.81-1.6-2.53-3.84-3.62-5.86-2.7-6-.24-11.41-1.91-15.19a1.05,1.05,0,0,0-.25.09c.54,3.86-1.26,10.4,1.28,15.86.52,1.5,1.9,5.49,2.14,5.91,0,0-.76-.34-1.3-.65A17.24,17.24,0,0,1,42,21.87,34.62,34.62,0,0,1,43.54,9.75Z"/></g></g></svg>