<svg xmlns="http://www.w3.org/2000/svg" viewBox="0 0 56.59 64"><defs><style>.cls-1{fill:#9e4299;}.cls-2{fill:#4d4d4d;}</style></defs><g id="Capa_2" data-name="Capa 2"><g id="Capa_1-2" data-name="Capa 1"><path class="cls-1" d="M14.54,16.53c-2.42.17-4.53.64-6.67.13a5.52,5.52,0,0,1-3.64-2.73c-.35-.59-.51-1,.47-1.14,2-.16,4-.66,6-.23a5.35,5.35,0,0,1,3.8,2.89c-1.07-.07-1.82-1-3-.63A7.91,7.91,0,0,1,14.54,16.53Z"/><path class="cls-1" d="M42.21,15.63c-.61-.08-.17-.39-.08-.52a5.73,5.73,0,0,1,4.75-2.78,35,35,0,0,1,4.8.33c1,.08,1,.56.57,1.31a5.72,5.72,0,0,1-4.89,2.8c-1.56,0-3.11-.15-4.67-.24-.5,0-.67-.21-.26-.63a5.46,5.46,0,0,1,4-1.29A4.73,4.73,0,0,0,42.21,15.63Z"/><path class="cls-1" d="M6.64,10.78A4.27,4.27,0,0,1,1.86,9c-.24-.33-1-1.27-1-1.27s1,.08,1.48.06a18.38,18.38,0,0,1,4.13-.07C8,8,9.64,9.43,9.83,10.38A9.07,9.07,0,0,0,6.64,10.78Z"/><path class="cls-1" d="M47.77,4A3.94,3.94,0,0,1,49.56.22c.29-.18.74-.46.79.17.11,1.49.54,3-.16,4.48A3.25,3.25,0,0,1,49.3,6c-.79.65-1.22.47-1.4-.56q-.06-.33-.09-.66C47.78,4.54,47.78,4.28,47.77,4Z"/><path class="cls-1" d="M8.27,4.38a2.16,2.16,0,0,1,0,.62c-.13.47.31,1.17-.43,1.37S6.69,6,6.32,5.5C5.13,3.9,5.58,2.11,5.83.36c.09-.67.56-.23.79-.08C8.14,1.22,8.43,2.7,8.27,4.38Z"/><path class="cls-1" d="M45.37,2.62A3.52,3.52,0,0,1,45.59.56a9.42,9.42,0,0,0-1.74,1.06c-2,1.64-2.77,5.24-1.55,8.12a5.07,5.07,0,0,0,1-1.58c.73-1.6.07-3.06.52-4.08l.06,0c-.14,1,.34,2.8-.34,4.27-.14.4-.51,1.47-.57,1.58l.34-.17a4.63,4.63,0,0,0,2.51-3.9A9.34,9.34,0,0,0,45.37,2.62Z"/><path class="cls-2" d="M32.9,16.29a4.51,4.51,0,1,1-9,0,4.51,4.51,0,0,1,9,0Z"/><path class="cls-2" d="M55.37,27.78a7.1,7.1,0,0,1-5.69.7,39.55,39.55,0,0,1-5.79-2.08,21.14,21.14,0,0,0-7.49-1.92c-.26,0-.73.22-.74-.25s.4-.53.79-.51l.8.05c3,.21,5.63,1.35,8.33,2.42a19.5,19.5,0,0,0,5.8,1.57,5.56,5.56,0,0,0,4.68-1.52,1.29,1.29,0,0,0,.39-1.6c-2.61,1.5-3.81,1.86-5.58,1.61a18.31,18.31,0,0,1-4-1.18c-3.24-1.26-6.39-2.77-10.1-3.1A63.44,63.44,0,0,1,46.34,9.29l.55-.49,1-1.16c-.29-.25-13.78,10.73-18.17,17-.45.64-.92,1.26-1.41,1.93A64.75,64.75,0,0,0,9.72,8.36h0l-.3-.18c-.11-.13-.22-.25-.38-.06l.25.2.26.27A72.35,72.35,0,0,1,20,22c-3.6.36-6.74,1.79-9.93,3.06a12.46,12.46,0,0,1-6.41,1C2.41,25.92,1.47,25,.32,24.6a1.45,1.45,0,0,0,.56,1.79,6.17,6.17,0,0,0,4.63,1.36,23.64,23.64,0,0,0,7-2.13A24.3,24.3,0,0,1,20,23.71c.66-.05,1.25,0,1.32.91a20.33,20.33,0,0,0-7.46,1.44c-2,.72-4,1.66-6,2.21C5.23,29,2.72,29,.57,27c-.14-.13-.3-.19-.57,0a6.75,6.75,0,0,0,6.32,2.65,36.42,36.42,0,0,0,6.55-1.34c3-.74,5.94-1.34,9-.66a2,2,0,0,1,1.7,1.43A29.84,29.84,0,0,1,25,34.25a53.12,53.12,0,0,1,.47,9.5c-.2,7-1,10.73-1.93,17.66-.18,1.27.45,2.05,1.85,2.32a19.43,19.43,0,0,0,5.22.18c2.21-.19,2.7-.83,2.51-3-.77-9-1.26-12.6-1.65-21.58a31.56,31.56,0,0,1,1-8.61c1-3.32,1.82-3.44,5.29-3.37,2.67.05,5.19.9,7.75,1.51,2.39.58,4.79,1.18,7.28.7a5.23,5.23,0,0,0,3.31-1.79c-.18-.06-.27-.12-.34-.11A1,1,0,0,0,55.37,27.78Z"/><path class="cls-1" d="M50.15,10.78A4.27,4.27,0,0,0,54.93,9c.24-.33,1-1.27,1-1.27s-1,.08-1.48.06a18.38,18.38,0,0,0-4.13-.07C48.77,8,47.15,9.43,47,10.38A9.07,9.07,0,0,1,50.15,10.78Z"/><path class="cls-1" d="M11.7,2.62A3.43,3.43,0,0,0,11.48.56a9.42,9.42,0,0,1,1.74,1.06c2,1.64,2.78,5.24,1.55,8.12a5.07,5.07,0,0,1-1-1.58c-.73-1.6-.07-3.06-.51-4.08l-.07,0c.14,1-.34,2.8.34,4.27.14.4.51,1.47.58,1.58s-.21-.09-.35-.17a4.63,4.63,0,0,1-2.51-3.9A9.34,9.34,0,0,1,11.7,2.62Z"/></g></g></svg>