<?xml version="1.0" ?><svg id="Outline" viewBox="0 0 512 512" xmlns="http://www.w3.org/2000/svg"><defs><style>.cls-1{fill:#262626;}</style></defs><path class="cls-1" d="M426,117.16H86a23.81,23.81,0,0,0-23.78,23.78V372.27A23.25,23.25,0,0,0,85.4,395.49H426.6a23.25,23.25,0,0,0,23.22-23.22V140.94A23.81,23.81,0,0,0,426,117.16ZM84.86,140.94a1.1,1.1,0,0,1,1.1-1.1H426a1.1,1.1,0,0,1,1.1,1.1v44.82a1.1,1.1,0,0,1-.72,1L256,250.88,85.58,186.79a1.1,1.1,0,0,1-.72-1ZM426.6,372.81H85.4a.54.54,0,0,1-.54-.54V210.75L252,273.61l.18.06.68.22.31.08a6.21,6.21,0,0,0,.62.14l.33.07.64.08.3,0c.3,0,.61,0,.92,0h0c.31,0,.62,0,.92,0l.3,0,.64-.08.33-.07a6.21,6.21,0,0,0,.62-.14l.32-.08.67-.22.18-.06,167.15-62.86V372.27A.54.54,0,0,1,426.6,372.81Z"/></svg>