<?xml version="1.0" ?><!DOCTYPE svg  PUBLIC '-//W3C//DTD SVG 1.1//EN'  'http://www.w3.org/Graphics/SVG/1.1/DTD/svg11.dtd'><svg enable-background="new 0 0 70 70" id="Layer_1" version="1.1" viewBox="0 0 70 70" xml:space="preserve" xmlns="http://www.w3.org/2000/svg" xmlns:xlink="http://www.w3.org/1999/xlink"><g><path d="M32.3945313,64.5664063c-0.2148438,0-0.3994141-0.0371094-0.5649414-0.1132813   c-0.9741211-0.4443359-1.5585938-2.8291016-3.206543-11.4003906c-0.4951172-2.5771484-1.0073242-5.2421875-1.4780273-7.2421875   c-0.2753906-1.171875-0.5585938-2.1933594-1.2368164-2.8320313c-0.6669922-0.6269531-1.6445313-0.84375-2.8540039-1.0625   l-11.5913086-2.09375c-1.2836914-0.2314453-2.7392578-0.4941406-4.0029297-1.2421875   c-1.5117188-0.8955078-2.4204102-2.3720703-2.3720703-3.8535156c0.0375977-1.1508789,0.6323242-2.1455078,1.1098633-2.9443359   l4.5576172-7.6235352c1.1850586-1.9829102,2.5288086-4.2304688,4.6743164-5.6459961   c1.3325195-0.8793945,2.8608398-1.3535156,4.2089844-1.7724609c14.1074219-4.3779297,42.652832-11.7626953,44.871582-11.7626953   c0.3085938,0,0.546875,0.1030273,0.7084961,0.3056641c0.2294922,0.2866211,0.612793,0.7670898-3.9316406,17.4086914   c-1.4350586,5.2548828-5.1176758,18.4155273-8.3188477,27.1206055c-0.7768555,2.1123047-1.5322266,3.9853516-2.9125977,5.5087891   c-1.5678711,1.7304688-3.730957,2.7285156-5.6391602,3.6083984c-1.309082,0.6044922-2.9716797,1.4902344-4.5800781,2.3466797   C35.9936523,63.3232422,33.5751953,64.5664063,32.3945313,64.5664063z M63.7949219,6.5703125   c-4.8583984,0.8525391-30.1152344,7.3828125-43.7114258,11.6025391c-1.2529297,0.3891602-2.6728516,0.8300781-3.8276367,1.5917969   c-1.8598633,1.2270508-3.1103516,3.3183594-4.2133789,5.1635742l-4.5576172,7.6235352   c-0.4091797,0.6845703-0.8725586,1.4604492-0.8979492,2.2241211c-0.0297852,0.9194336,0.612793,1.9057617,1.6376953,2.5131836   c1.0307617,0.6113281,2.2885742,0.8378906,3.5043945,1.0566406l11.5922852,2.09375   c1.1455078,0.2080078,2.5708008,0.4658203,3.6147461,1.4462891c1.0625,1,1.4130859,2.4921875,1.6689453,3.5810547   c0.4775391,2.0302734,0.9931641,4.7109375,1.4912109,7.3027344c0.7553711,3.9296875,1.7783203,9.2519531,2.3984375,10.2910156   c1.0126953-0.1123047,4.121582-1.7685547,6.6367188-3.1074219c1.6264648-0.8671875,3.3085938-1.7626953,4.6567383-2.3847656   c1.7783203-0.8203125,3.793457-1.75,5.15625-3.2548828c1.1992188-1.3232422,1.894043-3.0556641,2.6157227-5.0185547   C56.3959961,36.1445313,62.9013672,11.3476563,63.7949219,6.5703125z" fill="#373684"/><path d="M16.1567383,40.53125c-0.2358398,0-0.4677734-0.1113281-0.6137695-0.3183594   c-0.2382813-0.3388672-0.1572266-0.8066406,0.1816406-1.0449219l47.328125-33.3032227   c0.3388672-0.2382813,0.8061523-0.1577148,1.0449219,0.1816406c0.2382813,0.3388672,0.1572266,0.8066406-0.1816406,1.0449219   l-47.328125,33.3032227C16.456543,40.4873047,16.3061523,40.53125,16.1567383,40.53125z" fill="#373684"/><path d="M26.7089844,43.3330078c-0.2075195,0-0.4140625-0.0859375-0.5625-0.2529297   c-0.2744141-0.3105469-0.2451172-0.7841797,0.0654297-1.0585938c0.8657227-0.7666016,1.7661133-1.5546875,2.6860352-2.3603516   c4.0874023-3.5791016,8.7202148-7.6352539,12.2763672-11.4389648c2.6879883-2.875,7.0927734-7.1420898,11.3525391-11.2685547   c4.246582-4.1137695,8.637207-8.3676758,11.300293-11.2158203c0.2827148-0.3022461,0.7578125-0.3183594,1.0600586-0.0356445   c0.3027344,0.2827148,0.3183594,0.7573242,0.0356445,1.0600586c-2.6879883,2.875-7.0927734,7.1420898-11.3525391,11.2685547   c-4.246582,4.1137695-8.637207,8.3676758-11.300293,11.2158203C38.6625977,33.1049805,34,37.1875,29.8862305,40.7900391   c-0.9179688,0.8037109-1.8164063,1.5908203-2.6811523,2.3544922C27.0625,43.2714844,26.8852539,43.3330078,26.7089844,43.3330078z" fill="#373684"/><path d="M29.9785156,55.25c-0.152832,0-0.3071289-0.046875-0.4404297-0.1435547   c-0.3349609-0.2431641-0.4091797-0.7119141-0.1660156-1.046875c3.515625-4.8398438,7.2207031-10.0732422,10.8041992-15.1347656   c4.300293-6.0737305,8.7470703-12.3544922,13.09375-18.284668c0.6064453-0.8271484,1.2255859-1.6650391,1.8510742-2.5117188   c2.6118164-3.5356445,5.3125-7.1914063,7.6860352-10.8686523c0.2250977-0.3481445,0.6884766-0.4482422,1.0371094-0.2236328   c0.3481445,0.2250977,0.4482422,0.6889648,0.2236328,1.0371094c-2.3994141,3.7172852-5.1147461,7.3925781-7.7407227,10.9467773   c-0.6240234,0.8447266-1.2421875,1.6811523-1.847168,2.5068359c-4.3398438,5.9199219-8.7827148,12.1958008-13.0795898,18.2651367   c-3.5859375,5.0644531-7.2939453,10.3017578-10.8144531,15.1484375C30.4389648,55.1425781,30.2104492,55.25,29.9785156,55.25z" fill="#373684"/><path d="M14.4995117,21.5922852c-0.4072266,0-0.7412109-0.3256836-0.7495117-0.7348633   c-0.0083008-0.4140625,0.3208008-0.7568359,0.7348633-0.7651367l4.9165039-0.0991211c0.0048828,0,0.0102539,0,0.015625,0   c0.4067383,0,0.7412109,0.3256836,0.7495117,0.7348633c0.0083008,0.4140625-0.3208008,0.7563477-0.7348633,0.7651367   l-4.9165039,0.0991211C14.5102539,21.5922852,14.5048828,21.5922852,14.4995117,21.5922852z" fill="#373684"/><path d="M17.1689453,24.6166992c-0.0083008,0-0.0170898,0-0.0253906-0.0004883l-4.5839844-0.152832   c-0.4140625-0.0136719-0.7382813-0.3603516-0.7246094-0.7744141c0.0136719-0.4130859,0.3720703-0.7363281,0.7744141-0.7246094   l4.5839844,0.152832c0.4140625,0.0136719,0.7382813,0.3603516,0.7246094,0.7744141   C17.9047852,24.296875,17.5717773,24.6166992,17.1689453,24.6166992z" fill="#373684"/><path d="M13.2177734,28.0615234c-0.9111328,0-1.7998047-0.059082-2.871582-0.1782227   c-0.4116211-0.0458984-0.7084961-0.4169922-0.6625977-0.8286133c0.0463867-0.4116211,0.418457-0.7055664,0.8286133-0.6625977   c1.8969727,0.2119141,3.1313477,0.2246094,5.0766602,0.0483398c0.4155273-0.0351563,0.7773438,0.2670898,0.8144531,0.6796875   s-0.2675781,0.7773438-0.6796875,0.8144531C14.7871094,28.0185547,13.9941406,28.0615234,13.2177734,28.0615234z" fill="#373684"/><path d="M8.34375,31.0625c-0.4125977,0-0.7480469-0.3334961-0.75-0.7460938   C7.5917969,29.9018555,7.9257813,29.5644531,8.3398438,29.5625l4.9375-0.0249023c0.0014648,0,0.0029297,0,0.0039063,0   c0.4125977,0,0.7480469,0.3334961,0.75,0.7460938c0.0019531,0.4145508-0.3320313,0.7519531-0.7460938,0.7539063l-4.9375,0.0249023   C8.3461914,31.0625,8.3447266,31.0625,8.34375,31.0625z" fill="#373684"/><path d="M10.0908203,34.7797852c-1.2597656,0-2.5224609-0.0932617-3.7651367-0.277832   c-0.409668-0.0605469-0.6923828-0.4423828-0.6313477-0.8520508c0.0610352-0.4091797,0.4399414-0.6914063,0.8520508-0.6313477   c1.449707,0.2158203,2.9272461,0.2998047,4.3955078,0.2460938c0.3994141-0.0317383,0.7612305,0.309082,0.7758789,0.7231445   c0.0146484,0.4135742-0.309082,0.7612305-0.7231445,0.7758789C10.6938477,34.7744141,10.3925781,34.7797852,10.0908203,34.7797852z   " fill="#373684"/><path d="M34.03125,63.6757813c-0.0678711,0-0.1367188-0.0087891-0.2055664-0.0283203   c-0.3984375-0.1132813-0.6293945-0.5283203-0.5166016-0.9267578l1.5712891-5.5273438   c0.1132813-0.3984375,0.527832-0.6298828,0.9262695-0.5166016s0.6293945,0.5283203,0.5161133,0.9267578l-1.5703125,5.5273438   C34.6586914,63.4609375,34.3579102,63.6757813,34.03125,63.6757813z" fill="#373684"/><path d="M39.4223633,61.1220703c-0.015625,0-0.03125,0-0.046875-0.0009766   c-0.4135742-0.0263672-0.7280273-0.3818359-0.7021484-0.7958984l0.2753906-4.4355469   c0.0253906-0.4130859,0.3925781-0.7304688,0.7949219-0.7021484c0.4135742,0.0263672,0.7280273,0.3818359,0.7021484,0.7958984   l-0.2753906,4.4355469C40.1459961,60.8164063,39.8154297,61.1220703,39.4223633,61.1220703z" fill="#373684"/><path d="M43.7426758,58.8115234c-0.034668,0-0.0693359-0.0019531-0.1044922-0.0068359   c-0.4106445-0.0576172-0.6967773-0.4365234-0.6391602-0.8466797l0.6196289-4.4384766   c0.0571289-0.4101563,0.4394531-0.6953125,0.8461914-0.6396484c0.4106445,0.0576172,0.6967773,0.4365234,0.6391602,0.8466797   l-0.6196289,4.4384766C44.4321289,58.5400391,44.1108398,58.8115234,43.7426758,58.8115234z" fill="#373684"/><path d="M48.2109375,56.5c-0.3935547,0-0.7236328-0.3066406-0.7480469-0.7041016   c-0.0913086-1.4941406,0.1152344-3.2558594,0.565918-4.8349609c0.1137695-0.3984375,0.5302734-0.6337891,0.9272461-0.5146484   c0.3984375,0.1132813,0.6289063,0.5283203,0.5151367,0.9267578c-0.40625,1.421875-0.5922852,3-0.5112305,4.3310547   c0.0253906,0.4140625-0.2895508,0.7695313-0.7026367,0.7949219C48.2416992,56.5,48.2260742,56.5,48.2109375,56.5z" fill="#373684"/></g></svg>