<svg xmlns="http://www.w3.org/2000/svg" viewBox="0 0 63.7 62.2"><defs><style>.cls-1{fill:#373684;}.cls-2{fill:#dff7ff;}.cls-3{fill:#f40059;}</style></defs><g id="Capa_2" data-name="Capa 2"><g id="Layer_1" data-name="Layer 1"><path class="cls-1" d="M32,17.63a5.56,5.56,0,0,0,.85,11.07,4.88,4.88,0,0,0,3.57-1.46,5.41,5.41,0,0,0,1.38-4C37.64,19.89,35,17.34,32,17.63Zm3.34,8.58a3.35,3.35,0,0,1-2.49,1,4.07,4.07,0,0,1-4.17-3.58,4.14,4.14,0,0,1,3.46-4.49l.34,0a4.1,4.1,0,0,1,3.82,4.16A3.89,3.89,0,0,1,35.33,26.21Z"/><path class="cls-2" d="M32.47,19.11l-.34,0a4.14,4.14,0,0,0-3.46,4.49,4.07,4.07,0,0,0,4.17,3.58,3.35,3.35,0,0,0,2.49-1,3.89,3.89,0,0,0,1-2.94A4.1,4.1,0,0,0,32.47,19.11Zm2,6.4a.78.78,0,0,1-.49.18.76.76,0,0,1-.57-.26l-1.62-1.87a.73.73,0,0,1-.12-.76s0,0,0,0a5.43,5.43,0,0,0,0-2.27.75.75,0,0,1,1.47-.32,7,7,0,0,1,0,2.7l1.36,1.58A.76.76,0,0,1,34.43,25.51Z"/><path class="cls-1" d="M8.37,52.31c-.12,0-2.8,0-3.76-1s-.51-5.55.17-6.38a3.94,3.94,0,0,1,2.67-.83A2.71,2.71,0,0,1,9.74,45c.61.92,1,6.16.22,6.94C9.76,52.12,9.42,52.31,8.37,52.31ZM7.45,45.6a3.22,3.22,0,0,0-1.53.31c-.33.58-.59,3.83-.22,4.37a5.55,5.55,0,0,0,2.67.53l.48,0a15.29,15.29,0,0,0-.36-5A1.77,1.77,0,0,0,7.45,45.6Z"/><path class="cls-1" d="M36.54,60.51a1.75,1.75,0,0,1-.25.75.75.75,0,0,1-1.06.05.72.72,0,0,1-.22-.72.68.68,0,0,1,.07-.2,76.35,76.35,0,0,0,.08-10.66,31.89,31.89,0,0,0-6.81.38c-.36,1.49-.31,8.83.2,10.59a.64.64,0,0,0,0,.07.75.75,0,0,1-.48.95,1,1,0,0,1-.23,0,.77.77,0,0,1-.72-.52,3.91,3.91,0,0,1-.12-.56c-.38-2.51-.81-11.08.41-11.82.81-.48,6.84-1,8.32-.53a1.16,1.16,0,0,1,.74.55A60.7,60.7,0,0,1,36.54,60.51Z"/><path class="cls-1" d="M8,41.63c-2.76,0-3.1-.68-3.23-.94-.42-.86-.42-5.39-.09-6.28a.89.89,0,0,1,.47-.53,4,4,0,0,1,1.57-.14c2.77,0,3.16.36,3.3.5.76.7.65,5.6.65,5.64,0,.71-.12,1.15-.46,1.4C10.13,41.37,9.78,41.63,8,41.63Zm-1.9-1.7a6.72,6.72,0,0,0,1.9.2,9.81,9.81,0,0,0,1.16-.06A25.17,25.17,0,0,0,9,35.38a14.26,14.26,0,0,0-2.21-.14l-.7,0A23.89,23.89,0,0,0,6.14,39.93Z"/><path class="cls-1" d="M16,41.57c-2.33,0-2.72-.58-2.86-.79-.51-.75-1.09-6-.14-6.65.15-.11.44-.32,1.95-.32,1.17,0,2.68.11,3.16.62.67.7,1.1,5.76.83,6.35C18.81,41,18.55,41.57,16,41.57Zm-1.64-1.69a4.94,4.94,0,0,0,1.64.19A8.76,8.76,0,0,0,17.53,40,24.86,24.86,0,0,0,17,35.5a9.22,9.22,0,0,0-2.06-.19,9,9,0,0,0-.93,0A17.14,17.14,0,0,0,14.34,39.88Z"/><path class="cls-1" d="M24.76,41.83c-.11,0-2.67,0-3.43-1s-.39-4.49-.29-5.15c.12-.84.27-1.21.57-1.43a7.18,7.18,0,0,1,3-.65,2,2,0,0,1,1.69.6c.62.86.76,6.53,0,7.27C26.12,41.62,25.77,41.83,24.76,41.83ZM22.6,35.41a13.32,13.32,0,0,0-.06,4.53,5.64,5.64,0,0,0,2.22.39,2.61,2.61,0,0,0,.46,0,20.25,20.25,0,0,0-.08-5.18,3,3,0,0,0-.49,0A7.53,7.53,0,0,0,22.6,35.41Z"/><path class="cls-1" d="M31.39,41.74c-1.4,0-2-.22-2.28-.76s-.64-6.16.57-6.84a5.71,5.71,0,0,1,2.21-.36c1.82,0,2.13.44,2.27.62.35.48,1,6.17.1,6.87C33.69,41.72,31.62,41.74,31.39,41.74Zm-.93-1.56a5.37,5.37,0,0,0,.93.06,10.8,10.8,0,0,0,1.8-.15,25.26,25.26,0,0,0-.25-4.72,5,5,0,0,0-1-.09,6.88,6.88,0,0,0-1.33.12A21.61,21.61,0,0,0,30.46,40.18Z"/><path class="cls-1" d="M39.57,41.6c-1.23,0-1.66-.28-1.88-.49-.91-.9-.56-5.37-.55-5.41.1-1,.27-1.42.63-1.65a2.29,2.29,0,0,1,1.33-.27A7.59,7.59,0,0,1,42,34.3c.37.21.6.62.77,1.4.2,1,.5,4.38-.08,5.12S39.67,41.6,39.57,41.6ZM38.77,40a5.17,5.17,0,0,0,.8.06,7,7,0,0,0,1.86-.24,13.33,13.33,0,0,0-.3-4.28,7.21,7.21,0,0,0-2-.3l-.4,0A15.91,15.91,0,0,0,38.77,40Z"/><path class="cls-1" d="M16.5,52.36c-.76,0-3.06-.18-3.66-1s-.53-5.87.35-6.67c.16-.14.59-.53,2.51-.53.85,0,2.34.07,2.8.51.75.71.6,6,.15,6.89C18.36,52.11,17.68,52.36,16.5,52.36Zm-2.44-1.91a7.05,7.05,0,0,0,2.44.41,3,3,0,0,0,.86-.09,21.09,21.09,0,0,0,0-5,9.68,9.68,0,0,0-1.69-.13,5.07,5.07,0,0,0-1.48.15A13.58,13.58,0,0,0,14.06,50.45Z"/><path class="cls-1" d="M48.89,52.29c-1.16,0-3.18-.13-3.61-1s-.14-6.14.66-6.88a1.93,1.93,0,0,1,1.38-.37,6.71,6.71,0,0,1,3.46.86c.86.78.9,5.93.43,6.69C51,52,50.56,52.29,48.89,52.29Zm-2.28-1.76a8.82,8.82,0,0,0,2.28.26A6.3,6.3,0,0,0,50,50.71,17.76,17.76,0,0,0,49.73,46a7.22,7.22,0,0,0-2.41-.44l-.33,0A21.45,21.45,0,0,0,46.61,50.53Z"/><path class="cls-1" d="M48.35,41.63c-.39,0-2.34,0-3-.65-.25-.23-.51-.67-.54-2.17,0,0-.06-3.44.68-4.19s2.64-.78,3.29-.78a2.29,2.29,0,0,1,1.82.53c.71.83.56,5.88,0,6.65C50.35,41.31,49.91,41.63,48.35,41.63Zm-2-1.73a7.18,7.18,0,0,0,2,.23,4.58,4.58,0,0,0,1-.09,19,19,0,0,0,0-4.65,3.71,3.71,0,0,0-.67,0,7.09,7.09,0,0,0-2.19.33A12.27,12.27,0,0,0,46.4,39.9Z"/><path class="cls-1" d="M56.25,41.66c-1.62,0-2.65-.26-3-.77-.63-.81-.75-6.25-.15-6.85.15-.15.41-.41,2.39-.41,2.61,0,3,.49,3.15.7.67.85.51,6.12.24,6.63C58.71,41.2,58.47,41.66,56.25,41.66Zm-1.86-1.72a5.69,5.69,0,0,0,1.86.22,8.23,8.23,0,0,0,1.29-.09,27.06,27.06,0,0,0-.13-4.77,8.78,8.78,0,0,0-2-.17,11.12,11.12,0,0,0-1.23.06A20.79,20.79,0,0,0,54.39,39.94Z"/><path class="cls-1" d="M55.86,52.1c-1.61,0-2.06-.36-2.28-.67-.47-.68-.9-6.08,0-6.93.23-.22.65-.44,2-.44.12,0,2.81,0,3.46.68s.49,3.25.43,4.38c-.09,1.86-.31,2.2-.57,2.42C58.23,52.09,56,52.1,55.86,52.1ZM54.8,50.5a4.31,4.31,0,0,0,1.06.1,8.82,8.82,0,0,0,2-.21,20,20,0,0,0,.06-4.58,10.12,10.12,0,0,0-2.32-.25,4.46,4.46,0,0,0-.9.07A16.91,16.91,0,0,0,54.8,50.5Z"/><path class="cls-1" d="M42.9,46l-.16,0c-2.19-.5-18.58-1.09-22-.65a.75.75,0,0,1-.19-1.49c3.58-.46,20.15.14,22.51.68A.75.75,0,0,1,42.9,46Z"/><path class="cls-3" d="M35.08,60.39a.68.68,0,0,0-.07.2c-2,.09-4.41.14-6.46.11-.51-1.76-.56-9.1-.2-10.59a31.89,31.89,0,0,1,6.81-.38A76.35,76.35,0,0,1,35.08,60.39Z"/><path class="cls-1" d="M40.9,57.69c0,.61,0,1.12,0,1.53-.09,1.7-.29,1.92-.41,2-.74.82-7.17.94-10.87.94-1.52,0-2.58,0-2.61,0-3.62-.1-3.84-.36-4.07-.65a6.09,6.09,0,0,1-.39-2.45c0-.46,0-1,0-1.5-.06-4.27.29-10.65.44-12.4,0-.18,0-.32,0-.39a.75.75,0,1,1,1.48.2c0,.05,0,.11,0,.17-.3,2.57-.63,13.35-.32,15.33a21.77,21.77,0,0,0,2.93.2c.48,0,1,0,1.53,0,2.05,0,4.43,0,6.46-.11l1.53-.08a18.68,18.68,0,0,0,2.76-.31c.25-1.43,0-8.33-.42-14.63a1.64,1.64,0,0,1,0-.22.74.74,0,0,1,.7-.8.76.76,0,0,1,.8.7l0,.43C40.79,51.79,40.91,55.46,40.9,57.69Z"/><path class="cls-1" d="M62.44,30.22a.75.75,0,0,1-.6.88l-.27,0c-3.1.31-25.21.69-41.77.69-9.3,0-16.85-.12-18.3-.44l-.15,0a.75.75,0,0,1,.37-1.45.31.31,0,0,1,.13,0c.51.14,3.83.24,8.67.29l1.9,0c10.84.09,27.58,0,38.49-.21l1.77,0c4.34-.09,7.51-.21,8.62-.34l.26,0A.75.75,0,0,1,62.44,30.22Z"/><path class="cls-1" d="M52.34,30.92a.74.74,0,0,1-1-.29,5.34,5.34,0,0,0-.42-.6c-2.79-3.51-16.17-16.14-18.35-17.25l-.07,0-.18.08c-2.67,1.29-16.57,13.75-19.89,17.41a6,6,0,0,0-.62.75.77.77,0,0,1-.63.34.71.71,0,0,1-.41-.13.74.74,0,0,1-.24-1,.08.08,0,0,1,0,0c.45-.69,6-6.16,11.52-11,.56-.51,1.13-1,1.68-1.49a55.94,55.94,0,0,1,7.79-6,2.45,2.45,0,0,1,1-.38h.06a1.07,1.07,0,0,1,.38.13c1.33.61,4.57,3.4,8.05,6.65l1.5,1.42C47.34,24,52.11,28.93,52.64,29.9a.42.42,0,0,1,0,.1A.73.73,0,0,1,52.34,30.92Z"/><path class="cls-3" d="M32.56,12.78a.59.59,0,0,1-.23.05h0c-2.67,1.29-16.57,13.75-19.89,17.41,10.84.09,27.58,0,38.49-.21C48.12,26.52,34.74,13.89,32.56,12.78Zm3.85,14.46a4.88,4.88,0,0,1-3.57,1.46A5.56,5.56,0,0,1,32,17.63c3.05-.29,5.65,2.26,5.8,5.57A5.41,5.41,0,0,1,36.41,27.24Z"/><path class="cls-1" d="M33,12.05a.74.74,0,0,1-.48.73.59.59,0,0,1-.23.05h0a.75.75,0,0,1-.74-.72l0-.49L31.07,1.25a.75.75,0,0,1,.71-.79h0a.77.77,0,0,1,.77.72l0,.66.21,4.91.07,1.5L33,11.37Z"/><path class="cls-3" d="M39.58,7.16a55,55,0,0,1-6.77-.41L32.6,1.84a35.94,35.94,0,0,1,6.29-.3l-.35.64a5.15,5.15,0,0,0-.72,1.63c-.08.68.46,1.5,1.36,2.77C39.3,6.76,39.45,7,39.58,7.16Z"/><path class="cls-1" d="M41.48,8l-.31.32a4.88,4.88,0,0,1-2.52.39,54.74,54.74,0,0,1-5.77-.41l-.45-.05a.75.75,0,1,1,.27-1.47l.11,0a55,55,0,0,0,6.77.41c-.13-.2-.28-.4-.4-.58-.9-1.27-1.44-2.09-1.36-2.77a5.15,5.15,0,0,1,.72-1.63l.35-.64a35.94,35.94,0,0,0-6.29.3l-.49.08A.75.75,0,0,1,31.78.46h0c1.16-.22,7.59-.89,8.45,0,.62.62.13,1.49-.44,2.49A6.1,6.1,0,0,0,39.31,4a11.46,11.46,0,0,0,1.1,1.73,5,5,0,0,1,1,1.85Z"/><path class="cls-1" d="M47.66,59.72c-3.76,0-7-.24-7.73-.88a.75.75,0,0,1,1-1.14c1.28.8,17.29.67,20-.52,1.85-1.33,1.31-23.39.44-27.21-.59-2.6-5.58-9.59-6.57-10.14s-10.21-.55-13.61-.31a.73.73,0,0,1-.8-.7.75.75,0,0,1,.69-.8c2-.14,12.84-.39,14.45.5s6.67,8.33,7.3,11.11c.46,2,2.25,27.36-1.3,28.92C60.13,59.17,53.3,59.72,47.66,59.72Z"/><path class="cls-1" d="M9.5,59.73c-3.74,0-6.74-.27-7.36-1.1C.64,56.64-.38,32.08.13,30,.69,27.73,4.3,19.7,8.25,18.4c2.85-.93,8.25-.85,12.19-.78,1.26,0,2.35,0,3.15,0a.77.77,0,0,1,.77.74.74.74,0,0,1-.73.76c-.82,0-1.93,0-3.22,0-3.83-.06-9.08-.15-11.69.71-3.14,1-6.6,8.38-7.13,10.52S2.25,56,3.34,57.73c1,.8,10.88.54,19.4-.18a.75.75,0,1,1,.12,1.5C19,59.37,13.78,59.73,9.5,59.73Z"/><path class="cls-3" d="M52.78,22.74a.76.76,0,0,1-.68-.43.75.75,0,0,1,.36-1,16.56,16.56,0,0,1,1.86-.7A12.4,12.4,0,0,0,56,20a.75.75,0,0,1,.65,1.35,13.41,13.41,0,0,1-1.86.7,12.58,12.58,0,0,0-1.68.63A.71.71,0,0,1,52.78,22.74Z"/><path class="cls-3" d="M54.47,24.8a.75.75,0,0,1-.33-1.43c.59-.28,1.2-.52,1.81-.76s1.16-.46,1.72-.73a.75.75,0,0,1,1,.35.74.74,0,0,1-.36,1c-.59.29-1.2.53-1.81.77s-1.15.46-1.71.73A.71.71,0,0,1,54.47,24.8Z"/><path class="cls-3" d="M56.54,27a.66.66,0,0,1-.32-1.25c.45-.25.92-.45,1.37-.65s.87-.37,1.28-.59a.65.65,0,0,1,.9.27.67.67,0,0,1-.27.9c-.45.24-.92.45-1.38.64s-.87.38-1.27.6A.71.71,0,0,1,56.54,27Z"/><path class="cls-3" d="M58.15,28.82a.75.75,0,0,1-.28-1.44c.32-.13.59-.27.85-.4a5.52,5.52,0,0,1,1.55-.58.75.75,0,1,1,.27,1.47,4.43,4.43,0,0,0-1.16.46c-.28.14-.59.29-.94.44A1,1,0,0,1,58.15,28.82Z"/><path class="cls-1" d="M6.23,59a.75.75,0,0,1-.74-.61A11.87,11.87,0,0,0,4.76,56a.75.75,0,0,1,.4-1,.74.74,0,0,1,1,.4A12.58,12.58,0,0,1,7,58.15a.75.75,0,0,1-.59.88Z"/><path class="cls-1" d="M9.69,59.13A.76.76,0,0,1,9,58.6l-1-3a.75.75,0,0,1,.49-.94.76.76,0,0,1,.94.49l1,3a.74.74,0,0,1-.49.94A.59.59,0,0,1,9.69,59.13Z"/><path class="cls-1" d="M12.5,59.27a.75.75,0,0,1-.71-.5c-.19-.58-.33-1.08-.47-1.58s-.26-.95-.45-1.49a.75.75,0,0,1,.47-1,.74.74,0,0,1,.95.47c.2.57.34,1.07.48,1.57s.26,1,.44,1.49a.74.74,0,0,1-.46.95A.73.73,0,0,1,12.5,59.27Z"/><path class="cls-1" d="M15.58,58.9a.76.76,0,0,1-.7-.47c-.23-.56-.39-1-.55-1.47s-.32-.87-.54-1.41A.75.75,0,0,1,15.18,55c.23.55.39,1,.56,1.46s.31.88.53,1.41a.75.75,0,0,1-.41,1A.71.71,0,0,1,15.58,58.9Z"/><path class="cls-1" d="M19,58.71a.75.75,0,0,1-.7-.48,8.17,8.17,0,0,1-.39-1.6,5.91,5.91,0,0,0-.31-1.31.75.75,0,1,1,1.4-.54,7.44,7.44,0,0,1,.39,1.61,6.6,6.6,0,0,0,.31,1.3.75.75,0,0,1-.43,1A.65.65,0,0,1,19,58.71Z"/><path class="cls-1" d="M43.62,59.46a.75.75,0,0,1-.73-.58A16.53,16.53,0,0,0,42,56.11a.75.75,0,0,1,1.39-.58,18.89,18.89,0,0,1,1,3,.74.74,0,0,1-.56.89A.5.5,0,0,1,43.62,59.46Z"/><path class="cls-1" d="M46.87,59.43a.74.74,0,0,1-.73-.61,12.15,12.15,0,0,0-1-3.07.75.75,0,0,1,1.36-.65,13.86,13.86,0,0,1,1.12,3.44.75.75,0,0,1-.6.88Z"/><path class="cls-1" d="M50.3,59.59a.73.73,0,0,1-.71-.5l-1.21-3.47a.75.75,0,1,1,1.42-.49L51,58.6a.74.74,0,0,1-.46.95A.67.67,0,0,1,50.3,59.59Z"/><path class="cls-1" d="M53.39,59.26a.75.75,0,0,1-.72-.52l-1-3.35a.74.74,0,0,1,.49-.94.75.75,0,0,1,.94.49l1,3.35a.76.76,0,0,1-.5.94A.83.83,0,0,1,53.39,59.26Z"/><path class="cls-1" d="M57,59a.75.75,0,0,1-.7-.48L55,55.33a.75.75,0,0,1,1.4-.55L57.67,58a.75.75,0,0,1-.42,1A.71.71,0,0,1,57,59Z"/><path class="cls-1" d="M60.37,58.82a.73.73,0,0,1-.57-.26,6.85,6.85,0,0,1-1.62-3.92.75.75,0,1,1,1.49-.12,5.46,5.46,0,0,0,1.27,3.07.74.74,0,0,1-.08,1A.71.71,0,0,1,60.37,58.82Z"/><path class="cls-1" d="M33.14,22.87a2,2,0,0,1,0,.24.76.76,0,0,1-.73.59h-.16a.76.76,0,0,1-.58-.89s0,0,0,0a5.43,5.43,0,0,0,0-2.27.75.75,0,0,1,1.47-.32A7,7,0,0,1,33.14,22.87Z"/><path class="cls-1" d="M34.43,25.51a.78.78,0,0,1-.49.18.76.76,0,0,1-.57-.26l-1.62-1.87a.73.73,0,0,1-.12-.76s0,0,0,0a.79.79,0,0,1,.19-.26.75.75,0,0,1,1.06.08l.25.29,1.36,1.58A.76.76,0,0,1,34.43,25.51Z"/></g></g></svg>