<svg xmlns="http://www.w3.org/2000/svg" viewBox="0 0 63.69 62.21"><defs><style>.cls-1{fill:#373684;}.cls-2{fill:#dff7ff;}.cls-3{fill:#f40059;}.cls-4{fill:#ffe42a;}.cls-5{fill:#fff;}.cls-6{fill:#4aa0ff;}</style></defs><g id="Capa_2" data-name="Capa 2"><g id="Layer_1" data-name="Layer 1"><path class="cls-1" d="M32,17.63a5.56,5.56,0,0,0,.85,11.07,4.88,4.88,0,0,0,3.57-1.46,5.41,5.41,0,0,0,1.38-4C37.64,19.89,35,17.34,32,17.63Zm3.34,8.58a3.35,3.35,0,0,1-2.49,1,4.07,4.07,0,0,1-4.17-3.58,4.14,4.14,0,0,1,3.46-4.49l.34,0a4.1,4.1,0,0,1,3.82,4.16A3.89,3.89,0,0,1,35.33,26.21Z"/><path class="cls-2" d="M32.47,19.11l-.34,0a4.14,4.14,0,0,0-3.46,4.49,4.07,4.07,0,0,0,4.17,3.58,3.35,3.35,0,0,0,2.49-1,3.89,3.89,0,0,0,1-2.94A4.1,4.1,0,0,0,32.47,19.11Zm2,6.4a.78.78,0,0,1-.49.18.76.76,0,0,1-.57-.26l-1.62-1.87a.73.73,0,0,1-.12-.76s0,0,0,0a5.43,5.43,0,0,0,0-2.27.75.75,0,0,1,1.47-.32,7,7,0,0,1,0,2.7l1.36,1.58A.76.76,0,0,1,34.43,25.51Z"/><path class="cls-1" d="M9.73,45a2.69,2.69,0,0,0-2.29-.88,3.94,3.94,0,0,0-2.67.82c-.67.83-1.23,5.28-.16,6.38s3.64,1,3.75,1c1.05,0,1.39-.19,1.59-.37C10.79,51.15,10.34,45.92,9.73,45Zm-.88,5.8-.49,0a5.47,5.47,0,0,1-2.66-.53c-.38-.53-.12-3.79.21-4.37a3.26,3.26,0,0,1,1.53-.3,1.77,1.77,0,0,1,1,.21A15.46,15.46,0,0,1,8.85,50.79Z"/><path class="cls-1" d="M36.54,60.52a1.75,1.75,0,0,1-.25.75.75.75,0,0,1-1.06,0A.72.72,0,0,1,35,60.6a.68.68,0,0,1,.07-.2,76.35,76.35,0,0,0,.08-10.66,31.89,31.89,0,0,0-6.81.38C28,51.61,28,59,28.55,60.71a.64.64,0,0,0,0,.07.75.75,0,0,1-.48.95,1,1,0,0,1-.23,0,.77.77,0,0,1-.72-.52,3.91,3.91,0,0,1-.12-.56c-.38-2.51-.81-11.08.41-11.82.81-.48,6.84-1,8.32-.53a1.16,1.16,0,0,1,.74.55A60.7,60.7,0,0,1,36.54,60.52Z"/><path class="cls-1" d="M10.05,34.24c-.14-.13-.53-.49-3.3-.49a4.1,4.1,0,0,0-1.57.14.83.83,0,0,0-.47.53c-.33.88-.32,5.42.1,6.27.12.26.46,1,3.22,1,1.74,0,2.1-.27,2.21-.36.34-.25.42-.68.46-1.39C10.7,39.84,10.81,35,10.05,34.24Zm-.86,5.83A9.18,9.18,0,0,1,8,40.14a6.26,6.26,0,0,1-1.9-.21,23.89,23.89,0,0,1-.08-4.67h.7A14.52,14.52,0,0,1,9,35.38,24.39,24.39,0,0,1,9.19,40.07Z"/><path class="cls-1" d="M18.09,34.44c-.49-.52-2-.63-3.17-.63-1.5,0-1.8.22-1.94.32-1,.69-.38,5.9.13,6.65.14.22.53.8,2.86.8,2.57,0,2.83-.56,2.94-.79C19.19,40.19,18.75,35.14,18.09,34.44ZM16,40.08a4.94,4.94,0,0,1-1.64-.19A16.82,16.82,0,0,1,14,35.36a6.15,6.15,0,0,1,.92,0A9.88,9.88,0,0,1,17,35.5,25.77,25.77,0,0,1,17.53,40,9,9,0,0,1,16,40.08Z"/><path class="cls-1" d="M26.34,34.19a2,2,0,0,0-1.69-.6,7.19,7.19,0,0,0-3,.65c-.3.22-.45.59-.57,1.42-.1.66-.44,4.2.29,5.16s3.32,1,3.43,1c1,0,1.36-.2,1.55-.38C27.1,40.71,27,35,26.34,34.19Zm-1.12,6.12-.47,0a5.49,5.49,0,0,1-2.22-.39,13.32,13.32,0,0,1,.06-4.53,8.09,8.09,0,0,1,2.06-.32,2.12,2.12,0,0,1,.48,0A20.24,20.24,0,0,1,25.22,40.31Z"/><path class="cls-1" d="M34.15,34.4c-.14-.18-.45-.61-2.26-.61a5.7,5.7,0,0,0-2.22.35c-1.2.69-.76,6.4-.57,6.84s.88.76,2.28.76c.24,0,2.3,0,2.88-.47C35.14,40.58,34.5,34.89,34.15,34.4Zm-1,5.7a11.24,11.24,0,0,1-1.81.14,5.55,5.55,0,0,1-.93-.06,21.61,21.61,0,0,1,.1-4.78,7.14,7.14,0,0,1,1.34-.11,5.11,5.11,0,0,1,1,.08A25.35,25.35,0,0,1,33.19,40.1Z"/><path class="cls-1" d="M42.71,35.71c-.17-.78-.4-1.2-.77-1.4a7.4,7.4,0,0,0-2.85-.52,2.41,2.41,0,0,0-1.33.26c-.36.24-.53.68-.63,1.65,0,0-.36,4.51.55,5.41.22.21.65.5,1.88.5.11,0,2.47,0,3.07-.79S42.91,36.66,42.71,35.71Zm-1.29,4.15a6.53,6.53,0,0,1-1.86.25,4.85,4.85,0,0,1-.79-.06,15.59,15.59,0,0,1-.08-4.74l.4,0a6.86,6.86,0,0,1,2,.3A13,13,0,0,1,41.42,39.86Z"/><path class="cls-1" d="M18.5,44.69c-.47-.45-2-.51-2.81-.51-1.92,0-2.35.38-2.5.53-.89.8-1,5.81-.36,6.67s2.91,1,3.67,1c1.17,0,1.85-.25,2.14-.79C19.1,50.72,19.24,45.39,18.5,44.69Zm-1.15,6.08a3,3,0,0,1-.85.09,7.18,7.18,0,0,1-2.45-.4,13.39,13.39,0,0,1,.17-4.64,5.51,5.51,0,0,1,1.47-.14,9.68,9.68,0,0,1,1.69.13A21,21,0,0,1,17.35,50.77Z"/><path class="cls-1" d="M50.78,44.94a6.85,6.85,0,0,0-3.47-.86,2,2,0,0,0-1.38.37c-.8.74-1.06,6.11-.66,6.88s2.45,1,3.61,1c1.67,0,2.1-.31,2.32-.65C51.68,50.88,51.64,45.72,50.78,44.94ZM50,50.71a5.38,5.38,0,0,1-1.08.08,8.82,8.82,0,0,1-2.28-.26A22.07,22.07,0,0,1,47,45.6l.33,0a7.12,7.12,0,0,1,2.41.44A17.78,17.78,0,0,1,50,50.71Z"/><path class="cls-1" d="M50.57,34.38c-.31-.37-.87-.53-1.82-.53-.65,0-2.66.14-3.28.77s-.69,4.16-.69,4.19c0,1.51.29,1.94.55,2.18.67.62,2.63.65,3,.65,1.56,0,2-.33,2.22-.61C51.14,40.26,51.28,35.21,50.57,34.38Zm-1.19,5.67a4.44,4.44,0,0,1-1,.09,6.71,6.71,0,0,1-2-.24,12.47,12.47,0,0,1,.17-4.22,7.09,7.09,0,0,1,2.19-.33,2.94,2.94,0,0,1,.67,0A18.48,18.48,0,0,1,49.38,40.05Z"/><path class="cls-1" d="M58.59,34.33c-.16-.21-.54-.69-3.15-.69-2,0-2.23.25-2.39.41-.6.6-.48,6,.15,6.84.4.51,1.42.77,3,.77,2.21,0,2.45-.45,2.58-.7C59.1,40.45,59.26,35.19,58.59,34.33Zm-1.06,5.74a7,7,0,0,1-1.28.09,5.72,5.72,0,0,1-1.87-.22,20.77,20.77,0,0,1-.17-4.75c.26,0,.68,0,1.23,0a8.18,8.18,0,0,1,2,.17A27,27,0,0,1,57.53,40.07Z"/><path class="cls-1" d="M59,44.74c-.65-.66-3.34-.67-3.45-.67-1.32,0-1.74.22-2,.43-.93.85-.5,6.25,0,6.93.22.31.67.67,2.28.67.1,0,2.37,0,3-.56.26-.22.48-.55.58-2.42C59.51,48,59.58,45.33,59,44.74Zm-1.2,5.66a8.89,8.89,0,0,1-2,.2,4.31,4.31,0,0,1-1.06-.1,17.26,17.26,0,0,1-.13-4.87,4.9,4.9,0,0,1,.91-.06,10.22,10.22,0,0,1,2.31.24A20.11,20.11,0,0,1,57.82,50.4Z"/><path class="cls-1" d="M43.63,45.39a.75.75,0,0,1-.73.58.5.5,0,0,1-.17,0,19.34,19.34,0,0,0-2.34-.26c-.45,0-1-.07-1.51-.1h0c-4.08-.25-10.32-.45-14.47-.42-.54,0-1,0-1.5,0-.94,0-1.68.06-2.17.12a.75.75,0,0,1-.19-1.49c3.58-.45,20.15.15,22.51.68A.75.75,0,0,1,43.63,45.39Z"/><path class="cls-3" d="M35.08,60.39a.68.68,0,0,0-.07.2c-2,.09-4.41.14-6.46.11-.51-1.76-.56-9.1-.2-10.59a31.89,31.89,0,0,1,6.81-.38A76.35,76.35,0,0,1,35.08,60.39Z"/><path class="cls-4" d="M39.3,60.21a18.68,18.68,0,0,1-2.76.31,60.7,60.7,0,0,0,0-11.63,1.16,1.16,0,0,0-.74-.55c-1.48-.43-7.51,0-8.32.53-1.22.74-.79,9.31-.41,11.82a21.77,21.77,0,0,1-2.93-.2c-.31-2,0-12.76.32-15.33,4.15,0,10.39.17,14.47.42h0C39.29,51.89,39.55,58.78,39.3,60.21Z"/><path class="cls-1" d="M40.9,57.7c0,.61,0,1.12,0,1.53-.09,1.7-.29,1.92-.41,2-.74.82-7.17.94-10.87.94-1.52,0-2.58,0-2.61,0-3.62-.1-3.84-.36-4.07-.65a6.09,6.09,0,0,1-.39-2.45c0-.46,0-1,0-1.5-.06-4.27.29-10.65.44-12.4,0-.18,0-.32,0-.39a.75.75,0,1,1,1.48.2s0,.11,0,.17c-.3,2.57-.63,13.35-.32,15.33a21.77,21.77,0,0,0,2.93.2c.48,0,1,0,1.53,0,2.05,0,4.43,0,6.46-.11l1.53-.08a18.68,18.68,0,0,0,2.76-.31c.25-1.43,0-8.32-.42-14.62h0a1.64,1.64,0,0,1,0-.22.74.74,0,0,1,.7-.8.76.76,0,0,1,.8.7l0,.43C40.79,51.8,40.91,55.47,40.9,57.7Z"/><path class="cls-1" d="M62.44,30.23a.75.75,0,0,1-.6.88l-.27,0h0c-3.13.31-25.22.69-41.76.69-9.3,0-16.85-.12-18.3-.44h0l-.14,0a.75.75,0,0,1-.45-1,.74.74,0,0,1,.81-.49h0a.31.31,0,0,1,.13,0c.51.14,3.83.24,8.67.29l1.9,0c10.84.09,27.58,0,38.49-.21l1.77,0c4.33-.09,7.49-.21,8.61-.34h0l.26,0A.75.75,0,0,1,62.44,30.23Z"/><path class="cls-1" d="M52.34,30.93a.74.74,0,0,1-1-.29,5.34,5.34,0,0,0-.42-.6C48.12,26.53,34.74,13.9,32.56,12.79l-.07,0-.18.08c-2.67,1.29-16.57,13.75-19.89,17.41a6,6,0,0,0-.62.75.77.77,0,0,1-.63.34.71.71,0,0,1-.41-.13.74.74,0,0,1-.24-1,.08.08,0,0,1,0-.05c.45-.69,6-6.16,11.52-11,.56-.51,1.12-1,1.67-1.49h0a55.94,55.94,0,0,1,7.79-6,2.45,2.45,0,0,1,1-.38h.06a1.07,1.07,0,0,1,.38.13c1.33.61,4.57,3.4,8.05,6.65l1.5,1.42c4.78,4.55,9.55,9.49,10.08,10.46a.42.42,0,0,1,0,.1A.73.73,0,0,1,52.34,30.93Z"/><path class="cls-3" d="M32.56,12.78a.59.59,0,0,1-.23.05h0c-2.67,1.29-16.57,13.75-19.89,17.41,10.84.09,27.58,0,38.49-.21C48.12,26.52,34.74,13.89,32.56,12.78Zm3.85,14.46a4.88,4.88,0,0,1-3.57,1.46A5.56,5.56,0,0,1,32,17.63c3.05-.29,5.65,2.26,5.8,5.57A5.41,5.41,0,0,1,36.41,27.24Z"/><path class="cls-1" d="M33,12.05a.74.74,0,0,1-.48.73.59.59,0,0,1-.23.05h0a.75.75,0,0,1-.74-.72l0-.49L31.07,1.25a.75.75,0,0,1,.71-.79h0a.77.77,0,0,1,.77.72l0,.66.21,4.91.07,1.5L33,11.37Z"/><path class="cls-3" d="M39.58,7.16a55,55,0,0,1-6.77-.41L32.6,1.84a35.94,35.94,0,0,1,6.29-.3l-.35.64a5.15,5.15,0,0,0-.72,1.63c-.08.68.46,1.5,1.36,2.77C39.3,6.76,39.45,7,39.58,7.16Z"/><path class="cls-1" d="M41.48,8l-.31.32a4.88,4.88,0,0,1-2.52.39,54.74,54.74,0,0,1-5.77-.41l-.45-.05a.75.75,0,1,1,.27-1.47l.11,0a55,55,0,0,0,6.77.41c-.13-.2-.28-.4-.4-.58-.9-1.27-1.44-2.09-1.36-2.77a5.15,5.15,0,0,1,.72-1.63l.35-.64a35.94,35.94,0,0,0-6.29.3l-.49.08A.75.75,0,0,1,31.78.46h0c1.16-.22,7.59-.89,8.45,0,.62.62.13,1.49-.44,2.49A6.1,6.1,0,0,0,39.31,4a11.46,11.46,0,0,0,1.1,1.73,5,5,0,0,1,1,1.85Z"/><path class="cls-1" d="M61.53,58.56c-1.41.61-8.24,1.17-13.87,1.17a33.09,33.09,0,0,1-6.8-.5,2.43,2.43,0,0,1-.93-.39.75.75,0,0,1,1-1.14h0a5.71,5.71,0,0,0,1.75.32h0c.46,0,1,.08,1.58.11L46,58.2l1.54,0h1.74l1.59,0,1.62,0L54,58.08,56,58l1.55-.14c.56-.06,1.08-.12,1.54-.19a9.52,9.52,0,0,0,1.56-.35l.25-.09c1.71-1.23,1.38-20.13.63-26A11.26,11.26,0,0,0,61.37,30c0-.09,0-.19-.08-.3a11.82,11.82,0,0,0-.78-1.78c-.22-.44-.48-.89-.76-1.36-.14-.26-.3-.52-.47-.78s-.47-.75-.71-1.13-.53-.77-.78-1.15l-.9-1.24-.56-.75c-.4-.49-.74-.91-1-1.2a2.36,2.36,0,0,0-.5-.44c-.93-.47-8.23-.54-12.25-.39-.52,0-1,0-1.37.07a.74.74,0,0,1-.8-.69.75.75,0,0,1,.67-.8h0c2-.15,12.84-.39,14.45.49s6.67,8.33,7.31,11.12C63.29,31.63,65.08,57,61.53,58.56Z"/><path class="cls-3" d="M22.06,19.14C16.58,24,11,29.49,10.54,30.18a.08.08,0,0,0,0,.05c-4.84-.05-8.16-.15-8.67-.29a.31.31,0,0,0-.13,0h0c.82-2.58,4.05-9.11,7-10.08,2.61-.85,7.86-.77,11.69-.71Z"/><path class="cls-1" d="M24.35,18.37a.75.75,0,0,1-.73.77H22.06l-1.66,0c-3.83-.06-9.08-.14-11.69.71-3,1-6.18,7.5-7,10.08-.05.17-.1.32-.13.45a6,6,0,0,0-.09,1c-.19,5.05.85,24.73,1.84,26.34a5,5,0,0,0,2.08.39h0c.45,0,1,.06,1.54.07s1.21,0,1.89,0h1.57l1.18,0,1.56,0,1.58-.06L16.31,58l1.86-.1,1.54-.11q1.39-.09,2.76-.21l.26,0a.76.76,0,0,1,.81.68.75.75,0,0,1-.69.81l-.34,0c-3.79.32-8.86.66-13,.66-3.75,0-6.74-.28-7.37-1.11C.63,56.64-.38,32.09.13,30c.55-2.26,4.16-10.3,8.12-11.59,2.84-.94,8.24-.85,12.18-.79,1.26,0,2.36,0,3.16,0h.15A.78.78,0,0,1,24.35,18.37Z"/><path class="cls-1" d="M56.63,21.35l-.3.13c-.53.23-1,.4-1.56.57a12.53,12.53,0,0,0-1.68.62.71.71,0,0,1-.32.07.74.74,0,0,1-.32-1.42,13.41,13.41,0,0,1,1.86-.7l1-.34c.23-.09.45-.18.68-.29a.75.75,0,1,1,.64,1.36Z"/><path class="cls-1" d="M58.31,23.24l-.52.23c-.42.19-.86.36-1.29.54s-1.16.46-1.72.72a.72.72,0,0,1-.32.08.76.76,0,0,1-.68-.43.75.75,0,0,1,.36-1c.58-.28,1.19-.53,1.8-.77l1-.38.77-.34a.74.74,0,0,1,1,.35A.75.75,0,0,1,58.31,23.24Z"/><path class="cls-1" d="M59.49,25.65l-.21.1c-.38.21-.78.38-1.17.55s-.86.37-1.27.59a.6.6,0,0,1-.31.08.65.65,0,0,1-.59-.35.67.67,0,0,1,.27-.9c.46-.24.92-.45,1.38-.64s.67-.29,1-.46l.29-.14a.67.67,0,0,1,.9.27A.65.65,0,0,1,59.49,25.65Z"/><path class="cls-3" d="M61.29,29.67c-1.12.13-4.28.25-8.61.34a.42.42,0,0,0,0-.1c-.53-1-5.3-5.91-10.08-10.46,4-.15,11.32-.08,12.25.39a2.36,2.36,0,0,1,.5.44l-1,.34a13.41,13.41,0,0,0-1.86.7.74.74,0,0,0,.32,1.42.71.71,0,0,0,.32-.07,12.53,12.53,0,0,1,1.68-.62c.51-.17,1-.34,1.56-.57l.56.75-1,.38c-.61.24-1.22.49-1.8.77a.75.75,0,0,0-.36,1,.76.76,0,0,0,.68.43.72.72,0,0,0,.32-.08c.56-.26,1.14-.49,1.72-.72s.87-.35,1.29-.54c.25.38.52.76.78,1.15-.31.17-.64.31-1,.46s-.92.4-1.38.64a.67.67,0,0,0-.27.9.65.65,0,0,0,.59.35.6.6,0,0,0,.31-.08c.41-.22.83-.4,1.27-.59s.79-.34,1.17-.55c.17.26.33.52.47.78a7.46,7.46,0,0,0-1,.46c-.26.13-.53.26-.85.39a.75.75,0,0,0,.29,1.45.71.71,0,0,0,.28-.06c.36-.14.66-.3,1-.44a4.37,4.37,0,0,1,1.13-.44A11.82,11.82,0,0,1,61.29,29.67Z"/><path class="cls-1" d="M61.13,27a.75.75,0,0,1-.6.88h0a4.37,4.37,0,0,0-1.13.44c-.29.14-.59.3-1,.44a.71.71,0,0,1-.28.06.75.75,0,0,1-.29-1.45c.32-.13.59-.26.85-.39a7.46,7.46,0,0,1,1-.46,3.8,3.8,0,0,1,.51-.13A.75.75,0,0,1,61.13,27Z"/><path class="cls-1" d="M7,58.15s0,0,0,.05a.74.74,0,0,1-.6.83H6.22a.75.75,0,0,1-.74-.6l-.06-.31h0A10.16,10.16,0,0,0,4.75,56a.76.76,0,0,1,.4-1,.75.75,0,0,1,1,.4A13.59,13.59,0,0,1,7,58.15Z"/><path class="cls-1" d="M9.91,59.1a.83.83,0,0,1-.22,0A.75.75,0,0,1,9,58.61l-.12-.38L8,55.57a.75.75,0,1,1,1.43-.45l1,3s0,0,0,.06A.75.75,0,0,1,9.91,59.1Z"/><path class="cls-1" d="M12.74,59.24a.67.67,0,0,1-.24,0,.74.74,0,0,1-.71-.51c-.07-.2-.13-.39-.19-.58s-.2-.67-.29-1c-.13-.48-.26-1-.45-1.5a.75.75,0,0,1,1.42-.48c.2.57.34,1.07.48,1.57s.23.87.4,1.35a.88.88,0,0,0,.05.15A.75.75,0,0,1,12.74,59.24Z"/><path class="cls-1" d="M15.85,58.84a.71.71,0,0,1-.28.06.73.73,0,0,1-.69-.46l-.14-.36c-.17-.41-.3-.76-.42-1.11s-.32-.88-.53-1.41A.75.75,0,1,1,15.17,55c.23.56.4,1,.56,1.47s.31.87.53,1.41c0,0,0,.09,0,.13A.73.73,0,0,1,15.85,58.84Z"/><path class="cls-1" d="M19.25,58.67a.86.86,0,0,1-.27,0,.76.76,0,0,1-.7-.48,2.67,2.67,0,0,1-.11-.34,7.29,7.29,0,0,1-.29-1.27,6.18,6.18,0,0,0-.31-1.31.75.75,0,0,1,1.4-.53,7,7,0,0,1,.39,1.6,6.09,6.09,0,0,0,.32,1.31l0,.09A.76.76,0,0,1,19.25,58.67Z"/><path class="cls-1" d="M43.78,59.45l-.17,0a.76.76,0,0,1-.73-.59c-.06-.29-.14-.57-.21-.85h0A16.74,16.74,0,0,0,42,56.11a.76.76,0,0,1,.41-1,.75.75,0,0,1,1,.41,18.41,18.41,0,0,1,.86,2.6c0,.13.07.27.1.41A.76.76,0,0,1,43.78,59.45Z"/><path class="cls-1" d="M47.6,58.55a.74.74,0,0,1-.6.87h-.14a.75.75,0,0,1-.73-.61A6.21,6.21,0,0,0,46,58.2a11.71,11.71,0,0,0-.87-2.45.75.75,0,0,1,1.36-.65,13.65,13.65,0,0,1,1.05,3.12C47.56,58.33,47.58,58.44,47.6,58.55Z"/><path class="cls-1" d="M50.53,59.56a.67.67,0,0,1-.24,0,.76.76,0,0,1-.71-.51l-.31-.88-.9-2.59a.75.75,0,0,1,.47-.95.74.74,0,0,1,.95.46l1.07,3.06.14.41A.77.77,0,0,1,50.53,59.56Z"/><path class="cls-1" d="M53.61,59.23a.93.93,0,0,1-.23,0,.75.75,0,0,1-.71-.53l-.19-.6-.86-2.75a.75.75,0,0,1,.49-.94.76.76,0,0,1,.94.49l1,3.14.07.21A.75.75,0,0,1,53.61,59.23Z"/><path class="cls-1" d="M57.24,59A.87.87,0,0,1,57,59a.74.74,0,0,1-.69-.47L56,58l-1-2.62a.75.75,0,0,1,1.4-.55l1.19,3,.08.2A.75.75,0,0,1,57.24,59Z"/><path class="cls-5" d="M61.56,31.15c-3.13.31-25.22.69-41.76.69-9.3,0-16.85-.12-18.3-.44h0c-.19,5.05.85,24.73,1.84,26.34a5,5,0,0,0,2.08.39A10.16,10.16,0,0,0,4.75,56a.76.76,0,0,1,.4-1,.75.75,0,0,1,1,.4A13.59,13.59,0,0,1,7,58.15s0,0,0,.05q.87,0,1.89,0L8,55.57a.75.75,0,1,1,1.43-.45l1,3s0,0,0,.06l1.18,0c-.11-.34-.2-.67-.29-1-.13-.48-.26-1-.45-1.5a.75.75,0,0,1,1.42-.48c.2.57.34,1.07.48,1.57s.23.87.4,1.35l1.58-.06c-.17-.41-.3-.76-.42-1.11s-.32-.88-.53-1.41A.75.75,0,1,1,15.17,55c.23.56.4,1,.56,1.47s.31.87.53,1.41c0,0,0,.09,0,.13l1.86-.1a7.29,7.29,0,0,1-.29-1.27,6.18,6.18,0,0,0-.31-1.31.75.75,0,0,1,1.4-.53,7,7,0,0,1,.39,1.6,6.09,6.09,0,0,0,.32,1.31l0,.09q1.39-.09,2.76-.21c-.06-4.27.29-10.65.44-12.4-.94,0-1.68.06-2.17.12a.75.75,0,0,1-.19-1.49c3.58-.45,20.15.15,22.51.68A.75.75,0,0,1,42.9,46a.5.5,0,0,1-.17,0,19.34,19.34,0,0,0-2.34-.26c.4,6.11.52,9.78.51,12h0a5.71,5.71,0,0,0,1.75.32A16.74,16.74,0,0,0,42,56.11a.76.76,0,0,1,.41-1,.75.75,0,0,1,1,.41,18.41,18.41,0,0,1,.86,2.6L46,58.2a11.71,11.71,0,0,0-.87-2.45.75.75,0,0,1,1.36-.65,13.65,13.65,0,0,1,1.05,3.12h1.74l-.9-2.59a.75.75,0,0,1,.47-.95.74.74,0,0,1,.95.46l1.07,3.06,1.62,0-.86-2.75a.75.75,0,0,1,.49-.94.76.76,0,0,1,.94.49l1,3.14L56,58l-1-2.62a.75.75,0,0,1,1.4-.55l1.19,3c.56-.06,1.08-.12,1.54-.19a6.83,6.83,0,0,1-.95-3,.75.75,0,0,1,1.5-.11,5.33,5.33,0,0,0,1,2.74l.25-.09C62.64,56,62.31,37.05,61.56,31.15ZM10,51.94c-.2.18-.54.37-1.59.37-.11,0-2.8,0-3.75-1s-.51-5.55.16-6.38a3.94,3.94,0,0,1,2.67-.82A2.69,2.69,0,0,1,9.73,45C10.34,45.92,10.79,51.15,10,51.94Zm.75-12c0,.71-.12,1.14-.46,1.39-.11.09-.47.36-2.21.36-2.76,0-3.1-.69-3.22-1-.42-.85-.43-5.39-.1-6.27a.83.83,0,0,1,.47-.53,4.1,4.1,0,0,1,1.57-.14c2.77,0,3.16.36,3.3.49C10.81,35,10.7,39.84,10.7,39.89ZM13,34.13c.14-.1.44-.32,1.94-.32,1.17,0,2.68.11,3.17.63.66.7,1.1,5.75.82,6.35-.11.23-.37.79-2.94.79-2.33,0-2.72-.58-2.86-.8C12.6,40,12,34.82,13,34.13Zm5.66,17.44c-.29.54-1,.79-2.14.79-.76,0-3.07-.18-3.67-1s-.53-5.87.36-6.67c.15-.15.58-.53,2.5-.53.85,0,2.34.06,2.81.51C19.24,45.39,19.1,50.72,18.64,51.57ZM26.3,41.45c-.19.18-.54.38-1.55.38-.11,0-2.67,0-3.43-1s-.39-4.5-.29-5.16c.12-.83.27-1.2.57-1.42a7.19,7.19,0,0,1,3-.65,2,2,0,0,1,1.69.6C27,35,27.1,40.71,26.3,41.45Zm8-.18c-.58.46-2.64.47-2.88.47-1.4,0-2-.21-2.28-.76s-.63-6.15.57-6.84a5.7,5.7,0,0,1,2.22-.35c1.81,0,2.12.43,2.26.61C34.5,34.89,35.14,40.58,34.26,41.27Zm8.37-.45c-.6.78-3,.79-3.07.79-1.23,0-1.66-.29-1.88-.5-.91-.9-.56-5.36-.55-5.41.1-1,.27-1.41.63-1.65a2.41,2.41,0,0,1,1.33-.26,7.4,7.4,0,0,1,2.85.52c.37.2.6.62.77,1.4C42.91,36.66,43.21,40.08,42.63,40.82Zm2.15-2s-.06-3.43.69-4.19,2.63-.77,3.28-.77c1,0,1.51.16,1.82.53.71.83.57,5.88,0,6.65-.21.28-.66.61-2.22.61-.38,0-2.34,0-3-.65C45.07,40.75,44.81,40.32,44.78,38.81ZM51.2,51.64c-.22.34-.65.65-2.32.65-1.16,0-3.18-.12-3.61-1s-.14-6.14.66-6.88a2,2,0,0,1,1.38-.37,6.85,6.85,0,0,1,3.47.86C51.64,45.72,51.68,50.88,51.2,51.64Zm1.85-17.59c.16-.16.41-.41,2.39-.41,2.61,0,3,.48,3.15.69.67.86.51,6.12.24,6.63-.13.25-.37.7-2.58.7-1.63,0-2.65-.26-3-.77C52.57,40.09,52.45,34.65,53.05,34.05Zm6.41,15.07c-.1,1.87-.32,2.2-.58,2.42-.66.55-2.93.56-3,.56-1.61,0-2.06-.36-2.28-.67-.47-.68-.9-6.08,0-6.93.23-.21.65-.43,2-.43.11,0,2.8,0,3.45.67S59.51,48,59.46,49.12Z"/><path class="cls-6" d="M8.85,50.79l-.49,0a5.47,5.47,0,0,1-2.66-.53c-.38-.53-.12-3.79.21-4.37a3.26,3.26,0,0,1,1.53-.3,1.77,1.77,0,0,1,1,.21A15.46,15.46,0,0,1,8.85,50.79Z"/><path class="cls-6" d="M17.35,50.77a3,3,0,0,1-.85.09,7.18,7.18,0,0,1-2.45-.4,13.39,13.39,0,0,1,.17-4.64,5.51,5.51,0,0,1,1.47-.14,9.68,9.68,0,0,1,1.69.13A21,21,0,0,1,17.35,50.77Z"/><path class="cls-6" d="M50,50.71a5.38,5.38,0,0,1-1.08.08,8.82,8.82,0,0,1-2.28-.26A22.07,22.07,0,0,1,47,45.6l.33,0a7.12,7.12,0,0,1,2.41.44A17.78,17.78,0,0,1,50,50.71Z"/><path class="cls-6" d="M57.82,50.4a8.89,8.89,0,0,1-2,.2,4.31,4.31,0,0,1-1.06-.1,17.26,17.26,0,0,1-.13-4.87,4.9,4.9,0,0,1,.91-.06,10.22,10.22,0,0,1,2.31.24A20.11,20.11,0,0,1,57.82,50.4Z"/><path class="cls-6" d="M57.53,40.07a7,7,0,0,1-1.28.09,5.72,5.72,0,0,1-1.87-.22,20.77,20.77,0,0,1-.17-4.75c.26,0,.68,0,1.23,0a8.18,8.18,0,0,1,2,.17A27,27,0,0,1,57.53,40.07Z"/><path class="cls-6" d="M49.38,40.05a4.44,4.44,0,0,1-1,.09,6.71,6.71,0,0,1-2-.24,12.47,12.47,0,0,1,.17-4.22,7.09,7.09,0,0,1,2.19-.33,2.94,2.94,0,0,1,.67,0A18.48,18.48,0,0,1,49.38,40.05Z"/><path class="cls-6" d="M41.42,39.86a6.53,6.53,0,0,1-1.86.25,4.85,4.85,0,0,1-.79-.06,15.59,15.59,0,0,1-.08-4.74l.4,0a6.86,6.86,0,0,1,2,.3A13,13,0,0,1,41.42,39.86Z"/><path class="cls-6" d="M33.19,40.1a11.24,11.24,0,0,1-1.81.14,5.55,5.55,0,0,1-.93-.06,21.61,21.61,0,0,1,.1-4.78,7.14,7.14,0,0,1,1.34-.11,5.11,5.11,0,0,1,1,.08A25.35,25.35,0,0,1,33.19,40.1Z"/><path class="cls-6" d="M25.22,40.31l-.47,0a5.49,5.49,0,0,1-2.22-.39,13.32,13.32,0,0,1,.06-4.53,8.09,8.09,0,0,1,2.06-.32,2.12,2.12,0,0,1,.48,0A20.24,20.24,0,0,1,25.22,40.31Z"/><path class="cls-6" d="M17.53,40a9,9,0,0,1-1.56.12,4.94,4.94,0,0,1-1.64-.19A16.82,16.82,0,0,1,14,35.36a6.15,6.15,0,0,1,.92,0A9.88,9.88,0,0,1,17,35.5,25.77,25.77,0,0,1,17.53,40Z"/><path class="cls-6" d="M9.19,40.07A9.18,9.18,0,0,1,8,40.14a6.26,6.26,0,0,1-1.9-.21,23.89,23.89,0,0,1-.08-4.67h.7A14.52,14.52,0,0,1,9,35.38,24.39,24.39,0,0,1,9.19,40.07Z"/><path class="cls-1" d="M60.85,58.65a.74.74,0,0,1-.49.18.76.76,0,0,1-.57-.26,7.06,7.06,0,0,1-1.62-3.93.75.75,0,0,1,1.5-.11,5.33,5.33,0,0,0,1,2.74,3.92,3.92,0,0,0,.25.32A.75.75,0,0,1,60.85,58.65Z"/><path class="cls-1" d="M33.14,22.87a2,2,0,0,1,0,.24.76.76,0,0,1-.73.59h-.16a.76.76,0,0,1-.58-.89s0,0,0,0a5.43,5.43,0,0,0,0-2.27.75.75,0,0,1,1.47-.32A7,7,0,0,1,33.14,22.87Z"/><path class="cls-1" d="M34.43,25.51a.78.78,0,0,1-.49.18.76.76,0,0,1-.57-.26l-1.62-1.87a.73.73,0,0,1-.12-.76s0,0,0,0a.79.79,0,0,1,.19-.26.75.75,0,0,1,1.06.08l.25.29,1.36,1.58A.76.76,0,0,1,34.43,25.51Z"/></g></g></svg>