<svg xmlns="http://www.w3.org/2000/svg" viewBox="0 0 336.21 345.52"><defs><style>.cls-1{fill:#9e4299;}.cls-2,.cls-3,.cls-4{fill:#4d4d4d;}.cls-3{font-size:20px;}.cls-3,.cls-4{font-family:Ubuntu-Bold, Ubuntu;font-weight:700;}.cls-4{font-size:19.83px;}</style></defs><g id="Capa_2" data-name="Capa 2"><g id="Capa_1-2" data-name="Capa 1"><path class="cls-1" d="M116.91,120.91c-9,.65-16.85,2.38-24.81.5a20.65,20.65,0,0,1-13.56-10.15c-1.29-2.21-1.89-3.93,1.77-4.24,7.42-.62,14.79-2.48,22.29-.87a19.9,19.9,0,0,1,14.15,10.77c-4-.28-6.78-3.83-11-2.35C109.58,116.27,113.43,117.24,116.91,120.91Z"/><path class="cls-1" d="M219.88,117.59c-2.26-.31-.6-1.46-.29-2a21.3,21.3,0,0,1,17.7-10.35c6-.32,11.9.76,17.84,1.23,3.77.3,3.9,2.1,2.13,4.88a21.26,21.26,0,0,1-18.21,10.41c-5.78.15-11.57-.55-17.36-.89-1.86-.11-2.51-.78-1-2.33,5.34-4.46,9.39-4.65,14.81-4.8A17.56,17.56,0,0,0,219.88,117.59Z"/><path class="cls-1" d="M87.51,99.52c-7.1,1.83-13.28-.39-17.77-6.51C68.84,91.78,66,88.3,66,88.3s3.64.29,5.52.21c5.12-.22,10.1-1.2,15.37-.26,5.75,1,11.78,6.26,12.5,9.77C99.4,98,95.08,97.48,87.51,99.52Z"/><path class="cls-1" d="M240.58,74.32c-.15-5.82,1.42-10.85,6.68-14.1,1.08-.66,2.75-1.7,2.92.63.4,5.56,2,11.2-.57,16.68a12.24,12.24,0,0,1-3.32,4.31c-3,2.42-4.55,1.78-5.22-2.07-.14-.82-.28-1.64-.35-2.46C240.64,76.32,240.62,75.32,240.58,74.32Z"/><path class="cls-1" d="M93.6,75.72a8.18,8.18,0,0,1,0,2.31c-.49,1.72,1.14,4.33-1.61,5.09s-4.23-1.38-5.6-3.23c-4.43-6-2.77-12.64-1.84-19.13.35-2.5,2.08-.86,2.94-.32C93.1,64,94.2,69.45,93.6,75.72Z"/><path class="cls-1" d="M231.67,69.16c-1-3.58.82-7.68.82-7.68a35.85,35.85,0,0,0-6.49,4c-7.42,6.1-10.33,19.49-5.76,30.21,1.81-1.6,2.53-3.85,3.61-5.86,2.7-6,.24-11.41,1.91-15.2a2.25,2.25,0,0,1,.26.09c-.54,3.87,1.25,10.41-1.29,15.87-.52,1.5-1.89,5.49-2.13,5.91,0,0,.75-.34,1.29-.65a17.25,17.25,0,0,0,9.34-14.52A34.85,34.85,0,0,0,231.67,69.16Z"/><path class="cls-2" d="M183.52,122a15.06,15.06,0,1,1-30.11-.11,15.06,15.06,0,0,1,30.11.11Z"/><path class="cls-2" d="M268.86,162.78c-6.65,4.21-13.76,4.36-21.17,2.63s-14.46-4.91-21.54-7.77c-9-3.62-18-6.91-27.86-7.14-1,0-2.72.81-2.78-.91s1.48-2,2.94-1.92c1,.05,2,.14,3,.2,11,.76,20.94,5,31,9,7,2.75,14,5.34,21.57,5.87,6.55.47,12.58-.74,17.43-5.65,1.71-1.74,2.59-3.54,1.44-6-9.69,5.56-14.18,6.92-20.76,6a67.86,67.86,0,0,1-14.78-4.39c-12.05-4.67-23.79-10.31-37.57-11.52C210,123.78,221.38,108,235.26,94c0,0,1.79-1.57,2-1.84l3.94-4.3c-1.09-1-51.28,39.93-67.65,63.38-1.67,2.38-3.43,4.69-5.24,7.16C149.87,130.47,126.27,108.61,99,90.52h0l-1.1-.67c-.41-.47-.83-.92-1.42-.21l.94.72,1,1c14.49,15.31,28.16,31.24,39,49.93-13.4,1.35-25.08,6.68-37,11.39-7.63,3-15.46,5-23.85,3.84-4.77-.66-8.27-4-12.55-5.58-1.12,3,0,4.9,2.11,6.66,5,4.21,10.84,5.55,17.23,5,9.29-.74,17.69-4.43,26.15-7.89,9-3.68,18.17-6.45,27.91-7.15,2.47-.17,4.66-.14,4.91,3.43-9.76-.34-18.84,2.17-27.77,5.35-7.51,2.67-14.72,6.18-22.46,8.22-9.79,2.59-19.12,2.76-27.15-4.71-.51-.48-1.1-.71-2.1,0,5.95,8,14.11,10.44,23.51,9.87,8.36-.49,16.33-3,24.4-5,11-2.72,22.1-5,33.53-2.45,3.09.68,5.22,1.94,6.35,5.34,2.1,6.32,4.13,12.61,5.08,19.22a196.93,196.93,0,0,1,1.76,35.36c-.74,25.95-3.58,39.92-7.18,65.7-.66,4.76,1.68,7.64,6.89,8.64a71.41,71.41,0,0,0,19.42.67c8.21-.68,10-3.06,9.33-11.25-2.87-33.36-4.68-46.89-6.14-80.32-.38-8.58,1.22-23.88,3.75-32,3.84-12.35,6.8-12.8,19.71-12.55,9.94.19,19.29,3.35,28.82,5.63,8.91,2.14,17.83,4.39,27.1,2.59,4.71-.91,9.07-2.57,12.34-6.65-.69-.23-1-.45-1.3-.4A3.85,3.85,0,0,0,268.86,162.78Z"/><path class="cls-1" d="M249.46,99.52c7.1,1.83,13.28-.39,17.77-6.51.9-1.23,3.73-4.71,3.73-4.71s-3.64.29-5.52.21c-5.12-.22-10.1-1.2-15.37-.26-5.75,1-11.78,6.26-12.5,9.77C237.57,98,241.89,97.48,249.46,99.52Z"/><path class="cls-1" d="M106.35,69.16c1-3.58-.82-7.68-.82-7.68a35.85,35.85,0,0,1,6.49,4c7.42,6.1,10.33,19.49,5.76,30.21-1.81-1.6-2.53-3.85-3.61-5.86-2.7-6-.24-11.41-1.91-15.2a2.25,2.25,0,0,0-.26.09c.54,3.87-1.25,10.41,1.29,15.87.52,1.5,1.89,5.49,2.13,5.91,0,0-.75-.34-1.29-.65a17.25,17.25,0,0,1-9.34-14.52A34.85,34.85,0,0,1,106.35,69.16Z"/><text class="cls-3" transform="translate(41.45 83.79) rotate(-53.62)">I</text><text class="cls-3" transform="translate(44.95 78.79) rotate(-49.75)">N</text><text class="cls-3" transform="translate(54.59 67.5) rotate(-44.94)">S</text><text class="cls-3" transform="matrix(0.76, -0.65, 0.65, 0.76, 62.36, 59.7)">T</text><text class="cls-3" transform="matrix(0.79, -0.61, 0.61, 0.79, 71.55, 51.87)">I</text><text class="cls-3" transform="matrix(0.83, -0.56, 0.56, 0.83, 76.35, 48.09)">T</text><text class="cls-3" transform="translate(86.27 41.32) rotate(-29.29)">U</text><text class="cls-3" transform="matrix(0.91, -0.41, 0.41, 0.91, 98.37, 34.55)">T</text><text class="cls-3" transform="matrix(0.94, -0.33, 0.33, 0.94, 108.83, 29.67)">O</text><text class="cls-3" transform="translate(123.57 24.62) rotate(-15.79)"> </text><text class="cls-3" transform="translate(127.99 23.26) rotate(-12.67)">T</text><text class="cls-3" transform="translate(139.72 20.62) rotate(-8.24)">É</text><text class="cls-3" transform="translate(151.45 18.89) rotate(-3.72)">C</text><text class="cls-3" transform="translate(164.08 18.01) rotate(1.28)">N</text><text class="cls-3" transform="translate(178.96 18.49) rotate(5.12)">I</text><text class="cls-3" transform="translate(185.08 18.93) rotate(8.61)">C</text><text class="cls-3" transform="matrix(0.97, 0.24, -0.24, 0.97, 197.13, 20.65)">O</text><text class="cls-3" transform="translate(212.22 24.5) rotate(17.41)"> </text><text class="cls-3" transform="matrix(0.94, 0.35, -0.35, 0.94, 216.66, 25.79)">S</text><text class="cls-3" transform="translate(227.34 29.7) rotate(25.1)">U</text><text class="cls-3" transform="matrix(0.87, 0.5, -0.5, 0.87, 239.88, 35.59)">P</text><text class="cls-3" transform="matrix(0.82, 0.57, -0.57, 0.82, 250.8, 41.9)">E</text><text class="cls-3" transform="translate(260.6 48.61) rotate(39.13)">R</text><text class="cls-3" transform="matrix(0.74, 0.68, -0.68, 0.74, 270.72, 56.97)">I</text><text class="cls-3" transform="matrix(0.69, 0.73, -0.73, 0.69, 275.32, 60.97)">O</text><text class="cls-3" transform="translate(285.92 72.25) rotate(51.88)">R</text><text class="cls-4" transform="translate(61.62 303.28) rotate(37.12)">C</text><text class="cls-4" transform="matrix(0.84, 0.54, -0.54, 0.84, 72.41, 311.4)">E</text><text class="cls-4" transform="translate(83.12 318.26) rotate(28.13)">R</text><text class="cls-4" transform="translate(95.42 324.81) rotate(23.37)">R</text><text class="cls-4" transform="matrix(0.94, 0.34, -0.34, 0.94, 108.11, 330.15)">I</text><text class="cls-4" transform="matrix(0.96, 0.28, -0.28, 0.96, 114.46, 332.52)">T</text><text class="cls-4" transform="matrix(0.98, 0.2, -0.2, 0.98, 126.39, 336.12)">O</text><text class="cls-4" transform="translate(142.31 339.19) rotate(7.94)"> </text><text class="cls-4" transform="translate(147.33 339.91) rotate(5.88)">-</text><text class="cls-4" transform="translate(154.33 340.6) rotate(3.83)"> </text><text class="cls-4" transform="translate(159.52 341.02) rotate(0.93)">E</text><text class="cls-4" transform="translate(172.26 341.26) rotate(-3.91)">N</text><text class="cls-4" transform="matrix(0.99, -0.15, 0.15, 0.99, 187.95, 340.09)">T</text><text class="cls-4" transform="translate(200.68 338.12) rotate(-13.37)">R</text><text class="cls-4" transform="translate(214.19 334.86) rotate(-17.93)">E</text><text class="cls-4" transform="matrix(0.93, -0.36, 0.36, 0.93, 226.03, 330.91)"> </text><text class="cls-4" transform="translate(230.97 329.14) rotate(-24.22)">R</text><text class="cls-4" transform="translate(243.47 323.37) rotate(-27.74)">Í</text><text class="cls-4" transform="translate(249.61 320.31) rotate(-31.68)">O</text><text class="cls-4" transform="matrix(0.8, -0.6, 0.6, 0.8, 263.5, 311.6)">S</text><path class="cls-2" d="M277.24,288.87l2.74,2.91A162.94,162.94,0,0,0,306.14,86l-3.23,2.37a159,159,0,0,1-25.67,200.48Z"/><path class="cls-2" d="M57.81,293.24l2.7-2.94A158.94,158.94,0,0,1,33.17,88.61l-3.24-2.37a162.93,162.93,0,0,0,27.88,207Z"/></g></g></svg>