<?xml version="1.0" encoding="utf-8"?>
<!-- Generator: Adobe Illustrator 24.1.1, SVG Export Plug-In . SVG Version: 6.00 Build 0)  -->
<svg version="1.1" id="Layer_1" xmlns="http://www.w3.org/2000/svg" xmlns:xlink="http://www.w3.org/1999/xlink" x="0px" y="0px"
	 viewBox="0 0 345 70" style="enable-background:new 0 0 345 70;" xml:space="preserve">
<style type="text/css">
	.st0{fill:#373684;}
	.st1{fill:#DFF7FF;}
	.st2{fill:#F40059;}
	.st3{fill:#FFE42A;}
	.st4{fill:#FFFFFF;}
	.st5{fill:#4AA0FF;}
	.st6{fill:#333333;}
</style>
<g>
	<path class="st0" d="M36.2,33.4c-3,0-5.4-2.2-5.7-5c-0.2-2.7,1.6-5.8,4.8-6.1c3-0.3,5.7,2.3,5.8,5.6c0.1,1.6-0.4,3-1.4,4
		C38.9,32.9,37.6,33.4,36.2,33.4z M35.9,23.8c-0.1,0-0.2,0-0.3,0c-2.3,0.2-3.6,2.5-3.5,4.5c0.2,2,2,3.6,4.2,3.6c1,0,1.9-0.3,2.5-1
		c0.7-0.7,1-1.7,1-2.9C39.6,25.6,37.9,23.8,35.9,23.8z"/>
	<path class="st0" d="M11.8,57C11.6,57,9,57,8,56c-1.1-1.1-0.5-5.5,0.2-6.4c0.5-0.7,1.9-0.8,2.7-0.8c0.8,0,1.8,0.2,2.3,0.9
		c0.6,0.9,1.1,6.2,0.2,6.9C13.1,56.8,12.8,57,11.8,57z M10.8,50.3c-0.8,0-1.4,0.2-1.5,0.3C9,51.2,8.7,54.4,9.1,55
		c0.2,0.2,1.5,0.5,2.7,0.5c0.2,0,0.4,0,0.5,0c0.2-1.1,0-4.4-0.4-5C11.8,50.5,11.5,50.3,10.8,50.3z"/>
	<path class="st0" d="M31.3,66.5c-0.3,0-0.6-0.2-0.7-0.5c-0.4-1.3-1.1-11.6,0.3-12.4c0.8-0.5,6.8-1,8.3-0.5c0.1,0,0.5,0.2,0.7,0.5
		c0.3,0.5,0.6,11.5-0.2,12.4c-0.3,0.3-0.8,0.3-1.1,0.1c-0.3-0.2-0.3-0.6-0.2-0.9c0.3-1,0.3-8.9,0.1-10.7c-1.2-0.2-5.6,0.1-6.8,0.4
		c-0.4,1.5-0.3,9,0.2,10.7c0.1,0.4-0.1,0.8-0.5,0.9C31.4,66.4,31.3,66.5,31.3,66.5z"/>
	<path class="st0" d="M11.4,46.3c-2.8,0-3.1-0.7-3.2-0.9c-0.4-0.9-0.4-5.4-0.1-6.3c0.1-0.3,0.3-0.4,0.5-0.5c0.1,0,0.3-0.1,1.6-0.1
		c2.8,0,3.2,0.4,3.3,0.5c0.8,0.7,0.6,5.6,0.6,5.6c0,0.7-0.1,1.1-0.5,1.4C13.5,46.1,13.2,46.3,11.4,46.3z M9.5,44.6
		c0.2,0.1,0.9,0.2,1.9,0.2c0.5,0,0.9,0,1.2-0.1c0.1-1,0-3.8-0.2-4.7c-0.4-0.1-1.2-0.1-2.2-0.1c-0.3,0-0.5,0-0.7,0
		C9.3,41,9.4,43.8,9.5,44.6z"/>
	<path class="st0" d="M19.4,46.3c-2.3,0-2.7-0.6-2.9-0.8c-0.5-0.7-1.1-6-0.1-6.7c0.1-0.1,0.4-0.3,1.9-0.3c1.2,0,2.7,0.1,3.2,0.6
		c0.7,0.7,1.1,5.8,0.8,6.4C22.2,45.7,21.9,46.3,19.4,46.3z M17.7,44.6c0.2,0.1,0.7,0.2,1.6,0.2c0.7,0,1.2-0.1,1.6-0.1
		c0-1-0.3-3.7-0.5-4.5c-0.3-0.1-1.1-0.2-2.1-0.2c-0.4,0-0.7,0-0.9,0C17.3,41,17.5,43.9,17.7,44.6z"/>
	<path class="st0" d="M28.1,46.5c-0.1,0-2.7,0-3.4-1c-0.7-1-0.4-4.5-0.3-5.2c0.1-0.8,0.3-1.2,0.6-1.4c0.5-0.4,2.1-0.7,3-0.7
		c0.8,0,1.4,0.2,1.7,0.6c0.6,0.9,0.8,6.5,0,7.3C29.5,46.3,29.2,46.5,28.1,46.5z M26,40.1c-0.2,0.9-0.3,4-0.1,4.5
		c0.2,0.1,1.1,0.4,2.2,0.4c0.2,0,0.4,0,0.5,0c0.2-1,0.2-4.4-0.1-5.2c-0.1,0-0.2,0-0.5,0C27.3,39.8,26.4,40,26,40.1z"/>
	<path class="st0" d="M34.8,46.4c-1.4,0-2-0.2-2.3-0.8c-0.2-0.4-0.6-6.2,0.6-6.8c0.6-0.3,1.8-0.4,2.2-0.4c1.8,0,2.1,0.4,2.3,0.6
		c0.4,0.5,1,6.2,0.1,6.9C37.1,46.4,35,46.4,34.8,46.4z M33.8,44.9c0.2,0,0.5,0.1,0.9,0.1c0.7,0,1.4-0.1,1.8-0.1
		c0.1-1-0.1-3.9-0.3-4.7c-0.2,0-0.5-0.1-1-0.1c-0.6,0-1.1,0.1-1.3,0.1C33.7,40.9,33.7,43.9,33.8,44.9z"/>
	<path class="st0" d="M43,46.3c-1.2,0-1.7-0.3-1.9-0.5c-0.9-0.9-0.6-5.4-0.6-5.4c0.1-1,0.3-1.4,0.6-1.6c0.2-0.1,0.5-0.3,1.3-0.3
		c0.9,0,2.2,0.2,2.8,0.5c0.4,0.2,0.6,0.6,0.8,1.4c0.2,1,0.5,4.4-0.1,5.1C45.4,46.3,43.1,46.3,43,46.3z M42.2,44.7
		c0.1,0,0.3,0.1,0.8,0.1c0.8,0,1.5-0.1,1.9-0.2c0.2-0.9,0-3.6-0.3-4.3c-0.4-0.1-1.3-0.3-2-0.3c-0.2,0-0.3,0-0.4,0
		C41.9,40.9,41.9,44,42.2,44.7z"/>
	<path class="st0" d="M19.9,57.1c-0.8,0-3.1-0.2-3.7-1c-0.6-0.9-0.5-5.9,0.4-6.7c0.2-0.1,0.6-0.5,2.5-0.5c0.8,0,2.3,0.1,2.8,0.5
		c0.7,0.7,0.6,6,0.1,6.9C21.7,56.8,21.1,57.1,19.9,57.1z M17.4,55.2c0.3,0.2,1.4,0.4,2.4,0.4c0.5,0,0.7-0.1,0.9-0.1
		c0.2-0.8,0.2-4,0-5c-0.3-0.1-0.9-0.1-1.7-0.1c-0.9,0-1.3,0.1-1.5,0.1C17.3,51.3,17.2,54.4,17.4,55.2z"/>
	<path class="st0" d="M52.3,57c-1.2,0-3.2-0.1-3.6-1c-0.4-0.8-0.1-6.1,0.7-6.9c0.3-0.3,0.7-0.4,1.4-0.4c0.9,0,2.8,0.3,3.5,0.9
		c0.9,0.8,0.9,5.9,0.4,6.7C54.4,56.7,53.9,57,52.3,57z M50,55.2c0.4,0.1,1.3,0.3,2.3,0.3c0.6,0,0.9,0,1.1-0.1c0.1-0.8,0-4-0.2-4.7
		c-0.3-0.2-1.5-0.4-2.4-0.4c-0.2,0-0.3,0-0.3,0C50.1,51.2,49.9,54.3,50,55.2z"/>
	<path class="st0" d="M51.7,46.3c-0.4,0-2.3,0-3-0.7c-0.3-0.2-0.5-0.7-0.5-2.2c0,0-0.1-3.4,0.7-4.2c0.6-0.6,2.6-0.8,3.3-0.8
		c0.9,0,1.5,0.2,1.8,0.5c0.7,0.8,0.6,5.9,0,6.7C53.7,46,53.3,46.3,51.7,46.3z M49.8,44.6c0.2,0.1,1,0.2,1.9,0.2c0.6,0,0.9-0.1,1-0.1
		c0.2-0.7,0.3-3.8,0-4.6c-0.1,0-0.3-0.1-0.7-0.1c-0.9,0-1.9,0.2-2.2,0.3C49.7,41.1,49.6,43.9,49.8,44.6z"/>
	<path class="st0" d="M59.6,46.4c-1.6,0-2.6-0.3-3-0.8c-0.6-0.8-0.7-6.2-0.1-6.8c0.2-0.2,0.4-0.4,2.4-0.4c2.6,0,3,0.5,3.1,0.7
		c0.7,0.9,0.5,6.1,0.2,6.6C62.1,45.9,61.9,46.4,59.6,46.4z M57.8,44.6c0.2,0.1,0.8,0.2,1.9,0.2c0.6,0,1,0,1.3-0.1
		c0.1-0.9,0.1-3.9-0.1-4.8c-0.3-0.1-0.9-0.2-2-0.2c-0.6,0-1,0-1.2,0.1C57.5,41,57.5,43.9,57.8,44.6z"/>
	<path class="st0" d="M59.2,56.8c-1.6,0-2.1-0.4-2.3-0.7c-0.5-0.7-0.9-6.1,0-6.9c0.2-0.2,0.7-0.4,2-0.4c0.1,0,2.8,0,3.5,0.7
		c0.6,0.6,0.5,3.3,0.4,4.4c-0.1,1.9-0.3,2.2-0.6,2.4C61.6,56.8,59.3,56.8,59.2,56.8z M58.2,55.2c0.2,0,0.5,0.1,1.1,0.1
		c0.9,0,1.6-0.1,2-0.2c0.2-0.9,0.2-3.7,0.1-4.6c-0.4-0.1-1.3-0.2-2.3-0.2c-0.5,0-0.8,0-0.9,0.1C57.9,51.2,57.9,54.3,58.2,55.2z"/>
	<path class="st0" d="M46.3,50.7c-0.1,0-0.1,0-0.2,0c-2.2-0.5-18.6-1.1-22-0.7c-0.4,0.1-0.8-0.2-0.8-0.6c-0.1-0.4,0.2-0.8,0.6-0.8
		c3.6-0.5,20.1,0.1,22.5,0.7c0.4,0.1,0.7,0.5,0.6,0.9C46.9,50.4,46.6,50.7,46.3,50.7z"/>
	<path class="st0" d="M33,66.9c-1.5,0-2.6,0-2.6,0c-3.6-0.1-3.8-0.4-4.1-0.7c-0.9-1.1-0.1-15.6,0-16.7c0.1-0.4,0.4-0.7,0.8-0.6
		c0.4,0.1,0.7,0.4,0.6,0.8c-0.3,2.2-0.7,13.5-0.3,15.5c2.1,0.4,13.3,0.2,15.2-0.3c0.2-1.5,0-8.5-0.4-14.9c0-0.4,0.3-0.8,0.7-0.8
		c0.4,0,0.8,0.3,0.8,0.7c1,15,0.3,15.7,0.1,16C43.1,66.8,36.7,66.9,33,66.9z"/>
	<path class="st0" d="M23.2,36.5c-9.7,0-17.5-0.1-18.4-0.5c-0.4-0.1-0.6-0.6-0.5-1c0.1-0.4,0.6-0.6,1-0.5C7.4,35.3,61.5,35,65,34.3
		c0.4-0.1,0.8,0.2,0.9,0.6c0.1,0.4-0.2,0.8-0.6,0.9C63.5,36.1,40.4,36.5,23.2,36.5z"/>
	<path class="st0" d="M14.6,36c-0.1,0-0.3,0-0.4-0.1c-0.3-0.2-0.4-0.7-0.2-1c0.8-1.3,19.3-18.9,22-18.9c0,0,0,0,0.1,0
		c2.3,0.3,19,16.8,20,18.7c0.2,0.4,0.1,0.8-0.3,1c-0.4,0.2-0.8,0.1-1-0.3C53.5,33.1,38,18.4,35.9,17.5c-2.3,0.8-19.3,16-20.7,18.2
		C15,35.9,14.8,36,14.6,36z"/>
	<path class="st0" d="M35.7,17.5c-0.4,0-0.7-0.3-0.7-0.7L34.5,5.9c0-0.4,0.3-0.8,0.7-0.8c0.4,0,0.8,0.3,0.8,0.7l0.5,10.9
		C36.5,17.2,36.1,17.5,35.7,17.5C35.7,17.5,35.7,17.5,35.7,17.5z"/>
	<path class="st0" d="M42,13.4c-2.6,0-6.2-0.4-6.2-0.5c-0.4-0.1-0.7-0.5-0.6-0.9c0.1-0.4,0.5-0.7,0.9-0.6c1.1,0.2,5.1,0.5,6.9,0.4
		c-0.1-0.2-0.3-0.4-0.4-0.6c-0.9-1.3-1.4-2.1-1.4-2.8c0.1-0.5,0.4-1,0.7-1.6c0.1-0.2,0.2-0.4,0.4-0.6c-1.4-0.1-4.9,0-6.8,0.4
		c-0.4,0.1-0.8-0.2-0.9-0.6c-0.1-0.4,0.2-0.8,0.6-0.9c1.2-0.2,7.6-0.9,8.5,0c0.6,0.6,0.1,1.5-0.4,2.5C43,8,42.7,8.5,42.7,8.7
		c0,0.2,0.7,1.2,1.1,1.7c0.7,0.9,1,1.4,1,1.8l0,0.4L44.6,13C44.3,13.3,43.3,13.4,42,13.4z"/>
	<path class="st0" d="M51.1,64.4c-3.8,0-7-0.2-7.7-0.9c-0.3-0.3-0.3-0.7-0.1-1.1c0.3-0.3,0.7-0.3,1.1-0.1c1.3,0.8,17.3,0.7,20-0.5
		c1.9-1.3,1.3-23.4,0.4-27.2c-0.6-2.6-5.6-9.6-6.6-10.1C57.2,24,48,24,44.6,24.2c-0.4,0-0.8-0.3-0.8-0.7c0-0.4,0.3-0.8,0.7-0.8
		c2-0.1,12.8-0.4,14.4,0.5c1.6,0.9,6.7,8.3,7.3,11.1c0.5,2,2.2,27.4-1.3,28.9C63.5,63.9,56.7,64.4,51.1,64.4z"/>
	<path class="st0" d="M12.9,64.4c-3.7,0-6.7-0.3-7.4-1.1c-1.5-2-2.5-26.5-2-28.6c0.6-2.3,4.2-10.3,8.1-11.6
		c2.8-0.9,8.2-0.8,12.2-0.8c1.3,0,2.4,0,3.2,0c0.4,0,0.8,0.3,0.8,0.7c0,0.4-0.3,0.8-0.7,0.8c-0.8,0-1.9,0-3.2,0
		c-3.8-0.1-9.1-0.1-11.7,0.7C9,25.6,5.5,32.9,5,35.1c-0.5,2,0.7,25.6,1.8,27.4c1,0.8,10.9,0.5,19.4-0.2c0.4,0,0.8,0.3,0.8,0.7
		c0,0.4-0.3,0.8-0.7,0.8C22.4,64.1,17.2,64.4,12.9,64.4z"/>
	<path class="st0" d="M56.2,27.4c-0.3,0-0.5-0.2-0.7-0.4c-0.2-0.4,0-0.8,0.4-1c0.6-0.3,1.3-0.5,1.9-0.7c0.6-0.2,1.1-0.4,1.7-0.6
		c0.4-0.2,0.8,0,1,0.4c0.2,0.4,0,0.8-0.4,1c-0.6,0.3-1.3,0.5-1.9,0.7c-0.6,0.2-1.1,0.4-1.7,0.6C56.4,27.4,56.3,27.4,56.2,27.4z"/>
	<path class="st0" d="M57.9,29.5c-0.3,0-0.5-0.2-0.7-0.4c-0.2-0.4,0-0.8,0.4-1c0.6-0.3,1.2-0.5,1.8-0.8c0.6-0.2,1.2-0.5,1.7-0.7
		c0.4-0.2,0.8,0,1,0.4c0.2,0.4,0,0.8-0.4,1c-0.6,0.3-1.2,0.5-1.8,0.8c-0.6,0.2-1.2,0.5-1.7,0.7C58.1,29.5,58,29.5,57.9,29.5z"/>
	<path class="st0" d="M59.5,31.7c-0.3,0-0.5-0.1-0.7-0.4c-0.2-0.4-0.1-0.8,0.3-1c0.5-0.3,1-0.5,1.5-0.7c0.5-0.2,1-0.4,1.4-0.7
		c0.4-0.2,0.8-0.1,1,0.3c0.2,0.4,0.1,0.8-0.3,1c-0.5,0.3-1,0.5-1.6,0.7c-0.5,0.2-1,0.4-1.4,0.7C59.7,31.6,59.6,31.7,59.5,31.7z"/>
	<path class="st0" d="M61.5,33.5c-0.3,0-0.6-0.2-0.7-0.5c-0.2-0.4,0-0.8,0.4-1c0.3-0.1,0.6-0.3,0.8-0.4c0.5-0.2,1-0.5,1.6-0.6
		c0.4-0.1,0.8,0.2,0.9,0.6c0.1,0.4-0.2,0.8-0.6,0.9c-0.4,0.1-0.7,0.2-1.2,0.5c-0.3,0.1-0.6,0.3-0.9,0.4
		C61.7,33.5,61.6,33.5,61.5,33.5z"/>
	<path class="st0" d="M9.6,63.7c-0.4,0-0.7-0.2-0.7-0.6c-0.2-0.8-0.4-1.6-0.7-2.4c-0.2-0.4,0-0.8,0.4-1c0.4-0.2,0.8,0,1,0.4
		c0.4,0.9,0.6,1.8,0.8,2.7c0.1,0.4-0.2,0.8-0.6,0.9C9.7,63.7,9.7,63.7,9.6,63.7z"/>
	<path class="st0" d="M13.1,63.8c-0.3,0-0.6-0.2-0.7-0.5l-1-3c-0.1-0.4,0.1-0.8,0.5-0.9c0.4-0.1,0.8,0.1,0.9,0.5l1,3
		c0.1,0.4-0.1,0.8-0.5,0.9C13.2,63.8,13.2,63.8,13.1,63.8z"/>
	<path class="st0" d="M15.9,64c-0.3,0-0.6-0.2-0.7-0.5c-0.2-0.6-0.3-1.1-0.5-1.6c-0.1-0.5-0.3-1-0.4-1.5c-0.1-0.4,0.1-0.8,0.5-1
		c0.4-0.1,0.8,0.1,1,0.5c0.2,0.6,0.3,1.1,0.5,1.6c0.1,0.5,0.3,1,0.4,1.5c0.1,0.4-0.1,0.8-0.5,1C16.1,64,16,64,15.9,64z"/>
	<path class="st0" d="M19,63.6c-0.3,0-0.6-0.2-0.7-0.5c-0.2-0.6-0.4-1-0.6-1.5c-0.2-0.4-0.3-0.9-0.5-1.4c-0.2-0.4,0-0.8,0.4-1
		c0.4-0.2,0.8,0,1,0.4c0.2,0.6,0.4,1,0.6,1.5c0.2,0.4,0.3,0.9,0.5,1.4c0.2,0.4,0,0.8-0.4,1C19.2,63.6,19.1,63.6,19,63.6z"/>
	<path class="st0" d="M22.4,63.4c-0.3,0-0.6-0.2-0.7-0.5c-0.2-0.6-0.3-1.1-0.4-1.6c-0.1-0.4-0.1-0.8-0.3-1.3c-0.1-0.4,0-0.8,0.4-1
		c0.4-0.1,0.8,0,1,0.4c0.2,0.6,0.3,1.1,0.4,1.6c0.1,0.4,0.1,0.8,0.3,1.3c0.1,0.4,0,0.8-0.4,1C22.6,63.4,22.5,63.4,22.4,63.4z"/>
	<path class="st0" d="M47,64.2c-0.3,0-0.7-0.2-0.7-0.6c-0.2-0.9-0.5-1.9-0.9-2.8c-0.2-0.4,0-0.8,0.4-1c0.4-0.2,0.8,0,1,0.4
		c0.4,1,0.7,2,1,3c0.1,0.4-0.2,0.8-0.6,0.9C47.1,64.2,47.1,64.2,47,64.2z"/>
	<path class="st0" d="M50.3,64.1c-0.4,0-0.7-0.3-0.7-0.6c-0.2-1.1-0.5-2.1-1-3.1c-0.2-0.4,0-0.8,0.4-1c0.4-0.2,0.8,0,1,0.4
		c0.5,1.1,0.9,2.3,1.1,3.4c0.1,0.4-0.2,0.8-0.6,0.9C50.4,64.1,50.3,64.1,50.3,64.1z"/>
	<path class="st0" d="M53.7,64.3c-0.3,0-0.6-0.2-0.7-0.5l-1.2-3.5c-0.1-0.4,0.1-0.8,0.5-1c0.4-0.1,0.8,0.1,1,0.5l1.2,3.5
		c0.1,0.4-0.1,0.8-0.5,1C53.8,64.3,53.8,64.3,53.7,64.3z"/>
	<path class="st0" d="M56.8,64c-0.3,0-0.6-0.2-0.7-0.5l-1-3.3c-0.1-0.4,0.1-0.8,0.5-0.9c0.4-0.1,0.8,0.1,0.9,0.5l1,3.3
		c0.1,0.4-0.1,0.8-0.5,0.9C56.9,63.9,56.9,64,56.8,64z"/>
	<path class="st0" d="M60.4,63.7c-0.3,0-0.6-0.2-0.7-0.5L58.4,60c-0.2-0.4,0-0.8,0.4-1c0.4-0.2,0.8,0,1,0.4l1.3,3.2
		c0.2,0.4,0,0.8-0.4,1C60.5,63.7,60.5,63.7,60.4,63.7z"/>
	<path class="st0" d="M63.8,63.5c-0.2,0-0.4-0.1-0.6-0.3c-0.9-1.1-1.5-2.5-1.6-3.9c0-0.4,0.3-0.8,0.7-0.8c0.4,0,0.8,0.3,0.8,0.7
		c0.1,1.1,0.5,2.2,1.3,3.1c0.3,0.3,0.2,0.8-0.1,1.1C64.1,63.5,63.9,63.5,63.8,63.5z"/>
	<path class="st0" d="M35.8,28.4c-0.1,0-0.1,0-0.2,0c-0.4-0.1-0.7-0.5-0.6-0.9c0.2-0.8,0.2-1.6,0-2.3c-0.1-0.4,0.2-0.8,0.6-0.9
		c0.4-0.1,0.8,0.2,0.9,0.6c0.2,1,0.2,2,0,2.9C36.4,28.2,36.1,28.4,35.8,28.4z"/>
	<path class="st0" d="M37.3,30.4c-0.2,0-0.4-0.1-0.6-0.3l-1.6-1.9c-0.3-0.3-0.2-0.8,0.1-1.1c0.3-0.3,0.8-0.2,1.1,0.1l1.6,1.9
		c0.3,0.3,0.2,0.8-0.1,1.1C37.7,30.3,37.5,30.4,37.3,30.4z"/>
</g>
<g>
	<path class="st0" d="M119.7-55.3c-3.3,0.3-5,3.4-4.8,6.1c0.2,2.8,2.7,5,5.7,5c1.4,0,2.7-0.5,3.6-1.5c1-1,1.5-2.4,1.4-4
		C125.4-53,122.8-55.6,119.7-55.3z M123.1-46.7c-0.6,0.7-1.5,1-2.5,1c-2.2,0-4-1.6-4.2-3.6c-0.2-2,1.2-4.3,3.5-4.5
		c0.1,0,0.2,0,0.3,0c2,0,3.7,1.8,3.8,4.2C124.1-48.5,123.7-47.4,123.1-46.7z"/>
	<path class="st1" d="M120.2-53.8c-0.1,0-0.2,0-0.3,0c-2.3,0.2-3.6,2.5-3.5,4.5c0.2,2,2,3.6,4.2,3.6c1,0,1.9-0.3,2.5-1
		c0.7-0.7,1-1.7,1-2.9C123.9-52,122.2-53.8,120.2-53.8z M122.2-47.4c-0.2,0.1-0.3,0.2-0.5,0.2c-0.2,0-0.4-0.1-0.6-0.3l-1.6-1.9
		c-0.2-0.2-0.2-0.5-0.1-0.8c0,0,0,0,0,0c0.1-0.8,0.1-1.5,0-2.3c-0.1-0.4,0.2-0.8,0.6-0.9c0.4-0.1,0.8,0.2,0.9,0.6
		c0.2,0.9,0.2,1.8,0.1,2.7l1.4,1.6C122.5-48.2,122.5-47.7,122.2-47.4z"/>
	<path class="st0" d="M97.5-27.9c-0.5-0.7-1.5-0.9-2.3-0.9c-0.7,0-2.1,0.2-2.7,0.8c-0.7,0.8-1.2,5.3-0.2,6.4c0.9,1,3.6,1,3.8,1
		c1,0,1.4-0.2,1.6-0.4C98.5-21.8,98.1-27,97.5-27.9z M96.6-22.1c-0.1,0-0.3,0-0.5,0c-1.2,0-2.4-0.3-2.7-0.5
		c-0.4-0.5-0.1-3.8,0.2-4.4c0.1-0.1,0.8-0.3,1.5-0.3c0.7,0,1,0.2,1,0.2C96.6-26.5,96.7-23.2,96.6-22.1z"/>
	<path class="st0" d="M124.3-12.4c-0.1,0.4-0.2,0.6-0.3,0.8c-0.3,0.3-0.8,0.3-1.1,0c-0.2-0.2-0.3-0.5-0.2-0.7c0-0.1,0-0.1,0.1-0.2
		c0.3-1,0.3-8.9,0.1-10.7c-1.2-0.2-5.6,0.1-6.8,0.4c-0.4,1.5-0.3,8.8,0.2,10.6c0,0,0,0,0,0.1c0.1,0.4-0.1,0.8-0.5,1
		c-0.1,0-0.2,0-0.2,0c-0.3,0-0.6-0.2-0.7-0.5c0-0.1-0.1-0.3-0.1-0.6c-0.4-2.5-0.8-11.1,0.4-11.8c0.8-0.5,6.8-1,8.3-0.5
		c0.1,0,0.5,0.2,0.7,0.6C124.5-23.6,124.8-15.1,124.3-12.4z"/>
	<path class="st0" d="M97.8-38.7c-0.1-0.1-0.5-0.5-3.3-0.5c-1.2,0-1.4,0.1-1.6,0.1c-0.2,0.1-0.4,0.3-0.5,0.5
		c-0.3,0.9-0.3,5.4,0.1,6.3c0.1,0.3,0.5,1,3.2,1c1.7,0,2.1-0.3,2.2-0.4c0.3-0.3,0.4-0.7,0.5-1.4C98.4-33.1,98.5-38,97.8-38.7z
		 M96.9-32.9c-0.2,0-0.6,0.1-1.2,0.1c-1,0-1.7-0.1-1.9-0.2c-0.2-0.8-0.2-3.6-0.1-4.7c0.2,0,0.4,0,0.7,0c1,0,1.8,0.1,2.2,0.1
		C96.9-36.6,97-33.8,96.9-32.9z"/>
	<path class="st0" d="M105.8-38.5c-0.5-0.5-2-0.6-3.2-0.6c-1.5,0-1.8,0.2-1.9,0.3c-1,0.7-0.4,5.9,0.1,6.6c0.1,0.2,0.5,0.8,2.9,0.8
		c2.6,0,2.8-0.6,2.9-0.8C106.9-32.7,106.5-37.8,105.8-38.5z M103.7-32.8c-1,0-1.5-0.1-1.6-0.2c-0.3-0.7-0.5-3.6-0.3-4.5
		c0.2,0,0.5,0,0.9,0c0.9,0,1.7,0.1,2.1,0.2c0.2,0.8,0.5,3.4,0.5,4.5C104.9-32.9,104.4-32.8,103.7-32.8z"/>
	<path class="st0" d="M114.1-38.7c-0.3-0.4-0.9-0.6-1.7-0.6c-1,0-2.5,0.3-3,0.7c-0.3,0.2-0.5,0.6-0.6,1.4c-0.1,0.7-0.4,4.2,0.3,5.2
		c0.8,1,3.3,1,3.4,1c1,0,1.4-0.2,1.6-0.4C114.8-32.2,114.7-37.9,114.1-38.7z M113-32.6c-0.1,0-0.3,0-0.5,0c-1.1,0-2.1-0.3-2.2-0.4
		c-0.3-0.6-0.2-3.7,0.1-4.5c0.4-0.1,1.3-0.3,2.1-0.3c0.3,0,0.4,0,0.5,0C113.1-37,113.2-33.7,113-32.6z"/>
	<path class="st0" d="M121.9-38.5c-0.1-0.2-0.5-0.6-2.3-0.6c-0.4,0-1.7,0-2.2,0.4c-1.2,0.7-0.8,6.4-0.6,6.8c0.2,0.5,0.9,0.8,2.3,0.8
		c0.2,0,2.3,0,2.9-0.5C122.9-32.3,122.2-38,121.9-38.5z M120.9-32.8c-0.4,0.1-1.1,0.1-1.8,0.1c-0.5,0-0.8,0-0.9-0.1
		c-0.1-1-0.1-3.9,0.1-4.8c0.2,0,0.7-0.1,1.3-0.1c0.5,0,0.9,0,1,0.1C120.8-36.7,121-33.8,120.9-32.8z"/>
	<path class="st0" d="M130.4-37.2c-0.2-0.8-0.4-1.2-0.8-1.4c-0.6-0.3-1.9-0.5-2.8-0.5c-0.8,0-1.2,0.2-1.3,0.3
		c-0.4,0.2-0.5,0.7-0.6,1.7c0,0-0.4,4.5,0.5,5.4c0.2,0.2,0.7,0.5,1.9,0.5c0.1,0,2.5,0,3.1-0.8C130.9-32.8,130.6-36.3,130.4-37.2z
		 M129.2-33.1c-0.3,0.1-1.1,0.3-1.9,0.3c-0.4,0-0.7,0-0.8-0.1c-0.3-0.8-0.3-3.8-0.1-4.7c0.1,0,0.2,0,0.4,0c0.8,0,1.6,0.2,2,0.3
		C129.2-36.7,129.3-33.9,129.2-33.1z"/>
	<path class="st0" d="M106.2-28.2c-0.5-0.5-2-0.5-2.8-0.5c-1.9,0-2.3,0.4-2.5,0.5c-0.9,0.8-1,5.8-0.4,6.7c0.6,0.8,2.9,1,3.7,1
		c1.2,0,1.9-0.3,2.1-0.8C106.8-22.2,107-27.5,106.2-28.2z M105.1-22.2c-0.1,0-0.4,0.1-0.9,0.1c-1.1,0-2.1-0.2-2.4-0.4
		c-0.2-0.8-0.2-3.9,0.2-4.6c0.2,0,0.6-0.1,1.5-0.1c0.8,0,1.4,0.1,1.7,0.1C105.3-26.1,105.3-22.9,105.1-22.2z"/>
	<path class="st0" d="M138.5-28c-0.7-0.6-2.6-0.9-3.5-0.9c-0.7,0-1.1,0.1-1.4,0.4c-0.8,0.7-1.1,6.1-0.7,6.9c0.4,0.8,2.5,1,3.6,1
		c1.7,0,2.1-0.3,2.3-0.6C139.4-22,139.4-27.2,138.5-28z M137.7-22.2c-0.2,0-0.5,0.1-1.1,0.1c-1,0-1.9-0.1-2.3-0.3
		c-0.1-0.9,0.1-4,0.4-4.9c0.1,0,0.2,0,0.3,0c0.9,0,2.1,0.3,2.4,0.4C137.7-26.2,137.8-23,137.7-22.2z"/>
	<path class="st0" d="M138.3-38.5c-0.3-0.4-0.9-0.5-1.8-0.5c-0.6,0-2.7,0.1-3.3,0.8c-0.8,0.8-0.7,4.2-0.7,4.2c0,1.5,0.3,1.9,0.5,2.2
		c0.7,0.6,2.6,0.7,3,0.7c1.6,0,2-0.3,2.2-0.6C138.9-32.7,139-37.7,138.3-38.5z M137.1-32.9c-0.1,0-0.5,0.1-1,0.1c-1,0-1.7-0.2-2-0.2
		c-0.2-0.7-0.1-3.5,0.2-4.2c0.3-0.1,1.3-0.3,2.2-0.3c0.4,0,0.6,0,0.7,0C137.4-36.7,137.3-33.6,137.1-32.9z"/>
	<path class="st0" d="M146.3-38.6c-0.2-0.2-0.5-0.7-3.2-0.7c-2,0-2.2,0.3-2.4,0.4c-0.6,0.6-0.5,6,0.1,6.8c0.4,0.5,1.4,0.8,3,0.8
		c2.2,0,2.5-0.4,2.6-0.7C146.8-32.5,147-37.7,146.3-38.6z M145.3-32.9c-0.2,0-0.7,0.1-1.3,0.1c-1,0-1.7-0.1-1.9-0.2
		c-0.2-0.7-0.3-3.7-0.2-4.8c0.3,0,0.7,0,1.2,0c1,0,1.7,0.1,2,0.2C145.3-36.8,145.3-33.7,145.3-32.9z"/>
	<path class="st0" d="M146.8-28.2c-0.7-0.7-3.3-0.7-3.5-0.7c-1.3,0-1.7,0.2-2,0.4c-0.9,0.8-0.5,6.3,0,6.9c0.2,0.3,0.7,0.7,2.3,0.7
		c0.1,0,2.4,0,3-0.6c0.3-0.2,0.5-0.5,0.6-2.4C147.2-24.9,147.3-27.6,146.8-28.2z M145.5-22.5c-0.3,0.1-1.1,0.2-2,0.2
		c-0.6,0-0.9-0.1-1.1-0.1c-0.3-0.9-0.3-4-0.1-4.9c0.1,0,0.4-0.1,0.9-0.1c1,0,1.9,0.1,2.3,0.2C145.8-26.2,145.7-23.4,145.5-22.5z"/>
	<path class="st0" d="M131.4-27.5c-0.1,0.3-0.4,0.6-0.7,0.6c-0.1,0-0.1,0-0.2,0c-0.4-0.1-1.2-0.2-2.3-0.3c-0.5,0-1-0.1-1.5-0.1v0
		c-4.1-0.3-10.3-0.5-14.5-0.4c-0.5,0-1,0-1.5,0c-0.9,0-1.7,0.1-2.2,0.1c-0.4,0-0.8-0.2-0.8-0.7c0-0.4,0.2-0.8,0.7-0.8
		c3.6-0.5,20.1,0.2,22.5,0.7C131.2-28.3,131.5-28,131.4-27.5z"/>
	<path class="st2" d="M122.8-12.5c0,0.1-0.1,0.1-0.1,0.2c-2,0.1-4.4,0.1-6.5,0.1c-0.5-1.8-0.6-9.1-0.2-10.6c1.2-0.3,5.6-0.6,6.8-0.4
		C123.1-21.4,123.1-13.6,122.8-12.5z"/>
	<path class="st3" d="M127-12.7c-0.5,0.1-1.5,0.2-2.8,0.3c0.5-2.7,0.2-11.2-0.1-11.6c-0.2-0.4-0.6-0.5-0.7-0.6
		c-1.5-0.4-7.5,0.1-8.3,0.5c-1.2,0.7-0.8,9.3-0.4,11.8c-1.3,0-2.4-0.1-2.9-0.2c-0.3-2,0-12.8,0.3-15.3c4.1,0,10.4,0.2,14.5,0.4v0
		C127-21,127.3-14.2,127-12.7z"/>
	<path class="st0" d="M128.6-15.2c0,0.6,0,1.1,0,1.5c-0.1,1.7-0.3,1.9-0.4,2c-0.7,0.8-7.2,0.9-10.9,0.9c-1.5,0-2.6,0-2.6,0
		c-3.6-0.1-3.8-0.4-4.1-0.7c-0.2-0.3-0.3-1.2-0.4-2.4c0-0.5,0-1,0-1.5c-0.1-4.3,0.3-10.7,0.4-12.4c0-0.2,0-0.3,0-0.4
		c0.1-0.4,0.4-0.7,0.8-0.6c0.4,0.1,0.7,0.4,0.6,0.8c0,0,0,0.1,0,0.2c-0.3,2.6-0.6,13.4-0.3,15.3c0.5,0.1,1.6,0.2,2.9,0.2
		c0.5,0,1,0,1.5,0c2,0,4.4,0,6.5-0.1c0.5,0,1,0,1.5-0.1c1.3-0.1,2.3-0.2,2.8-0.3c0.3-1.4,0-8.3-0.4-14.6v0c0-0.1,0-0.2,0-0.2
		c0-0.4,0.3-0.8,0.7-0.8c0.4,0,0.8,0.3,0.8,0.7c0,0.1,0,0.3,0,0.4C128.5-21.1,128.6-17.5,128.6-15.2z"/>
	<path class="st0" d="M150.2-42.7c0.1,0.4-0.2,0.8-0.6,0.9c-0.1,0-0.2,0-0.3,0h0c-3.1,0.3-25.2,0.7-41.8,0.7
		c-9.3,0-16.9-0.1-18.3-0.4h0c-0.1,0-0.1,0-0.1,0c-0.4-0.1-0.6-0.6-0.5-1c0.1-0.3,0.5-0.5,0.8-0.5h0c0,0,0.1,0,0.1,0
		c0.5,0.1,3.8,0.2,8.7,0.3c0.6,0,1.2,0,1.9,0c10.8,0.1,27.6,0,38.5-0.2c0.6,0,1.2,0,1.8,0c4.3-0.1,7.5-0.2,8.6-0.3h0
		c0.1,0,0.2,0,0.3,0C149.7-43.4,150.1-43.1,150.2-42.7z"/>
	<path class="st0" d="M140.1-42c-0.4,0.2-0.8,0.1-1-0.3c-0.1-0.2-0.2-0.4-0.4-0.6c-2.8-3.5-16.2-16.1-18.4-17.3c0,0,0,0-0.1,0
		c0,0-0.1,0-0.2,0.1c-2.7,1.3-16.6,13.8-19.9,17.4c-0.3,0.3-0.5,0.6-0.6,0.8c-0.2,0.2-0.4,0.3-0.6,0.3c-0.1,0-0.3,0-0.4-0.1
		c-0.3-0.2-0.4-0.7-0.2-1c0,0,0,0,0,0c0.4-0.7,6-6.2,11.5-11c0.6-0.5,1.1-1,1.7-1.5c0,0,0,0,0,0c3.2-2.8,6.1-5.1,7.8-6
		c0.5-0.3,0.8-0.4,1-0.4h0.1c0.1,0,0.2,0,0.4,0.1c1.3,0.6,4.6,3.4,8,6.6c0.5,0.5,1,0.9,1.5,1.4c4.8,4.5,9.6,9.5,10.1,10.5
		c0,0,0,0.1,0,0.1C140.5-42.6,140.4-42.2,140.1-42z"/>
	<path class="st2" d="M120.3-60.1c-0.1,0-0.2,0-0.2,0c0,0,0,0,0,0c-2.7,1.3-16.6,13.8-19.9,17.4c10.8,0.1,27.6,0,38.5-0.2
		C135.8-46.4,122.5-59,120.3-60.1z M124.1-45.7c-0.9,0.9-2.2,1.5-3.6,1.5c-3,0-5.4-2.2-5.7-5c-0.2-2.7,1.6-5.8,4.8-6.1
		c3-0.3,5.7,2.3,5.8,5.6C125.6-48.1,125.1-46.7,124.1-45.7z"/>
	<path class="st0" d="M120.8-60.9c0,0.3-0.2,0.6-0.5,0.7c-0.1,0-0.2,0-0.2,0c0,0,0,0,0,0c0,0,0,0,0,0c-0.4,0-0.7-0.3-0.7-0.7l0-0.5
		l-0.5-10.4c0-0.4,0.3-0.8,0.7-0.8c0,0,0,0,0,0c0.4,0,0.8,0.3,0.8,0.7l0,0.7l0.2,4.9l0.1,1.5l0.1,3.1L120.8-60.9z"/>
	<path class="st2" d="M127.3-65.8c-1.7,0.1-5.6-0.2-6.8-0.4l-0.2-4.9c2-0.3,5-0.4,6.3-0.3c-0.1,0.2-0.3,0.5-0.4,0.6
		c-0.3,0.6-0.7,1.2-0.7,1.6c-0.1,0.7,0.5,1.5,1.4,2.8C127-66.2,127.2-66,127.3-65.8z"/>
	<path class="st0" d="M129.2-65l-0.3,0.3c-0.3,0.3-1.3,0.4-2.5,0.4c-2.1,0-4.7-0.3-5.8-0.4c-0.3,0-0.4,0-0.5,0
		c-0.4-0.1-0.7-0.5-0.6-0.9c0.1-0.4,0.5-0.7,0.9-0.6c0,0,0.1,0,0.1,0c1.2,0.2,5.1,0.5,6.8,0.4c-0.1-0.2-0.3-0.4-0.4-0.6
		c-0.9-1.3-1.4-2.1-1.4-2.8c0.1-0.5,0.4-1,0.7-1.6c0.1-0.2,0.2-0.4,0.4-0.6c-1.3-0.1-4.3,0-6.3,0.3c-0.2,0-0.3,0-0.5,0.1
		c-0.4,0.1-0.8-0.2-0.9-0.6c-0.1-0.4,0.2-0.8,0.5-0.9c0,0,0,0,0,0c0,0,0,0,0,0c1.2-0.2,7.6-0.9,8.4,0c0.6,0.6,0.1,1.5-0.4,2.5
		c-0.2,0.3-0.5,0.9-0.5,1.1c0,0.2,0.7,1.2,1.1,1.7c0.7,1,1,1.4,1,1.8L129.2-65z"/>
	<path class="st0" d="M149.3-14.4c-1.4,0.6-8.2,1.2-13.9,1.2c-2.9,0-5.4-0.1-6.8-0.5c-0.4-0.1-0.8-0.2-0.9-0.4
		c-0.3-0.3-0.3-0.7-0.1-1.1c0.3-0.3,0.7-0.3,1-0.1c0,0,0,0,0,0c0.2,0.1,0.8,0.2,1.8,0.3h0c0.5,0,1,0.1,1.6,0.1c0.5,0,1.1,0,1.7,0.1
		c0.5,0,1,0,1.5,0c0.6,0,1.1,0,1.7,0c0.5,0,1.1,0,1.6,0c0.5,0,1.1,0,1.6,0c0.5,0,1,0,1.5-0.1c0.7,0,1.4-0.1,2-0.1
		c0.5,0,1.1-0.1,1.5-0.1c0.6-0.1,1.1-0.1,1.5-0.2c0.7-0.1,1.2-0.2,1.6-0.3c0.1,0,0.2-0.1,0.3-0.1c1.7-1.2,1.4-20.1,0.6-26
		c-0.1-0.5-0.1-0.9-0.2-1.2c0-0.1,0-0.2-0.1-0.3c-0.2-0.5-0.4-1.1-0.8-1.8c-0.2-0.4-0.5-0.9-0.8-1.4c-0.1-0.3-0.3-0.5-0.5-0.8
		c-0.2-0.4-0.5-0.8-0.7-1.1c-0.3-0.4-0.5-0.8-0.8-1.2c-0.3-0.4-0.6-0.8-0.9-1.2c-0.2-0.3-0.4-0.5-0.6-0.8c-0.4-0.5-0.7-0.9-1-1.2
		c-0.2-0.2-0.4-0.4-0.5-0.4c-0.9-0.5-8.2-0.5-12.3-0.4c-0.5,0-1,0-1.4,0.1c-0.4,0-0.8-0.3-0.8-0.7c0-0.4,0.3-0.8,0.7-0.8
		c0,0,0,0,0,0c2-0.1,12.8-0.4,14.5,0.5c1.6,0.9,6.7,8.3,7.3,11.1C151-41.3,152.8-15.9,149.3-14.4z"/>
	<path class="st2" d="M109.8-53.8c-5.5,4.9-11.1,10.3-11.5,11c0,0,0,0,0,0c-4.8,0-8.2-0.1-8.7-0.3c0,0-0.1,0-0.1,0h0
		c0.8-2.6,4-9.1,7-10.1c2.6-0.9,7.9-0.8,11.7-0.7C108.7-53.8,109.3-53.8,109.8-53.8z"/>
	<path class="st0" d="M112.1-54.6c0,0.4-0.3,0.8-0.7,0.8c-0.4,0-1,0-1.6,0c-0.5,0-1.1,0-1.7,0c-3.8-0.1-9.1-0.1-11.7,0.7
		c-3,1-6.2,7.5-7,10.1c0,0.2-0.1,0.3-0.1,0.5c0,0.2-0.1,0.5-0.1,1c-0.2,5.1,0.9,24.7,1.8,26.3c0.2,0.2,1,0.3,2.1,0.4h0
		c0.4,0,1,0.1,1.5,0.1c0.6,0,1.2,0,1.9,0c0.5,0,1,0,1.6,0c0.4,0,0.8,0,1.2,0c0.5,0,1,0,1.6,0c0.5,0,1,0,1.6-0.1c0.5,0,1-0.1,1.6-0.1
		c0.6,0,1.2-0.1,1.9-0.1c0.5,0,1-0.1,1.5-0.1c0.9-0.1,1.8-0.1,2.8-0.2c0.1,0,0.2,0,0.3,0c0.4,0,0.8,0.3,0.8,0.7
		c0,0.4-0.3,0.8-0.7,0.8c-0.1,0-0.2,0-0.3,0c-3.8,0.3-8.9,0.7-13,0.7c-3.8,0-6.7-0.3-7.4-1.1c-1.5-2-2.5-26.5-2-28.6
		c0.5-2.3,4.2-10.3,8.1-11.6c2.8-0.9,8.2-0.8,12.2-0.8c1.3,0,2.4,0,3.2,0c0,0,0.1,0,0.1,0c0,0,0,0,0,0
		C111.8-55.2,112.1-54.9,112.1-54.6z"/>
	<path class="st0" d="M144.4-51.6c-0.1,0-0.2,0.1-0.3,0.1c-0.5,0.2-1,0.4-1.6,0.6c-0.6,0.2-1.1,0.4-1.7,0.6c-0.1,0-0.2,0.1-0.3,0.1
		c-0.3,0-0.5-0.2-0.7-0.4c-0.2-0.4,0-0.8,0.4-1c0.6-0.3,1.3-0.5,1.9-0.7c0.3-0.1,0.7-0.2,1-0.3c0.2-0.1,0.5-0.2,0.7-0.3
		c0.4-0.2,0.8,0,1,0.4C144.9-52.2,144.7-51.8,144.4-51.6z"/>
	<path class="st0" d="M146-49.7c-0.2,0.1-0.3,0.2-0.5,0.2c-0.4,0.2-0.9,0.4-1.3,0.5c-0.6,0.2-1.2,0.5-1.7,0.7
		c-0.1,0-0.2,0.1-0.3,0.1c-0.3,0-0.5-0.2-0.7-0.4c-0.2-0.4,0-0.8,0.4-1c0.6-0.3,1.2-0.5,1.8-0.8c0.3-0.1,0.6-0.3,1-0.4
		c0.3-0.1,0.5-0.2,0.8-0.3c0.4-0.2,0.8,0,1,0.3C146.6-50.3,146.4-49.9,146-49.7z"/>
	<path class="st0" d="M147.2-47.3c-0.1,0-0.1,0.1-0.2,0.1c-0.4,0.2-0.8,0.4-1.2,0.5c-0.4,0.2-0.9,0.4-1.3,0.6
		c-0.1,0.1-0.2,0.1-0.3,0.1c-0.2,0-0.5-0.1-0.6-0.3c-0.2-0.3,0-0.7,0.3-0.9c0.5-0.2,0.9-0.4,1.4-0.6c0.3-0.2,0.7-0.3,1-0.5
		c0.1,0,0.2-0.1,0.3-0.1c0.3-0.2,0.7,0,0.9,0.3C147.7-47.9,147.5-47.5,147.2-47.3z"/>
	<path class="st2" d="M149-43.3c-1.1,0.1-4.3,0.3-8.6,0.3c0,0,0-0.1,0-0.1c-0.5-1-5.3-5.9-10.1-10.5c4-0.2,11.3-0.1,12.3,0.4
		c0.1,0.1,0.3,0.2,0.5,0.4c-0.3,0.1-0.7,0.2-1,0.3c-0.6,0.2-1.2,0.4-1.9,0.7c-0.4,0.2-0.5,0.6-0.4,1c0.1,0.3,0.4,0.4,0.7,0.4
		c0.1,0,0.2,0,0.3-0.1c0.5-0.3,1.1-0.4,1.7-0.6c0.5-0.2,1-0.3,1.6-0.6c0.2,0.2,0.4,0.5,0.6,0.8c-0.3,0.1-0.6,0.3-1,0.4
		c-0.6,0.2-1.2,0.5-1.8,0.8c-0.4,0.2-0.5,0.6-0.4,1c0.1,0.3,0.4,0.4,0.7,0.4c0.1,0,0.2,0,0.3-0.1c0.6-0.3,1.1-0.5,1.7-0.7
		c0.4-0.2,0.9-0.4,1.3-0.5c0.3,0.4,0.5,0.8,0.8,1.2c-0.3,0.2-0.6,0.3-1,0.5c-0.5,0.2-0.9,0.4-1.4,0.6c-0.3,0.2-0.4,0.6-0.3,0.9
		c0.1,0.2,0.4,0.3,0.6,0.3c0.1,0,0.2,0,0.3-0.1c0.4-0.2,0.8-0.4,1.3-0.6c0.4-0.2,0.8-0.3,1.2-0.5c0.2,0.3,0.3,0.5,0.5,0.8
		c-0.4,0.1-0.7,0.3-1,0.5c-0.3,0.1-0.5,0.3-0.8,0.4c-0.4,0.2-0.6,0.6-0.4,1c0.1,0.3,0.4,0.5,0.7,0.5c0.1,0,0.2,0,0.3-0.1
		c0.4-0.1,0.7-0.3,1-0.4c0.4-0.2,0.8-0.4,1.1-0.4C148.6-44.4,148.9-43.8,149-43.3z"/>
	<path class="st0" d="M148.9-45.9c0.1,0.4-0.2,0.8-0.6,0.9c0,0,0,0,0,0c-0.4,0.1-0.7,0.2-1.1,0.4c-0.3,0.1-0.6,0.3-1,0.4
		c-0.1,0-0.2,0.1-0.3,0.1c-0.3,0-0.6-0.2-0.7-0.5c-0.2-0.4,0-0.8,0.4-1c0.3-0.1,0.6-0.3,0.8-0.4c0.3-0.2,0.7-0.3,1-0.5
		c0.2,0,0.3-0.1,0.5-0.1C148.4-46.6,148.8-46.3,148.9-45.9z"/>
	<path class="st0" d="M94.7-14.8C94.7-14.8,94.7-14.7,94.7-14.8c0.1,0.4-0.2,0.8-0.6,0.9c-0.1,0-0.1,0-0.1,0c-0.4,0-0.7-0.2-0.7-0.6
		c0-0.1,0-0.2-0.1-0.3h0c-0.1-0.7-0.4-1.4-0.7-2.1c-0.2-0.4,0-0.8,0.4-1c0.4-0.2,0.8,0,1,0.4C94.2-16.6,94.5-15.7,94.7-14.8z"/>
	<path class="st0" d="M97.6-13.8c-0.1,0-0.2,0-0.2,0c-0.3,0-0.6-0.2-0.7-0.5l-0.1-0.4l-0.8-2.7c-0.1-0.4,0.1-0.8,0.5-0.9
		c0.4-0.1,0.8,0.1,0.9,0.5l1,3c0,0,0,0,0,0.1C98.2-14.3,98-14,97.6-13.8z"/>
	<path class="st0" d="M100.5-13.7c-0.1,0-0.2,0-0.2,0c-0.3,0-0.6-0.2-0.7-0.5c-0.1-0.2-0.1-0.4-0.2-0.6c-0.1-0.3-0.2-0.7-0.3-1
		c-0.1-0.5-0.3-1-0.4-1.5c-0.1-0.4,0.1-0.8,0.5-1c0.4-0.1,0.8,0.1,1,0.5c0.2,0.6,0.3,1.1,0.5,1.6c0.1,0.4,0.2,0.9,0.4,1.4
		c0,0,0,0.1,0,0.1C101.1-14.3,100.9-13.8,100.5-13.7z"/>
	<path class="st0" d="M103.6-14.1c-0.1,0-0.2,0.1-0.3,0.1c-0.3,0-0.6-0.2-0.7-0.5c0-0.1-0.1-0.3-0.1-0.4c-0.2-0.4-0.3-0.8-0.4-1.1
		c-0.2-0.4-0.3-0.9-0.5-1.4c-0.2-0.4,0-0.8,0.4-1c0.4-0.2,0.8,0,1,0.4c0.2,0.6,0.4,1,0.6,1.5c0.2,0.4,0.3,0.9,0.5,1.4
		c0,0,0,0.1,0,0.1C104.1-14.6,103.9-14.2,103.6-14.1z"/>
	<path class="st0" d="M107-14.3c-0.1,0-0.2,0-0.3,0c-0.3,0-0.6-0.2-0.7-0.5c0-0.1-0.1-0.2-0.1-0.3c-0.2-0.5-0.2-0.9-0.3-1.3
		c-0.1-0.4-0.1-0.8-0.3-1.3c-0.1-0.4,0-0.8,0.4-1c0.4-0.1,0.8,0,1,0.4c0.2,0.6,0.3,1.1,0.4,1.6c0.1,0.4,0.1,0.8,0.3,1.3
		c0,0,0,0.1,0,0.1C107.5-14.8,107.3-14.4,107-14.3z"/>
	<path class="st0" d="M131.5-13.5c-0.1,0-0.1,0-0.2,0c-0.3,0-0.7-0.2-0.7-0.6c-0.1-0.3-0.1-0.6-0.2-0.9h0c-0.2-0.6-0.4-1.3-0.7-1.9
		c-0.1-0.4,0-0.8,0.4-1c0.4-0.2,0.8,0,1,0.4c0.3,0.8,0.6,1.7,0.9,2.6c0,0.1,0.1,0.3,0.1,0.4C132.2-14,131.9-13.6,131.5-13.5z"/>
	<path class="st0" d="M135.3-14.4c0.1,0.4-0.2,0.8-0.6,0.9c0,0-0.1,0-0.1,0c-0.4,0-0.7-0.3-0.7-0.6c0-0.2-0.1-0.4-0.1-0.6
		c-0.2-0.9-0.5-1.7-0.9-2.5c-0.2-0.4,0-0.8,0.4-1c0.4-0.2,0.8,0,1,0.3c0.5,1,0.8,2,1,3.1C135.3-14.6,135.3-14.5,135.3-14.4z"/>
	<path class="st0" d="M138.3-13.4c-0.1,0-0.2,0-0.2,0c-0.3,0-0.6-0.2-0.7-0.5l-0.3-0.9l-0.9-2.6c-0.1-0.4,0.1-0.8,0.5-1
		c0.4-0.1,0.8,0.1,1,0.5l1.1,3.1l0.1,0.4C138.9-13.9,138.7-13.5,138.3-13.4z"/>
	<path class="st0" d="M141.3-13.7c-0.1,0-0.2,0-0.2,0c-0.3,0-0.6-0.2-0.7-0.5l-0.2-0.6l-0.9-2.8c-0.1-0.4,0.1-0.8,0.5-0.9
		c0.4-0.1,0.8,0.1,0.9,0.5l1,3.1l0.1,0.2C142-14.2,141.7-13.8,141.3-13.7z"/>
	<path class="st0" d="M145-14c-0.1,0-0.2,0-0.3,0c-0.3,0-0.6-0.2-0.7-0.5l-0.2-0.6l-1-2.6c-0.1-0.4,0-0.8,0.4-1c0.4-0.1,0.8,0,1,0.4
		l1.2,3l0.1,0.2C145.5-14.5,145.3-14.1,145-14z"/>
	<path class="st4" d="M149.3-41.8c-3.1,0.3-25.2,0.7-41.8,0.7c-9.3,0-16.9-0.1-18.3-0.4h0c-0.2,5.1,0.9,24.7,1.8,26.3
		c0.2,0.2,1,0.3,2.1,0.4c-0.1-0.7-0.4-1.4-0.7-2.1c-0.2-0.4,0-0.8,0.4-1c0.4-0.2,0.8,0,1,0.4c0.4,0.9,0.7,1.8,0.8,2.7c0,0,0,0,0,0.1
		c0.6,0,1.2,0,1.9,0l-0.8-2.7c-0.1-0.4,0.1-0.8,0.5-0.9c0.4-0.1,0.8,0.1,0.9,0.5l1,3c0,0,0,0,0,0.1c0.4,0,0.8,0,1.2,0
		c-0.1-0.3-0.2-0.7-0.3-1c-0.1-0.5-0.3-1-0.4-1.5c-0.1-0.4,0.1-0.8,0.5-1c0.4-0.1,0.8,0.1,1,0.5c0.2,0.6,0.3,1.1,0.5,1.6
		c0.1,0.4,0.2,0.9,0.4,1.4c0.5,0,1,0,1.6-0.1c-0.2-0.4-0.3-0.8-0.4-1.1c-0.2-0.4-0.3-0.9-0.5-1.4c-0.2-0.4,0-0.8,0.4-1
		c0.4-0.2,0.8,0,1,0.4c0.2,0.6,0.4,1,0.6,1.5c0.2,0.4,0.3,0.9,0.5,1.4c0,0,0,0.1,0,0.1c0.6,0,1.2-0.1,1.9-0.1
		c-0.2-0.5-0.2-0.9-0.3-1.3c-0.1-0.4-0.1-0.8-0.3-1.3c-0.1-0.4,0-0.8,0.4-1c0.4-0.1,0.8,0,1,0.4c0.2,0.6,0.3,1.1,0.4,1.6
		c0.1,0.4,0.1,0.8,0.3,1.3c0,0,0,0.1,0,0.1c0.9-0.1,1.8-0.1,2.8-0.2c-0.1-4.3,0.3-10.7,0.4-12.4c-0.9,0-1.7,0.1-2.2,0.1
		c-0.4,0-0.8-0.2-0.8-0.7c0-0.4,0.2-0.8,0.7-0.8c3.6-0.5,20.1,0.2,22.5,0.7c0.4,0.1,0.7,0.5,0.6,0.9c-0.1,0.3-0.4,0.6-0.7,0.6
		c-0.1,0-0.1,0-0.2,0c-0.4-0.1-1.2-0.2-2.3-0.3c0.4,6.1,0.5,9.8,0.5,12c0,0,0,0,0,0c0.2,0.1,0.8,0.2,1.8,0.3
		c-0.2-0.6-0.4-1.3-0.7-1.9c-0.1-0.4,0-0.8,0.4-1c0.4-0.2,0.8,0,1,0.4c0.3,0.8,0.6,1.7,0.9,2.6c0.5,0,1.1,0,1.7,0.1
		c-0.2-0.9-0.5-1.7-0.9-2.5c-0.2-0.4,0-0.8,0.4-1c0.4-0.2,0.8,0,1,0.3c0.5,1,0.8,2,1,3.1c0.6,0,1.1,0,1.7,0l-0.9-2.6
		c-0.1-0.4,0.1-0.8,0.5-1c0.4-0.1,0.8,0.1,1,0.5l1.1,3.1c0.5,0,1.1,0,1.6,0l-0.9-2.8c-0.1-0.4,0.1-0.8,0.5-0.9
		c0.4-0.1,0.8,0.1,0.9,0.5l1,3.1c0.7,0,1.4-0.1,2-0.1l-1-2.6c-0.1-0.4,0-0.8,0.4-1c0.4-0.1,0.8,0,1,0.4l1.2,3
		c0.6-0.1,1.1-0.1,1.5-0.2c-0.5-0.9-0.9-1.9-0.9-3c0-0.4,0.3-0.8,0.7-0.8c0.4,0,0.8,0.3,0.8,0.7c0.1,1,0.4,2,1,2.7
		c0.1,0,0.2-0.1,0.3-0.1C150.4-17,150-35.9,149.3-41.8z M97.7-21c-0.2,0.2-0.5,0.4-1.6,0.4c-0.1,0-2.8,0-3.8-1
		c-1.1-1.1-0.5-5.5,0.2-6.4c0.5-0.7,1.9-0.8,2.7-0.8c0.8,0,1.8,0.2,2.3,0.9C98.1-27,98.5-21.8,97.7-21z M98.4-33
		c0,0.7-0.1,1.1-0.5,1.4c-0.1,0.1-0.5,0.4-2.2,0.4c-2.8,0-3.1-0.7-3.2-1c-0.4-0.9-0.4-5.4-0.1-6.3c0.1-0.3,0.3-0.4,0.5-0.5
		c0.1-0.1,0.3-0.1,1.6-0.1c2.8,0,3.2,0.4,3.3,0.5C98.5-38,98.4-33.1,98.4-33z M100.7-38.8c0.1-0.1,0.4-0.3,1.9-0.3
		c1.2,0,2.7,0.1,3.2,0.6c0.7,0.7,1.1,5.8,0.8,6.3c-0.1,0.2-0.4,0.8-2.9,0.8c-2.3,0-2.7-0.6-2.9-0.8C100.3-32.9,99.8-38.1,100.7-38.8
		z M106.4-21.4c-0.3,0.5-1,0.8-2.1,0.8c-0.8,0-3.1-0.2-3.7-1c-0.6-0.9-0.5-5.9,0.4-6.7c0.2-0.2,0.6-0.5,2.5-0.5
		c0.9,0,2.3,0.1,2.8,0.5C107-27.5,106.8-22.2,106.4-21.4z M114-31.5c-0.2,0.2-0.5,0.4-1.6,0.4c-0.1,0-2.7,0-3.4-1
		c-0.7-1-0.4-4.5-0.3-5.2c0.1-0.8,0.3-1.2,0.6-1.4c0.5-0.4,2.1-0.7,3-0.7c0.8,0,1.4,0.2,1.7,0.6C114.7-37.9,114.8-32.2,114-31.5z
		 M122-31.7c-0.6,0.5-2.6,0.5-2.9,0.5c-1.4,0-2-0.2-2.3-0.8c-0.2-0.4-0.6-6.1,0.6-6.8c0.6-0.3,1.8-0.4,2.2-0.4
		c1.8,0,2.1,0.4,2.3,0.6C122.2-38,122.9-32.3,122-31.7z M130.4-32.1c-0.6,0.8-3,0.8-3.1,0.8c-1.2,0-1.7-0.3-1.9-0.5
		c-0.9-0.9-0.6-5.4-0.5-5.4c0.1-1,0.3-1.4,0.6-1.7c0.2-0.1,0.5-0.3,1.3-0.3c0.9,0,2.2,0.2,2.8,0.5c0.4,0.2,0.6,0.6,0.8,1.4
		C130.6-36.3,130.9-32.8,130.4-32.1z M132.5-34.1c0,0-0.1-3.4,0.7-4.2c0.6-0.6,2.6-0.8,3.3-0.8c1,0,1.5,0.2,1.8,0.5
		c0.7,0.8,0.6,5.9,0,6.6c-0.2,0.3-0.7,0.6-2.2,0.6c-0.4,0-2.3,0-3-0.7C132.8-32.2,132.5-32.6,132.5-34.1z M138.9-21.3
		c-0.2,0.3-0.6,0.6-2.3,0.6c-1.2,0-3.2-0.1-3.6-1c-0.4-0.8-0.1-6.1,0.7-6.9c0.3-0.3,0.7-0.4,1.4-0.4c0.9,0,2.8,0.3,3.5,0.9
		C139.4-27.2,139.4-22,138.9-21.3z M140.8-38.9c0.2-0.2,0.4-0.4,2.4-0.4c2.6,0,3,0.5,3.2,0.7c0.7,0.9,0.5,6.1,0.2,6.6
		c-0.1,0.3-0.4,0.7-2.6,0.7c-1.6,0-2.6-0.3-3-0.8C140.3-32.8,140.2-38.3,140.8-38.9z M147.2-23.8c-0.1,1.9-0.3,2.2-0.6,2.4
		c-0.7,0.5-2.9,0.6-3,0.6c-1.6,0-2.1-0.4-2.3-0.7c-0.5-0.7-0.9-6.1,0-6.9c0.2-0.2,0.6-0.4,2-0.4c0.1,0,2.8,0,3.5,0.7
		C147.3-27.6,147.2-24.9,147.2-23.8z"/>
	<path class="st5" d="M96.6-22.1c-0.1,0-0.3,0-0.5,0c-1.2,0-2.4-0.3-2.7-0.5c-0.4-0.5-0.1-3.8,0.2-4.4c0.1-0.1,0.8-0.3,1.5-0.3
		c0.7,0,1,0.2,1,0.2C96.6-26.5,96.7-23.2,96.6-22.1z"/>
	<path class="st5" d="M105.1-22.2c-0.1,0-0.4,0.1-0.9,0.1c-1.1,0-2.1-0.2-2.4-0.4c-0.2-0.8-0.2-3.9,0.2-4.6c0.2,0,0.6-0.1,1.5-0.1
		c0.8,0,1.4,0.1,1.7,0.1C105.3-26.1,105.3-22.9,105.1-22.2z"/>
	<path class="st5" d="M137.7-22.2c-0.2,0-0.5,0.1-1.1,0.1c-1,0-1.9-0.1-2.3-0.3c-0.1-0.9,0.1-4,0.4-4.9c0.1,0,0.2,0,0.3,0
		c0.9,0,2.1,0.3,2.4,0.4C137.7-26.2,137.8-23,137.7-22.2z"/>
	<path class="st5" d="M145.5-22.5c-0.3,0.1-1.1,0.2-2,0.2c-0.6,0-0.9-0.1-1.1-0.1c-0.3-0.9-0.3-4-0.1-4.9c0.1,0,0.4-0.1,0.9-0.1
		c1,0,1.9,0.1,2.3,0.2C145.8-26.2,145.7-23.4,145.5-22.5z"/>
	<path class="st5" d="M145.3-32.9c-0.2,0-0.7,0.1-1.3,0.1c-1,0-1.7-0.1-1.9-0.2c-0.2-0.7-0.3-3.7-0.2-4.8c0.3,0,0.7,0,1.2,0
		c1,0,1.7,0.1,2,0.2C145.3-36.8,145.3-33.7,145.3-32.9z"/>
	<path class="st5" d="M137.1-32.9c-0.1,0-0.5,0.1-1,0.1c-1,0-1.7-0.2-2-0.2c-0.2-0.7-0.1-3.5,0.2-4.2c0.3-0.1,1.3-0.3,2.2-0.3
		c0.4,0,0.6,0,0.7,0C137.4-36.7,137.3-33.6,137.1-32.9z"/>
	<path class="st5" d="M129.2-33.1c-0.3,0.1-1.1,0.3-1.9,0.3c-0.4,0-0.7,0-0.8-0.1c-0.3-0.8-0.3-3.8-0.1-4.7c0.1,0,0.2,0,0.4,0
		c0.8,0,1.6,0.2,2,0.3C129.2-36.7,129.3-33.9,129.2-33.1z"/>
	<path class="st5" d="M120.9-32.8c-0.4,0.1-1.1,0.1-1.8,0.1c-0.5,0-0.8,0-0.9-0.1c-0.1-1-0.1-3.9,0.1-4.8c0.2,0,0.7-0.1,1.3-0.1
		c0.5,0,0.9,0,1,0.1C120.8-36.7,121-33.8,120.9-32.8z"/>
	<path class="st5" d="M113-32.6c-0.1,0-0.3,0-0.5,0c-1.1,0-2.1-0.3-2.2-0.4c-0.3-0.6-0.2-3.7,0.1-4.5c0.4-0.1,1.3-0.3,2.1-0.3
		c0.3,0,0.4,0,0.5,0C113.1-37,113.2-33.7,113-32.6z"/>
	<path class="st5" d="M105.3-33c-0.3,0.1-0.9,0.1-1.6,0.1c-1,0-1.5-0.1-1.6-0.2c-0.3-0.7-0.5-3.6-0.3-4.5c0.2,0,0.5,0,0.9,0
		c0.9,0,1.7,0.1,2.1,0.2C105-36.7,105.3-34,105.3-33z"/>
	<path class="st5" d="M96.9-32.9c-0.2,0-0.6,0.1-1.2,0.1c-1,0-1.7-0.1-1.9-0.2c-0.2-0.8-0.2-3.6-0.1-4.7c0.2,0,0.4,0,0.7,0
		c1,0,1.8,0.1,2.2,0.1C96.9-36.6,97-33.8,96.9-32.9z"/>
	<path class="st0" d="M148.6-14.3c-0.1,0.1-0.3,0.2-0.5,0.2c-0.2,0-0.4-0.1-0.6-0.3c-0.3-0.3-0.5-0.6-0.7-1c-0.5-0.9-0.9-1.9-0.9-3
		c0-0.4,0.3-0.8,0.7-0.8c0.4,0,0.8,0.3,0.8,0.7c0.1,1,0.4,2,1,2.7c0.1,0.1,0.2,0.2,0.3,0.3C148.9-15,148.9-14.5,148.6-14.3z"/>
	<path class="st0" d="M120.9-50.1c0,0.1,0,0.2,0,0.2c-0.1,0.3-0.4,0.6-0.7,0.6c-0.1,0-0.1,0-0.2,0c-0.4-0.1-0.7-0.5-0.6-0.9
		c0,0,0,0,0,0c0.1-0.8,0.1-1.5,0-2.3c-0.1-0.4,0.2-0.8,0.6-0.9c0.4-0.1,0.8,0.2,0.9,0.6C121-51.9,121-50.9,120.9-50.1z"/>
	<path class="st0" d="M122.2-47.4c-0.2,0.1-0.3,0.2-0.5,0.2c-0.2,0-0.4-0.1-0.6-0.3l-1.6-1.9c-0.2-0.2-0.2-0.5-0.1-0.8c0,0,0,0,0,0
		c0-0.1,0.1-0.2,0.2-0.3c0.3-0.3,0.8-0.2,1.1,0.1l0.3,0.3l1.4,1.6C122.5-48.2,122.5-47.7,122.2-47.4z"/>
</g>
<g>
	<path class="st4" d="M209.3,35.7c-3,0-5.4-2.2-5.7-5c-0.2-2.7,1.6-5.8,4.8-6.1c3-0.3,5.7,2.3,5.8,5.6c0.1,1.6-0.4,3-1.4,4
		C212,35.1,210.7,35.7,209.3,35.7z M208.9,26.1c-0.1,0-0.2,0-0.3,0c-2.3,0.2-3.6,2.5-3.5,4.5c0.2,2,2,3.6,4.2,3.6c1,0,1.9-0.3,2.5-1
		c0.7-0.7,1-1.7,1-2.9C212.7,27.9,211,26.1,208.9,26.1z"/>
	<path class="st4" d="M184.8,59.3c-0.1,0-2.8,0-3.8-1c-1.1-1.1-0.5-5.5,0.2-6.4c0.5-0.7,1.9-0.8,2.7-0.8c0.8,0,1.8,0.2,2.3,0.9
		c0.6,0.9,1.1,6.2,0.2,6.9C186.2,59.1,185.9,59.3,184.8,59.3z M183.9,52.6c-0.8,0-1.4,0.2-1.5,0.3c-0.3,0.6-0.6,3.8-0.2,4.4
		c0.2,0.2,1.5,0.5,2.7,0.5c0.2,0,0.4,0,0.5,0c0.2-1.1,0-4.4-0.4-5C184.9,52.7,184.6,52.6,183.9,52.6z"/>
	<path class="st4" d="M204.3,68.7c-0.3,0-0.6-0.2-0.7-0.5c-0.4-1.3-1.1-11.6,0.3-12.4c0.8-0.5,6.8-1,8.3-0.5c0.1,0,0.5,0.2,0.7,0.5
		c0.3,0.5,0.6,11.5-0.2,12.4c-0.3,0.3-0.8,0.3-1.1,0.1c-0.3-0.2-0.3-0.6-0.2-0.9c0.3-1,0.3-8.9,0.1-10.7c-1.2-0.2-5.6,0.1-6.8,0.4
		c-0.4,1.5-0.3,9,0.2,10.7c0.1,0.4-0.1,0.8-0.5,0.9C204.5,68.7,204.4,68.7,204.3,68.7z"/>
	<path class="st4" d="M184.5,48.6c-2.8,0-3.1-0.7-3.2-0.9c-0.4-0.9-0.4-5.4-0.1-6.3c0.1-0.3,0.3-0.4,0.5-0.5c0.1,0,0.3-0.1,1.6-0.1
		c2.8,0,3.2,0.4,3.3,0.5c0.8,0.7,0.6,5.6,0.6,5.6c0,0.7-0.1,1.1-0.5,1.4C186.6,48.3,186.2,48.6,184.5,48.6z M182.6,46.9
		c0.2,0.1,0.9,0.2,1.9,0.2c0.5,0,0.9,0,1.2-0.1c0.1-1,0-3.8-0.2-4.7c-0.4-0.1-1.2-0.1-2.2-0.1c-0.3,0-0.5,0-0.7,0
		C182.4,43.3,182.4,46.1,182.6,46.9z"/>
	<path class="st4" d="M192.4,48.5c-2.3,0-2.7-0.6-2.9-0.8c-0.5-0.7-1.1-6-0.1-6.7c0.1-0.1,0.4-0.3,1.9-0.3c1.2,0,2.7,0.1,3.2,0.6
		c0.7,0.7,1.1,5.8,0.8,6.4C195.3,48,195,48.5,192.4,48.5z M190.8,46.8c0.2,0.1,0.7,0.2,1.6,0.2c0.7,0,1.2-0.1,1.6-0.1
		c0-1-0.3-3.7-0.5-4.5c-0.3-0.1-1.1-0.2-2.1-0.2c-0.4,0-0.7,0-0.9,0C190.3,43.3,190.5,46.1,190.8,46.8z"/>
	<path class="st4" d="M201.2,48.8c-0.1,0-2.7,0-3.4-1c-0.7-1-0.4-4.5-0.3-5.2c0.1-0.8,0.3-1.2,0.6-1.4c0.5-0.4,2.1-0.7,3-0.7
		c0.8,0,1.4,0.2,1.7,0.6c0.6,0.9,0.8,6.5,0,7.3C202.6,48.6,202.2,48.8,201.2,48.8z M199.1,42.4c-0.2,0.9-0.3,4-0.1,4.5
		c0.2,0.1,1.1,0.4,2.2,0.4c0.2,0,0.4,0,0.5,0c0.2-1,0.2-4.4-0.1-5.2c-0.1,0-0.2,0-0.5,0C200.4,42,199.4,42.2,199.1,42.4z"/>
	<path class="st4" d="M207.9,48.7c-1.4,0-2-0.2-2.3-0.8c-0.2-0.4-0.6-6.2,0.6-6.8c0.6-0.3,1.8-0.4,2.2-0.4c1.8,0,2.1,0.4,2.3,0.6
		c0.4,0.5,1,6.2,0.1,6.9C210.2,48.7,208.1,48.7,207.9,48.7z M206.9,47.1c0.2,0,0.5,0.1,0.9,0.1c0.7,0,1.4-0.1,1.8-0.1
		c0.1-1-0.1-3.9-0.3-4.7c-0.2,0-0.5-0.1-1-0.1c-0.6,0-1.1,0.1-1.3,0.1C206.8,43.2,206.8,46.1,206.9,47.1z"/>
	<path class="st4" d="M216,48.6c-1.2,0-1.7-0.3-1.9-0.5c-0.9-0.9-0.6-5.4-0.6-5.4c0.1-1,0.3-1.4,0.6-1.6c0.2-0.1,0.5-0.3,1.3-0.3
		c0.9,0,2.2,0.2,2.8,0.5c0.4,0.2,0.6,0.6,0.8,1.4c0.2,1,0.5,4.4-0.1,5.1C218.5,48.5,216.1,48.6,216,48.6z M215.2,47
		c0.1,0,0.3,0.1,0.8,0.1c0.8,0,1.5-0.1,1.9-0.2c0.2-0.9,0-3.6-0.3-4.3c-0.4-0.1-1.3-0.3-2-0.3c-0.2,0-0.3,0-0.4,0
		C214.9,43.2,215,46.2,215.2,47z"/>
	<path class="st4" d="M193,59.3c-0.8,0-3.1-0.2-3.7-1c-0.6-0.9-0.5-5.9,0.4-6.7c0.2-0.1,0.6-0.5,2.5-0.5c0.8,0,2.3,0.1,2.8,0.5
		c0.7,0.7,0.6,6,0.1,6.9C194.8,59.1,194.1,59.3,193,59.3z M190.5,57.4c0.3,0.2,1.4,0.4,2.4,0.4c0.5,0,0.7-0.1,0.9-0.1
		c0.2-0.8,0.2-4,0-5c-0.3-0.1-0.9-0.1-1.7-0.1c-0.9,0-1.3,0.1-1.5,0.1C190.4,53.5,190.3,56.6,190.5,57.4z"/>
	<path class="st4" d="M225.4,59.2c-1.2,0-3.2-0.1-3.6-1c-0.4-0.8-0.1-6.1,0.7-6.9c0.3-0.3,0.7-0.4,1.4-0.4c0.9,0,2.8,0.3,3.5,0.9
		c0.9,0.8,0.9,5.9,0.4,6.7C227.5,58.9,227,59.2,225.4,59.2z M223.1,57.5c0.4,0.1,1.3,0.3,2.3,0.3c0.6,0,0.9,0,1.1-0.1
		c0.1-0.8,0-4-0.2-4.7c-0.3-0.2-1.5-0.4-2.4-0.4c-0.2,0-0.3,0-0.3,0C223.2,53.4,223,56.6,223.1,57.5z"/>
	<path class="st4" d="M224.8,48.6c-0.4,0-2.3,0-3-0.7c-0.3-0.2-0.5-0.7-0.5-2.2c0,0-0.1-3.4,0.7-4.2c0.6-0.6,2.6-0.8,3.3-0.8
		c0.9,0,1.5,0.2,1.8,0.5c0.7,0.8,0.6,5.9,0,6.7C226.8,48.3,226.4,48.6,224.8,48.6z M222.9,46.9c0.2,0.1,1,0.2,1.9,0.2
		c0.6,0,0.9-0.1,1-0.1c0.2-0.7,0.3-3.8,0-4.6c-0.1,0-0.3-0.1-0.7-0.1c-0.9,0-1.9,0.2-2.2,0.3C222.8,43.3,222.6,46.1,222.9,46.9z"/>
	<path class="st4" d="M232.7,48.6c-1.6,0-2.6-0.3-3-0.8c-0.6-0.8-0.7-6.2-0.1-6.8c0.2-0.2,0.4-0.4,2.4-0.4c2.6,0,3,0.5,3.1,0.7
		c0.7,0.9,0.5,6.1,0.2,6.6C235.2,48.2,234.9,48.6,232.7,48.6z M230.9,46.9c0.2,0.1,0.8,0.2,1.9,0.2c0.6,0,1,0,1.3-0.1
		c0.1-0.9,0.1-3.9-0.1-4.8c-0.3-0.1-0.9-0.2-2-0.2c-0.6,0-1,0-1.2,0.1C230.6,43.2,230.6,46.2,230.9,46.9z"/>
	<path class="st4" d="M232.3,59c-1.6,0-2.1-0.4-2.3-0.7c-0.5-0.7-0.9-6.1,0-6.9c0.2-0.2,0.7-0.4,2-0.4c0.1,0,2.8,0,3.5,0.7
		c0.6,0.6,0.5,3.3,0.4,4.4c-0.1,1.9-0.3,2.2-0.6,2.4C234.7,59,232.4,59,232.3,59z M231.3,57.4c0.2,0,0.5,0.1,1.1,0.1
		c0.9,0,1.6-0.1,2-0.2c0.2-0.9,0.2-3.7,0.1-4.6c-0.4-0.1-1.3-0.2-2.3-0.2c-0.5,0-0.8,0-0.9,0.1C230.9,53.5,231,56.6,231.3,57.4z"/>
	<path class="st4" d="M219.4,52.9c-0.1,0-0.1,0-0.2,0c-2.2-0.5-18.6-1.1-22-0.7c-0.4,0.1-0.8-0.2-0.8-0.6c-0.1-0.4,0.2-0.8,0.6-0.8
		c3.6-0.5,20.1,0.1,22.5,0.7c0.4,0.1,0.7,0.5,0.6,0.9C220,52.7,219.7,52.9,219.4,52.9z"/>
	<path class="st4" d="M206.1,69.1c-1.5,0-2.6,0-2.6,0c-3.6-0.1-3.8-0.4-4.1-0.7c-0.9-1.1-0.1-15.6,0-16.7c0.1-0.4,0.4-0.7,0.8-0.6
		c0.4,0.1,0.7,0.4,0.6,0.8c-0.3,2.2-0.7,13.5-0.3,15.5c2.1,0.4,13.3,0.2,15.2-0.3c0.2-1.5,0-8.5-0.4-14.9c0-0.4,0.3-0.8,0.7-0.8
		c0.4,0,0.8,0.3,0.8,0.7c1,15,0.3,15.7,0.1,16C216.2,69,209.8,69.1,206.1,69.1z"/>
	<path class="st4" d="M196.3,38.8c-9.7,0-17.5-0.1-18.4-0.5c-0.4-0.1-0.6-0.6-0.5-1c0.1-0.4,0.6-0.6,1-0.5
		c2.2,0.6,56.3,0.3,59.7-0.3c0.4-0.1,0.8,0.2,0.9,0.6c0.1,0.4-0.2,0.8-0.6,0.9C236.6,38.4,213.5,38.8,196.3,38.8z"/>
	<path class="st4" d="M187.6,38.3c-0.1,0-0.3,0-0.4-0.1c-0.3-0.2-0.4-0.7-0.2-1c0.8-1.3,19.3-18.9,22-18.9c0,0,0,0,0.1,0
		c2.3,0.3,19,16.8,20,18.7c0.2,0.4,0.1,0.8-0.3,1c-0.4,0.2-0.8,0.1-1-0.3c-1.2-2.3-16.7-16.9-18.8-17.9c-2.3,0.8-19.3,16-20.7,18.2
		C188.1,38.2,187.9,38.3,187.6,38.3z"/>
	<path class="st4" d="M208.8,19.8c-0.4,0-0.7-0.3-0.7-0.7l-0.5-10.9c0-0.4,0.3-0.8,0.7-0.8c0.4,0,0.8,0.3,0.8,0.7l0.5,10.9
		C209.5,19.4,209.2,19.8,208.8,19.8C208.8,19.8,208.8,19.8,208.8,19.8z"/>
	<path class="st4" d="M215.1,15.6c-2.6,0-6.2-0.4-6.2-0.5c-0.4-0.1-0.7-0.5-0.6-0.9c0.1-0.4,0.5-0.7,0.9-0.6
		c1.1,0.2,5.1,0.5,6.9,0.4c-0.1-0.2-0.3-0.4-0.4-0.6c-0.9-1.3-1.4-2.1-1.4-2.8c0.1-0.5,0.4-1,0.7-1.6c0.1-0.2,0.2-0.4,0.4-0.6
		c-1.4-0.1-4.9,0-6.8,0.4c-0.4,0.1-0.8-0.2-0.9-0.6c-0.1-0.4,0.2-0.8,0.6-0.9c1.2-0.2,7.6-0.9,8.5,0c0.6,0.6,0.1,1.5-0.4,2.5
		c-0.2,0.3-0.5,0.9-0.5,1.1c0,0.2,0.7,1.2,1.1,1.7c0.7,0.9,1,1.4,1,1.8l0,0.4l-0.3,0.3C217.3,15.5,216.3,15.6,215.1,15.6z"/>
	<path class="st4" d="M224.1,66.7c-3.8,0-7-0.2-7.7-0.9c-0.3-0.3-0.3-0.7-0.1-1.1c0.3-0.3,0.7-0.3,1.1-0.1c1.3,0.8,17.3,0.7,20-0.5
		c1.9-1.3,1.3-23.4,0.4-27.2c-0.6-2.6-5.6-9.6-6.6-10.1c-1-0.5-10.2-0.6-13.6-0.3c-0.4,0-0.8-0.3-0.8-0.7c0-0.4,0.3-0.8,0.7-0.8
		c2-0.1,12.8-0.4,14.4,0.5c1.6,0.9,6.7,8.3,7.3,11.1c0.5,2,2.2,27.4-1.3,28.9C236.6,66.1,229.8,66.7,224.1,66.7z"/>
	<path class="st4" d="M186,66.7c-3.7,0-6.7-0.3-7.4-1.1c-1.5-2-2.5-26.5-2-28.6c0.6-2.3,4.2-10.3,8.1-11.6c2.8-0.9,8.2-0.8,12.2-0.8
		c1.3,0,2.4,0,3.2,0c0.4,0,0.8,0.3,0.8,0.7c0,0.4-0.3,0.8-0.7,0.8c-0.8,0-1.9,0-3.2,0c-3.8-0.1-9.1-0.1-11.7,0.7
		c-3.1,1-6.6,8.4-7.1,10.5c-0.5,2,0.7,25.6,1.8,27.4c1,0.8,10.9,0.5,19.4-0.2c0.4,0,0.8,0.3,0.8,0.7c0,0.4-0.3,0.8-0.7,0.8
		C195.5,66.3,190.3,66.7,186,66.7z"/>
	<path class="st4" d="M229.2,29.7c-0.3,0-0.5-0.2-0.7-0.4c-0.2-0.4,0-0.8,0.4-1c0.6-0.3,1.3-0.5,1.9-0.7c0.6-0.2,1.1-0.4,1.7-0.6
		c0.4-0.2,0.8,0,1,0.4c0.2,0.4,0,0.8-0.4,1c-0.6,0.3-1.3,0.5-1.9,0.7c-0.6,0.2-1.1,0.4-1.7,0.6C229.5,29.7,229.4,29.7,229.2,29.7z"
		/>
	<path class="st4" d="M230.9,31.8c-0.3,0-0.5-0.2-0.7-0.4c-0.2-0.4,0-0.8,0.4-1c0.6-0.3,1.2-0.5,1.8-0.8c0.6-0.2,1.2-0.5,1.7-0.7
		c0.4-0.2,0.8,0,1,0.4c0.2,0.4,0,0.8-0.4,1c-0.6,0.3-1.2,0.5-1.8,0.8c-0.6,0.2-1.2,0.5-1.7,0.7C231.2,31.7,231,31.8,230.9,31.8z"/>
	<path class="st4" d="M232.6,33.9c-0.3,0-0.5-0.1-0.7-0.4c-0.2-0.4-0.1-0.8,0.3-1c0.5-0.3,1-0.5,1.5-0.7c0.5-0.2,1-0.4,1.4-0.7
		c0.4-0.2,0.8-0.1,1,0.3c0.2,0.4,0.1,0.8-0.3,1c-0.5,0.3-1,0.5-1.6,0.7c-0.5,0.2-1,0.4-1.4,0.7C232.8,33.9,232.7,33.9,232.6,33.9z"
		/>
	<path class="st4" d="M234.6,35.8c-0.3,0-0.6-0.2-0.7-0.5c-0.2-0.4,0-0.8,0.4-1c0.3-0.1,0.6-0.3,0.8-0.4c0.5-0.2,1-0.5,1.6-0.6
		c0.4-0.1,0.8,0.2,0.9,0.6c0.1,0.4-0.2,0.8-0.6,0.9c-0.4,0.1-0.7,0.2-1.2,0.5c-0.3,0.1-0.6,0.3-0.9,0.4
		C234.8,35.8,234.7,35.8,234.6,35.8z"/>
	<path class="st4" d="M182.7,66c-0.4,0-0.7-0.2-0.7-0.6c-0.2-0.8-0.4-1.6-0.7-2.4c-0.2-0.4,0-0.8,0.4-1c0.4-0.2,0.8,0,1,0.4
		c0.4,0.9,0.6,1.8,0.8,2.7c0.1,0.4-0.2,0.8-0.6,0.9C182.8,66,182.7,66,182.7,66z"/>
	<path class="st4" d="M186.2,66.1c-0.3,0-0.6-0.2-0.7-0.5l-1-3c-0.1-0.4,0.1-0.8,0.5-0.9c0.4-0.1,0.8,0.1,0.9,0.5l1,3
		c0.1,0.4-0.1,0.8-0.5,0.9C186.3,66.1,186.2,66.1,186.2,66.1z"/>
	<path class="st4" d="M189,66.2c-0.3,0-0.6-0.2-0.7-0.5c-0.2-0.6-0.3-1.1-0.5-1.6c-0.1-0.5-0.3-1-0.4-1.5c-0.1-0.4,0.1-0.8,0.5-1
		c0.4-0.1,0.8,0.1,1,0.5c0.2,0.6,0.3,1.1,0.5,1.6c0.1,0.5,0.3,1,0.4,1.5c0.1,0.4-0.1,0.8-0.5,1C189.1,66.2,189.1,66.2,189,66.2z"/>
	<path class="st4" d="M192,65.8c-0.3,0-0.6-0.2-0.7-0.5c-0.2-0.6-0.4-1-0.6-1.5c-0.2-0.4-0.3-0.9-0.5-1.4c-0.2-0.4,0-0.8,0.4-1
		c0.4-0.2,0.8,0,1,0.4c0.2,0.6,0.4,1,0.6,1.5c0.2,0.4,0.3,0.9,0.5,1.4c0.2,0.4,0,0.8-0.4,1C192.2,65.8,192.1,65.8,192,65.8z"/>
	<path class="st4" d="M195.5,65.7c-0.3,0-0.6-0.2-0.7-0.5c-0.2-0.6-0.3-1.1-0.4-1.6c-0.1-0.4-0.1-0.8-0.3-1.3c-0.1-0.4,0-0.8,0.4-1
		c0.4-0.1,0.8,0,1,0.4c0.2,0.6,0.3,1.1,0.4,1.6c0.1,0.4,0.1,0.8,0.3,1.3c0.1,0.4,0,0.8-0.4,1C195.6,65.6,195.5,65.7,195.5,65.7z"/>
	<path class="st4" d="M220.1,66.4c-0.3,0-0.7-0.2-0.7-0.6c-0.2-0.9-0.5-1.9-0.9-2.8c-0.2-0.4,0-0.8,0.4-1c0.4-0.2,0.8,0,1,0.4
		c0.4,1,0.7,2,1,3c0.1,0.4-0.2,0.8-0.6,0.9C220.2,66.4,220.1,66.4,220.1,66.4z"/>
	<path class="st4" d="M223.3,66.4c-0.4,0-0.7-0.3-0.7-0.6c-0.2-1.1-0.5-2.1-1-3.1c-0.2-0.4,0-0.8,0.4-1c0.4-0.2,0.8,0,1,0.4
		c0.5,1.1,0.9,2.3,1.1,3.4c0.1,0.4-0.2,0.8-0.6,0.9C223.4,66.4,223.4,66.4,223.3,66.4z"/>
	<path class="st4" d="M226.8,66.5c-0.3,0-0.6-0.2-0.7-0.5l-1.2-3.5c-0.1-0.4,0.1-0.8,0.5-1c0.4-0.1,0.8,0.1,1,0.5l1.2,3.5
		c0.1,0.4-0.1,0.8-0.5,1C226.9,66.5,226.8,66.5,226.8,66.5z"/>
	<path class="st4" d="M229.9,66.2c-0.3,0-0.6-0.2-0.7-0.5l-1-3.3c-0.1-0.4,0.1-0.8,0.5-0.9c0.4-0.1,0.8,0.1,0.9,0.5l1,3.3
		c0.1,0.4-0.1,0.8-0.5,0.9C230,66.2,229.9,66.2,229.9,66.2z"/>
	<path class="st4" d="M233.4,66c-0.3,0-0.6-0.2-0.7-0.5l-1.3-3.2c-0.2-0.4,0-0.8,0.4-1c0.4-0.2,0.8,0,1,0.4l1.3,3.2
		c0.2,0.4,0,0.8-0.4,1C233.6,66,233.5,66,233.4,66z"/>
	<path class="st4" d="M236.8,65.8c-0.2,0-0.4-0.1-0.6-0.3c-0.9-1.1-1.5-2.5-1.6-3.9c0-0.4,0.3-0.8,0.7-0.8c0.4,0,0.8,0.3,0.8,0.7
		c0.1,1.1,0.5,2.2,1.3,3.1c0.3,0.3,0.2,0.8-0.1,1.1C237.2,65.7,237,65.8,236.8,65.8z"/>
	<path class="st4" d="M208.8,30.7c-0.1,0-0.1,0-0.2,0c-0.4-0.1-0.7-0.5-0.6-0.9c0.2-0.8,0.2-1.6,0-2.3c-0.1-0.4,0.2-0.8,0.6-0.9
		c0.4-0.1,0.8,0.2,0.9,0.6c0.2,1,0.2,2,0,2.9C209.5,30.4,209.2,30.7,208.8,30.7z"/>
	<path class="st4" d="M210.4,32.6c-0.2,0-0.4-0.1-0.6-0.3l-1.6-1.9c-0.3-0.3-0.2-0.8,0.1-1.1c0.3-0.3,0.8-0.2,1.1,0.1l1.6,1.9
		c0.3,0.3,0.2,0.8-0.1,1.1C210.8,32.6,210.6,32.6,210.4,32.6z"/>
</g>
<g>
	<path class="st6" d="M292.7,34.2c-3,0-5.4-2.2-5.7-5c-0.2-2.7,1.6-5.8,4.8-6.1c3-0.3,5.7,2.3,5.8,5.6c0.1,1.6-0.4,3-1.4,4
		C295.4,33.6,294.2,34.2,292.7,34.2z M292.4,24.6c-0.1,0-0.2,0-0.3,0c-2.3,0.2-3.6,2.5-3.5,4.5c0.2,2,2,3.6,4.2,3.6
		c1,0,1.9-0.3,2.5-1c0.7-0.7,1-1.7,1-2.9C296.1,26.4,294.4,24.6,292.4,24.6z"/>
	<path class="st6" d="M268.3,57.8c-0.1,0-2.8,0-3.8-1c-1.1-1.1-0.5-5.5,0.2-6.4c0.5-0.7,1.9-0.8,2.7-0.8c0.8,0,1.8,0.2,2.3,0.9
		c0.6,0.9,1.1,6.2,0.2,6.9C269.7,57.6,269.3,57.8,268.3,57.8z M267.4,51.1c-0.8,0-1.4,0.2-1.5,0.3c-0.3,0.6-0.6,3.8-0.2,4.4
		c0.2,0.2,1.5,0.5,2.7,0.5c0.2,0,0.4,0,0.5,0c0.2-1.1,0-4.4-0.4-5C268.4,51.2,268.1,51.1,267.4,51.1z"/>
	<path class="st6" d="M287.8,67.2c-0.3,0-0.6-0.2-0.7-0.5c-0.4-1.3-1.1-11.6,0.3-12.4c0.8-0.5,6.8-1,8.3-0.5c0.1,0,0.5,0.2,0.7,0.5
		c0.3,0.5,0.6,11.5-0.2,12.4c-0.3,0.3-0.8,0.3-1.1,0.1c-0.3-0.2-0.3-0.6-0.2-0.9c0.3-1,0.3-8.9,0.1-10.7c-1.2-0.2-5.6,0.1-6.8,0.4
		c-0.4,1.5-0.3,9,0.2,10.7c0.1,0.4-0.1,0.8-0.5,0.9C287.9,67.2,287.8,67.2,287.8,67.2z"/>
	<path class="st6" d="M267.9,47.1c-2.8,0-3.1-0.7-3.2-0.9c-0.4-0.9-0.4-5.4-0.1-6.3c0.1-0.3,0.3-0.4,0.5-0.5c0.1,0,0.3-0.1,1.6-0.1
		c2.8,0,3.2,0.4,3.3,0.5c0.8,0.7,0.6,5.6,0.6,5.6c0,0.7-0.1,1.1-0.5,1.4C270,46.8,269.7,47.1,267.9,47.1z M266,45.4
		c0.2,0.1,0.9,0.2,1.9,0.2c0.5,0,0.9,0,1.2-0.1c0.1-1,0-3.8-0.2-4.7c-0.4-0.1-1.2-0.1-2.2-0.1c-0.3,0-0.5,0-0.7,0
		C265.8,41.8,265.9,44.6,266,45.4z"/>
	<path class="st6" d="M275.9,47c-2.3,0-2.7-0.6-2.9-0.8c-0.5-0.7-1.1-6-0.1-6.7c0.1-0.1,0.4-0.3,1.9-0.3c1.2,0,2.7,0.1,3.2,0.6
		c0.7,0.7,1.1,5.8,0.8,6.4C278.7,46.5,278.5,47,275.9,47z M274.2,45.3c0.2,0.1,0.7,0.2,1.6,0.2c0.7,0,1.2-0.1,1.6-0.1
		c0-1-0.3-3.7-0.5-4.5c-0.3-0.1-1.1-0.2-2.1-0.2c-0.4,0-0.7,0-0.9,0C273.8,41.8,274,44.7,274.2,45.3z"/>
	<path class="st6" d="M284.7,47.3c-0.1,0-2.7,0-3.4-1c-0.7-1-0.4-4.5-0.3-5.2c0.1-0.8,0.3-1.2,0.6-1.4c0.5-0.4,2.1-0.7,3-0.7
		c0.8,0,1.4,0.2,1.7,0.6c0.6,0.9,0.8,6.5,0,7.3C286,47.1,285.7,47.3,284.7,47.3z M282.5,40.9c-0.2,0.9-0.3,4-0.1,4.5
		c0.2,0.1,1.1,0.4,2.2,0.4c0.2,0,0.4,0,0.5,0c0.2-1,0.2-4.4-0.1-5.2c-0.1,0-0.2,0-0.5,0C283.8,40.5,282.9,40.7,282.5,40.9z"/>
	<path class="st6" d="M291.3,47.2c-1.4,0-2-0.2-2.3-0.8c-0.2-0.4-0.6-6.2,0.6-6.8c0.6-0.3,1.8-0.4,2.2-0.4c1.8,0,2.1,0.4,2.3,0.6
		c0.4,0.5,1,6.2,0.1,6.9C293.6,47.2,291.5,47.2,291.3,47.2z M290.4,45.6c0.2,0,0.5,0.1,0.9,0.1c0.7,0,1.4-0.1,1.8-0.1
		c0.1-1-0.1-3.9-0.3-4.7c-0.2,0-0.5-0.1-1-0.1c-0.6,0-1.1,0.1-1.3,0.1C290.2,41.7,290.2,44.6,290.4,45.6z"/>
	<path class="st6" d="M299.5,47.1c-1.2,0-1.7-0.3-1.9-0.5c-0.9-0.9-0.6-5.4-0.6-5.4c0.1-1,0.3-1.4,0.6-1.6c0.2-0.1,0.5-0.3,1.3-0.3
		c0.9,0,2.2,0.2,2.8,0.5c0.4,0.2,0.6,0.6,0.8,1.4c0.2,1,0.5,4.4-0.1,5.1C301.9,47.1,299.6,47.1,299.5,47.1z M298.7,45.5
		c0.1,0,0.3,0.1,0.8,0.1c0.8,0,1.5-0.1,1.9-0.2c0.2-0.9,0-3.6-0.3-4.3c-0.4-0.1-1.3-0.3-2-0.3c-0.2,0-0.3,0-0.4,0
		C298.4,41.7,298.4,44.8,298.7,45.5z"/>
	<path class="st6" d="M276.4,57.8c-0.8,0-3.1-0.2-3.7-1c-0.6-0.9-0.5-5.9,0.4-6.7c0.2-0.1,0.6-0.5,2.5-0.5c0.8,0,2.3,0.1,2.8,0.5
		c0.7,0.7,0.6,6,0.1,6.9C278.3,57.6,277.6,57.8,276.4,57.8z M274,55.9c0.3,0.2,1.4,0.4,2.4,0.4c0.5,0,0.7-0.1,0.9-0.1
		c0.2-0.8,0.2-4,0-5c-0.3-0.1-0.9-0.1-1.7-0.1c-0.9,0-1.3,0.1-1.5,0.1C273.8,52,273.8,55.1,274,55.9z"/>
	<path class="st6" d="M308.8,57.7c-1.2,0-3.2-0.1-3.6-1c-0.4-0.8-0.1-6.1,0.7-6.9c0.3-0.3,0.7-0.4,1.4-0.4c0.9,0,2.8,0.3,3.5,0.9
		c0.9,0.8,0.9,5.9,0.4,6.7C310.9,57.4,310.5,57.7,308.8,57.7z M306.5,56c0.4,0.1,1.3,0.3,2.3,0.3c0.6,0,0.9,0,1.1-0.1
		c0.1-0.8,0-4-0.2-4.7c-0.3-0.2-1.5-0.4-2.4-0.4c-0.2,0-0.3,0-0.3,0C306.6,51.9,306.4,55.1,306.5,56z"/>
	<path class="st6" d="M308.3,47.1c-0.4,0-2.3,0-3-0.7c-0.3-0.2-0.5-0.7-0.5-2.2c0,0-0.1-3.4,0.7-4.2c0.6-0.6,2.6-0.8,3.3-0.8
		c0.9,0,1.5,0.2,1.8,0.5c0.7,0.8,0.6,5.9,0,6.7C310.3,46.8,309.8,47.1,308.3,47.1z M306.3,45.4c0.2,0.1,1,0.2,1.9,0.2
		c0.6,0,0.9-0.1,1-0.1c0.2-0.7,0.3-3.8,0-4.6c-0.1,0-0.3-0.1-0.7-0.1c-0.9,0-1.9,0.2-2.2,0.3C306.2,41.8,306.1,44.6,306.3,45.4z"/>
	<path class="st6" d="M316.2,47.1c-1.6,0-2.6-0.3-3-0.8c-0.6-0.8-0.7-6.2-0.1-6.8c0.2-0.2,0.4-0.4,2.4-0.4c2.6,0,3,0.5,3.1,0.7
		c0.7,0.9,0.5,6.1,0.2,6.6C318.6,46.7,318.4,47.1,316.2,47.1z M314.3,45.4c0.2,0.1,0.8,0.2,1.9,0.2c0.6,0,1,0,1.3-0.1
		c0.1-0.9,0.1-3.9-0.1-4.8c-0.3-0.1-0.9-0.2-2-0.2c-0.6,0-1,0-1.2,0.1C314,41.7,314.1,44.7,314.3,45.4z"/>
	<path class="st6" d="M315.8,57.6c-1.6,0-2.1-0.4-2.3-0.7c-0.5-0.7-0.9-6.1,0-6.9c0.2-0.2,0.7-0.4,2-0.4c0.1,0,2.8,0,3.5,0.7
		c0.6,0.6,0.5,3.3,0.4,4.4c-0.1,1.9-0.3,2.2-0.6,2.4C318.1,57.6,315.9,57.6,315.8,57.6z M314.7,56c0.2,0,0.5,0.1,1.1,0.1
		c0.9,0,1.6-0.1,2-0.2c0.2-0.9,0.2-3.7,0.1-4.6c-0.4-0.1-1.3-0.2-2.3-0.2c-0.5,0-0.8,0-0.9,0.1C314.4,52,314.5,55.1,314.7,56z"/>
	<path class="st6" d="M302.8,51.4c-0.1,0-0.1,0-0.2,0c-2.2-0.5-18.6-1.1-22-0.7c-0.4,0.1-0.8-0.2-0.8-0.6c-0.1-0.4,0.2-0.8,0.6-0.8
		c3.6-0.5,20.1,0.1,22.5,0.7c0.4,0.1,0.7,0.5,0.6,0.9C303.5,51.2,303.2,51.4,302.8,51.4z"/>
	<path class="st6" d="M289.5,67.7c-1.5,0-2.6,0-2.6,0c-3.6-0.1-3.8-0.4-4.1-0.7c-0.9-1.1-0.1-15.6,0-16.7c0.1-0.4,0.4-0.7,0.8-0.6
		c0.4,0.1,0.7,0.4,0.6,0.8c-0.3,2.2-0.7,13.5-0.3,15.5c2.1,0.4,13.3,0.2,15.2-0.3c0.2-1.5,0-8.5-0.4-14.9c0-0.4,0.3-0.8,0.7-0.8
		c0.4,0,0.8,0.3,0.8,0.7c1,15,0.3,15.7,0.1,16C299.6,67.5,293.2,67.7,289.5,67.7z"/>
	<path class="st6" d="M279.7,37.3c-9.7,0-17.5-0.1-18.4-0.5c-0.4-0.1-0.6-0.6-0.5-1c0.1-0.4,0.6-0.6,1-0.5
		c2.2,0.6,56.3,0.3,59.7-0.3c0.4-0.1,0.8,0.2,0.9,0.6c0.1,0.4-0.2,0.8-0.6,0.9C320,36.9,296.9,37.3,279.7,37.3z"/>
	<path class="st6" d="M271.1,36.8c-0.1,0-0.3,0-0.4-0.1c-0.3-0.2-0.4-0.7-0.2-1c0.8-1.3,19.3-18.9,22-18.9c0,0,0,0,0.1,0
		c2.3,0.3,19,16.8,20,18.7c0.2,0.4,0.1,0.8-0.3,1c-0.4,0.2-0.8,0.1-1-0.3c-1.2-2.3-16.7-16.9-18.8-17.9c-2.3,0.8-19.3,16-20.7,18.2
		C271.6,36.7,271.3,36.8,271.1,36.8z"/>
	<path class="st6" d="M292.2,18.3c-0.4,0-0.7-0.3-0.7-0.7L291,6.7c0-0.4,0.3-0.8,0.7-0.8c0.4,0,0.8,0.3,0.8,0.7l0.5,10.9
		C293,17.9,292.7,18.3,292.2,18.3C292.2,18.3,292.2,18.3,292.2,18.3z"/>
	<path class="st6" d="M298.6,14.1c-2.6,0-6.2-0.4-6.2-0.5c-0.4-0.1-0.7-0.5-0.6-0.9c0.1-0.4,0.5-0.7,0.9-0.6
		c1.1,0.2,5.1,0.5,6.9,0.4c-0.1-0.2-0.3-0.4-0.4-0.6c-0.9-1.3-1.4-2.1-1.4-2.8c0.1-0.5,0.4-1,0.7-1.6c0.1-0.2,0.2-0.4,0.4-0.6
		c-1.4-0.1-4.9,0-6.8,0.4c-0.4,0.1-0.8-0.2-0.9-0.6c-0.1-0.4,0.2-0.8,0.6-0.9c1.2-0.2,7.6-0.9,8.5,0c0.6,0.6,0.1,1.5-0.4,2.5
		c-0.2,0.3-0.5,0.9-0.5,1.1c0,0.2,0.7,1.2,1.1,1.7c0.7,0.9,1,1.4,1,1.8l0,0.4l-0.3,0.3C300.8,14,299.8,14.1,298.6,14.1z"/>
	<path class="st6" d="M307.6,65.2c-3.8,0-7-0.2-7.7-0.9c-0.3-0.3-0.3-0.7-0.1-1.1c0.3-0.3,0.7-0.3,1.1-0.1c1.3,0.8,17.3,0.7,20-0.5
		c1.9-1.3,1.3-23.4,0.4-27.2c-0.6-2.6-5.6-9.6-6.6-10.1c-1-0.5-10.2-0.6-13.6-0.3c-0.4,0-0.8-0.3-0.8-0.7c0-0.4,0.3-0.8,0.7-0.8
		c2-0.1,12.8-0.4,14.4,0.5c1.6,0.9,6.7,8.3,7.3,11.1c0.5,2,2.2,27.4-1.3,28.9C320,64.6,313.2,65.2,307.6,65.2z"/>
	<path class="st6" d="M269.4,65.2c-3.7,0-6.7-0.3-7.4-1.1c-1.5-2-2.5-26.5-2-28.6c0.6-2.3,4.2-10.3,8.1-11.6
		c2.8-0.9,8.2-0.8,12.2-0.8c1.3,0,2.4,0,3.2,0c0.4,0,0.8,0.3,0.8,0.7c0,0.4-0.3,0.8-0.7,0.8c-0.8,0-1.9,0-3.2,0
		c-3.8-0.1-9.1-0.1-11.7,0.7c-3.1,1-6.6,8.4-7.1,10.5c-0.5,2,0.7,25.6,1.8,27.4c1,0.8,10.9,0.5,19.4-0.2c0.4,0,0.8,0.3,0.8,0.7
		c0,0.4-0.3,0.8-0.7,0.8C279,64.8,273.7,65.2,269.4,65.2z"/>
	<path class="st6" d="M312.7,28.2c-0.3,0-0.5-0.2-0.7-0.4c-0.2-0.4,0-0.8,0.4-1c0.6-0.3,1.3-0.5,1.9-0.7c0.6-0.2,1.1-0.4,1.7-0.6
		c0.4-0.2,0.8,0,1,0.4c0.2,0.4,0,0.8-0.4,1c-0.6,0.3-1.3,0.5-1.9,0.7c-0.6,0.2-1.1,0.4-1.7,0.6C312.9,28.2,312.8,28.2,312.7,28.2z"
		/>
	<path class="st6" d="M314.4,30.3c-0.3,0-0.5-0.2-0.7-0.4c-0.2-0.4,0-0.8,0.4-1c0.6-0.3,1.2-0.5,1.8-0.8c0.6-0.2,1.2-0.5,1.7-0.7
		c0.4-0.2,0.8,0,1,0.4c0.2,0.4,0,0.8-0.4,1c-0.6,0.3-1.2,0.5-1.8,0.8c-0.6,0.2-1.2,0.5-1.7,0.7C314.6,30.2,314.5,30.3,314.4,30.3z"
		/>
	<path class="st6" d="M316,32.4c-0.3,0-0.5-0.1-0.7-0.4c-0.2-0.4-0.1-0.8,0.3-1c0.5-0.3,1-0.5,1.5-0.7c0.5-0.2,1-0.4,1.4-0.7
		c0.4-0.2,0.8-0.1,1,0.3c0.2,0.4,0.1,0.8-0.3,1c-0.5,0.3-1,0.5-1.6,0.7c-0.5,0.2-1,0.4-1.4,0.7C316.3,32.4,316.1,32.4,316,32.4z"/>
	<path class="st6" d="M318.1,34.3c-0.3,0-0.6-0.2-0.7-0.5c-0.2-0.4,0-0.8,0.4-1c0.3-0.1,0.6-0.3,0.8-0.4c0.5-0.2,1-0.5,1.6-0.6
		c0.4-0.1,0.8,0.2,0.9,0.6c0.1,0.4-0.2,0.8-0.6,0.9c-0.4,0.1-0.7,0.2-1.2,0.5c-0.3,0.1-0.6,0.3-0.9,0.4
		C318.3,34.3,318.2,34.3,318.1,34.3z"/>
	<path class="st6" d="M266.1,64.5c-0.4,0-0.7-0.2-0.7-0.6c-0.2-0.8-0.4-1.6-0.7-2.4c-0.2-0.4,0-0.8,0.4-1c0.4-0.2,0.8,0,1,0.4
		c0.4,0.9,0.6,1.8,0.8,2.7c0.1,0.4-0.2,0.8-0.6,0.9C266.2,64.5,266.2,64.5,266.1,64.5z"/>
	<path class="st6" d="M269.6,64.6c-0.3,0-0.6-0.2-0.7-0.5l-1-3c-0.1-0.4,0.1-0.8,0.5-0.9c0.4-0.1,0.8,0.1,0.9,0.5l1,3
		c0.1,0.4-0.1,0.8-0.5,0.9C269.8,64.6,269.7,64.6,269.6,64.6z"/>
	<path class="st6" d="M272.4,64.7c-0.3,0-0.6-0.2-0.7-0.5c-0.2-0.6-0.3-1.1-0.5-1.6c-0.1-0.5-0.3-1-0.4-1.5c-0.1-0.4,0.1-0.8,0.5-1
		c0.4-0.1,0.8,0.1,1,0.5c0.2,0.6,0.3,1.1,0.5,1.6c0.1,0.5,0.3,1,0.4,1.5c0.1,0.4-0.1,0.8-0.5,1C272.6,64.7,272.5,64.7,272.4,64.7z"
		/>
	<path class="st6" d="M275.5,64.4c-0.3,0-0.6-0.2-0.7-0.5c-0.2-0.6-0.4-1-0.6-1.5c-0.2-0.4-0.3-0.9-0.5-1.4c-0.2-0.4,0-0.8,0.4-1
		c0.4-0.2,0.8,0,1,0.4c0.2,0.6,0.4,1,0.6,1.5c0.2,0.4,0.3,0.9,0.5,1.4c0.2,0.4,0,0.8-0.4,1C275.7,64.3,275.6,64.4,275.5,64.4z"/>
	<path class="st6" d="M278.9,64.2c-0.3,0-0.6-0.2-0.7-0.5c-0.2-0.6-0.3-1.1-0.4-1.6c-0.1-0.4-0.1-0.8-0.3-1.3c-0.1-0.4,0-0.8,0.4-1
		c0.4-0.1,0.8,0,1,0.4c0.2,0.6,0.3,1.1,0.4,1.6c0.1,0.4,0.1,0.8,0.3,1.3c0.1,0.4,0,0.8-0.4,1C279.1,64.2,279,64.2,278.9,64.2z"/>
	<path class="st6" d="M303.5,64.9c-0.3,0-0.7-0.2-0.7-0.6c-0.2-0.9-0.5-1.9-0.9-2.8c-0.2-0.4,0-0.8,0.4-1c0.4-0.2,0.8,0,1,0.4
		c0.4,1,0.7,2,1,3c0.1,0.4-0.2,0.8-0.6,0.9C303.6,64.9,303.6,64.9,303.5,64.9z"/>
	<path class="st6" d="M306.8,64.9c-0.4,0-0.7-0.3-0.7-0.6c-0.2-1.1-0.5-2.1-1-3.1c-0.2-0.4,0-0.8,0.4-1c0.4-0.2,0.8,0,1,0.4
		c0.5,1.1,0.9,2.3,1.1,3.4c0.1,0.4-0.2,0.8-0.6,0.9C306.9,64.9,306.8,64.9,306.8,64.9z"/>
	<path class="st6" d="M310.2,65.1c-0.3,0-0.6-0.2-0.7-0.5l-1.2-3.5c-0.1-0.4,0.1-0.8,0.5-1c0.4-0.1,0.8,0.1,1,0.5l1.2,3.5
		c0.1,0.4-0.1,0.8-0.5,1C310.4,65,310.3,65.1,310.2,65.1z"/>
	<path class="st6" d="M313.3,64.7c-0.3,0-0.6-0.2-0.7-0.5l-1-3.3c-0.1-0.4,0.1-0.8,0.5-0.9c0.4-0.1,0.8,0.1,0.9,0.5l1,3.3
		c0.1,0.4-0.1,0.8-0.5,0.9C313.4,64.7,313.4,64.7,313.3,64.7z"/>
	<path class="st6" d="M316.9,64.5c-0.3,0-0.6-0.2-0.7-0.5l-1.3-3.2c-0.2-0.4,0-0.8,0.4-1c0.4-0.2,0.8,0,1,0.4l1.3,3.2
		c0.2,0.4,0,0.8-0.4,1C317.1,64.5,317,64.5,316.9,64.5z"/>
	<path class="st6" d="M320.3,64.3c-0.2,0-0.4-0.1-0.6-0.3c-0.9-1.1-1.5-2.5-1.6-3.9c0-0.4,0.3-0.8,0.7-0.8c0.4,0,0.8,0.3,0.8,0.7
		c0.1,1.1,0.5,2.2,1.3,3.1c0.3,0.3,0.2,0.8-0.1,1.1C320.6,64.2,320.5,64.3,320.3,64.3z"/>
	<path class="st6" d="M292.3,29.2c-0.1,0-0.1,0-0.2,0c-0.4-0.1-0.7-0.5-0.6-0.9c0.2-0.8,0.2-1.6,0-2.3c-0.1-0.4,0.2-0.8,0.6-0.9
		c0.4-0.1,0.8,0.2,0.9,0.6c0.2,1,0.2,2,0,2.9C292.9,28.9,292.6,29.2,292.3,29.2z"/>
	<path class="st6" d="M293.8,31.2c-0.2,0-0.4-0.1-0.6-0.3l-1.6-1.9c-0.3-0.3-0.2-0.8,0.1-1.1c0.3-0.3,0.8-0.2,1.1,0.1l1.6,1.9
		c0.3,0.3,0.2,0.8-0.1,1.1C294.2,31.1,294,31.2,293.8,31.2z"/>
</g>
</svg>
