<svg xmlns="http://www.w3.org/2000/svg" viewBox="0 0 64 65.76"><defs><style>.cls-1{fill:#9e4299;}.cls-2,.cls-3,.cls-4{fill:#4d4d4d;}.cls-3{font-size:3.81px;}.cls-3,.cls-4{font-family:Ubuntu-Bold, Ubuntu;font-weight:700;}.cls-4{font-size:3.77px;}</style></defs><g id="Capa_2" data-name="Capa 2"><g id="Capa_1-2" data-name="Capa 1"><path class="cls-1" d="M22.26,23a15.75,15.75,0,0,1-4.73.1A4,4,0,0,1,15,21.19c-.25-.43-.36-.75.34-.81a14.35,14.35,0,0,1,4.24-.17,3.76,3.76,0,0,1,2.69,2.05c-.76-.05-1.29-.73-2.1-.44A5.55,5.55,0,0,1,22.26,23Z"/><path class="cls-1" d="M41.86,22.39c-.44-.06-.12-.28-.06-.37a4.07,4.07,0,0,1,3.37-2,25.89,25.89,0,0,1,3.4.23c.71.06.74.4.4.93a4.06,4.06,0,0,1-3.47,2c-1.1,0-2.2-.1-3.3-.17-.35,0-.48-.15-.18-.44a3.8,3.8,0,0,1,2.82-.91A3.32,3.32,0,0,0,41.86,22.39Z"/><path class="cls-1" d="M16.66,19a3,3,0,0,1-3.38-1.24l-.72-.9a10.46,10.46,0,0,0,1.06,0,13.55,13.55,0,0,1,2.92-.05,3.33,3.33,0,0,1,2.38,1.86A6.55,6.55,0,0,0,16.66,19Z"/><path class="cls-1" d="M45.79,14.15a2.81,2.81,0,0,1,1.28-2.68c.2-.13.52-.32.55.12a6,6,0,0,1-.1,3.17,2.36,2.36,0,0,1-.64.82c-.56.46-.86.34-1-.39,0-.15,0-.31-.07-.47Z"/><path class="cls-1" d="M17.82,14.42a1.64,1.64,0,0,1,0,.44c-.09.33.22.82-.31,1s-.8-.27-1.06-.62c-.85-1.13-.53-2.4-.35-3.64.06-.47.39-.16.56-.06A2.79,2.79,0,0,1,17.82,14.42Z"/><path class="cls-1" d="M44.1,13.17a2.4,2.4,0,0,1,.16-1.46,6.79,6.79,0,0,0-1.24.75,5.19,5.19,0,0,0-1.1,5.75,3.56,3.56,0,0,0,.69-1.11c.52-1.14,0-2.18.37-2.9l0,0c-.1.74.24,2-.24,3-.1.29-.36,1.05-.41,1.13l.25-.13a3.27,3.27,0,0,0,1.78-2.76A6.86,6.86,0,0,0,44.1,13.17Z"/><path class="cls-2" d="M34.93,23.24a2.87,2.87,0,1,1-2.8-2.87A2.82,2.82,0,0,1,34.93,23.24Z"/><path class="cls-2" d="M51.18,31a5,5,0,0,1-4,.5A27.1,27.1,0,0,1,43.05,30a15.25,15.25,0,0,0-5.31-1.36c-.18,0-.51.16-.52-.17s.28-.38.56-.36l.56,0a20.06,20.06,0,0,1,5.91,1.72A13.85,13.85,0,0,0,48.35,31a4,4,0,0,0,3.32-1.07.92.92,0,0,0,.27-1.14c-1.84,1.06-2.69,1.32-3.95,1.14a12.62,12.62,0,0,1-2.81-.84c-2.29-.89-4.53-2-7.15-2.19a44.54,44.54,0,0,1,6.75-9l.39-.35.75-.82c-.21-.18-9.76,7.6-12.88,12.06-.31.46-.65.9-1,1.37A45.66,45.66,0,0,0,18.84,17.24h0l-.21-.13c-.08-.09-.16-.18-.27,0l.18.14.18.19a51.88,51.88,0,0,1,7.43,9.5,26.44,26.44,0,0,0-7,2.17,8.71,8.71,0,0,1-4.54.73,11.37,11.37,0,0,1-2.39-1.06,1,1,0,0,0,.4,1.27,4.34,4.34,0,0,0,3.28,1,16.68,16.68,0,0,0,5-1.5,17.17,17.17,0,0,1,5.31-1.36c.47,0,.89,0,.94.65a14,14,0,0,0-5.29,1c-1.43.51-2.8,1.17-4.27,1.56-1.87.5-3.64.53-5.17-.89-.1-.1-.21-.14-.4,0a4.79,4.79,0,0,0,4.47,1.88,26.28,26.28,0,0,0,4.65-.95,13.79,13.79,0,0,1,6.38-.47,1.42,1.42,0,0,1,1.21,1,21.93,21.93,0,0,1,1,3.66A37,37,0,0,1,30,42.31a97.48,97.48,0,0,1-1.36,12.5c-.13.91.31,1.46,1.31,1.65a13.42,13.42,0,0,0,3.69.12c1.57-.12,1.91-.58,1.78-2.14-.55-6.35-.89-8.92-1.17-15.29a22.66,22.66,0,0,1,.71-6.09c.73-2.35,1.3-2.44,3.76-2.39a25,25,0,0,1,5.48,1.07,12.2,12.2,0,0,0,5.16.49A3.71,3.71,0,0,0,51.68,31c-.13,0-.19-.09-.25-.08A.6.6,0,0,0,51.18,31Z"/><path class="cls-1" d="M47.49,19a3,3,0,0,0,3.38-1.24c.17-.23.71-.9.71-.9a10.21,10.21,0,0,1-1,0,13.64,13.64,0,0,0-2.93-.05,3.35,3.35,0,0,0-2.38,1.86A6.6,6.6,0,0,1,47.49,19Z"/><path class="cls-1" d="M20.25,13.17a2.49,2.49,0,0,0-.16-1.46,6.52,6.52,0,0,1,1.23.75,5.17,5.17,0,0,1,1.1,5.75,3.76,3.76,0,0,1-.69-1.11c-.51-1.14,0-2.18-.36-2.9l-.05,0c.1.74-.24,2,.25,3,.09.29.36,1.05.4,1.13l-.25-.13A3.29,3.29,0,0,1,20,15.48,6.39,6.39,0,0,1,20.25,13.17Z"/><text class="cls-3" transform="translate(7.88 15.97) rotate(-53.64)">I</text><text class="cls-3" transform="translate(8.56 15) rotate(-49.74)">N</text><text class="cls-3" transform="matrix(0.71, -0.71, 0.71, 0.71, 10.4, 12.85)">S</text><text class="cls-3" transform="matrix(0.76, -0.65, 0.65, 0.76, 11.89, 11.35)">T</text><text class="cls-3" transform="matrix(0.79, -0.61, 0.61, 0.79, 13.63, 9.87)">I</text><text class="cls-3" transform="translate(14.55 9.15) rotate(-34.04)">T</text><text class="cls-3" transform="translate(16.44 7.86) rotate(-29.25)">U</text><text class="cls-3" transform="matrix(0.91, -0.41, 0.41, 0.91, 18.76, 6.57)">T</text><text class="cls-3" transform="translate(20.74 5.64) rotate(-19.49)">O</text><text class="cls-3" transform="matrix(0.96, -0.27, 0.27, 0.96, 23.55, 4.68)"> </text><text class="cls-3" transform="matrix(0.98, -0.22, 0.22, 0.98, 24.4, 4.42)">T</text><text class="cls-3" transform="translate(26.64 3.92) rotate(-8.15)">É</text><text class="cls-3" transform="translate(28.88 3.6) rotate(-3.63)">C</text><text class="cls-3" transform="translate(31.27 3.43) rotate(1.36)">N</text><text class="cls-3" transform="translate(34.11 3.53) rotate(5.21)">I</text><text class="cls-3" transform="translate(35.27 3.61) rotate(8.69)">C</text><text class="cls-3" transform="translate(37.57 3.95) rotate(13.76)">O</text><text class="cls-3" transform="translate(40.46 4.69) rotate(17.54)"> </text><text class="cls-3" transform="translate(41.31 4.94) rotate(20.55)">S</text><text class="cls-3" transform="translate(43.32 5.68) rotate(25.2)">U</text><text class="cls-3" transform="translate(45.73 6.82) rotate(30.16)">P</text><text class="cls-3" transform="translate(47.79 8.01) rotate(34.65)">E</text><text class="cls-3" transform="translate(49.67 9.3) rotate(39.28)">R</text><text class="cls-3" transform="matrix(0.73, 0.68, -0.68, 0.73, 51.6, 10.91)">I</text><text class="cls-3" transform="translate(52.46 11.67) rotate(46.79)">O</text><text class="cls-3" transform="translate(54.48 13.83) rotate(52.05)">R</text><text class="cls-4" transform="translate(11.73 57.73) rotate(37.14)">C</text><text class="cls-4" transform="translate(13.77 59.27) rotate(32.71)">E</text><text class="cls-4" transform="matrix(0.88, 0.47, -0.47, 0.88, 15.81, 60.58)">R</text><text class="cls-4" transform="translate(18.14 61.82) rotate(23.41)">R</text><text class="cls-4" transform="matrix(0.94, 0.34, -0.34, 0.94, 20.55, 62.84)">I</text><text class="cls-4" transform="matrix(0.96, 0.29, -0.29, 0.96, 21.75, 63.29)">T</text><text class="cls-4" transform="translate(24.02 63.98) rotate(11.7)">O</text><text class="cls-4" transform="translate(27.02 64.56) rotate(8.06)"> </text><text class="cls-4" transform="translate(27.99 64.7) rotate(5.98)">-</text><text class="cls-4" transform="translate(29.31 64.84) rotate(3.94)"> </text><text class="cls-4" transform="translate(30.29 64.92) rotate(1)">E</text><text class="cls-4" transform="matrix(1, -0.07, 0.07, 1, 32.73, 64.97)">N</text><text class="cls-4" transform="translate(35.7 64.75) rotate(-8.64)">T</text><text class="cls-4" transform="matrix(0.97, -0.23, 0.23, 0.97, 38.12, 64.38)">R</text><text class="cls-4" transform="matrix(0.95, -0.31, 0.31, 0.95, 40.69, 63.77)">E</text><text class="cls-4" transform="translate(42.95 63.03) rotate(-20.82)"> </text><text class="cls-4" transform="translate(43.86 62.7) rotate(-24.02)">R</text><text class="cls-4" transform="translate(46.25 61.61) rotate(-27.56)">Í</text><text class="cls-4" transform="matrix(0.85, -0.52, 0.52, 0.85, 47.4, 61.04)">O</text><text class="cls-4" transform="matrix(0.81, -0.59, 0.59, 0.81, 50.07, 59.38)">S</text><path class="cls-2" d="M52.77,55l.53.56a31,31,0,0,0,5-39.17l-.62.45A30.24,30.24,0,0,1,52.77,55Z"/><path class="cls-2" d="M11,55.83l.52-.56a30.27,30.27,0,0,1-5.21-38.4l-.61-.45A31,31,0,0,0,11,55.83Z"/></g></g></svg>